<?xml version="1.0" standalone="no"?>
  <!DOCTYPE svg PUBLIC "-//W3C//DTD SVG 1.1//EN" "http://www.w3.org/Graphics/SVG/1.1/DTD/svg11.dtd" >
  <svg>
  <metadata>
  Created by font-carrier
  </metadata>
  <defs>
  <font id="OpenSans-SemiboldItalic" horiz-adv-x="2482" vert-adv-y="2482" >
    <font-face
      
      font-family="Open Sans Semibold"
      
      font-weight="400"
      
      font-stretch="normal"
      
      units-per-em="2048"
      
      ascent="2189"
      
      descent="-600"
      
    />
      <missing-glyph />

      

      
      <glyph glyph-name="uni21" unicode="&#x21;" d="M336 444L160 444L328 1462L600 1462L336 444M33 96Q33 176 78.50 226Q124 276 209 276Q266 276 300 243.50Q334 211 334 150Q334 71 287 22Q240-27 164-27Q102-27 67.50 6.50Q33 40 33 96Z"  horiz-adv-x="557" vert-adv-y="2048"  />

      
      <glyph glyph-name="uni22" unicode="&#x22;" d="M516 1462L365 934L213 934L285 1462L516 1462M893 1462L741 934L588 934L662 1462L893 1462Z"  horiz-adv-x="858" vert-adv-y="2048"  />

      
      <glyph glyph-name="uni23" unicode="&#x23;" d="M1036 872L952 586L1223 586L1208 418L905 418L784 0L604 0L727 418L479 418L358 0L184 0L301 418L51 418L68 586L348 586L432 872L168 872L184 1040L479 1040L600 1462L778 1462L657 1040L909 1040L1030 1462L1204 1462L1083 1040L1335 1040L1321 872L1036 872M526 586L776 586L858 872L608 872L526 586Z"  horiz-adv-x="1323" vert-adv-y="2048"  />

      
      <glyph glyph-name="uni24" unicode="&#x24;" d="M987 494Q987 322 867.50 217Q748 112 530 92L485-119L350-119L395 92Q198 105 61 172L61 381Q139 339 240.50 311Q342 283 434 281L518 668Q362 724 294.50 806.50Q227 889 227 1006Q227 1173 345.50 1273.50Q464 1374 670 1391L707 1554L842 1554L807 1389Q968 1373 1096 1307L1010 1122Q876 1188 766 1196L686 825Q814 774 872.50 730Q931 686 959 629Q987 572 987 494M571 285Q657 296 707.50 345Q758 394 758 471Q758 572 643 616L571 285M629 1196Q540 1185 495.50 1138.50Q451 1092 451 1016Q451 918 561 877L629 1196Z"  horiz-adv-x="1128" vert-adv-y="2048"  />

      
      <glyph glyph-name="uni25" unicode="&#x25;" d="M530 1315Q475 1315 431 1254Q387 1193 360.50 1081Q334 969 334 866Q334 731 414 731Q466 731 509.50 789Q553 847 582.50 964.50Q612 1082 612 1184Q612 1315 530 1315M805 1186Q805 1026 749.50 872.50Q694 719 603 642Q512 565 397 565Q273 565 207 644Q141 723 141 872Q141 1038 194 1185.50Q247 1333 336.50 1408Q426 1483 545 1483Q672 1483 738.50 1407Q805 1331 805 1186M1511 1462L426 0L231 0L1317 1462L1511 1462M1329 731Q1277 731 1233.50 673.50Q1190 616 1161.50 502.50Q1133 389 1133 281Q1133 147 1214 147Q1266 147 1310 205.50Q1354 264 1383.50 380Q1413 496 1413 600Q1413 731 1329 731M1606 604Q1606 443 1550.50 288.50Q1495 134 1404 57Q1313-20 1200-20Q1073-20 1006.50 56.50Q940 133 940 279Q940 450 993 599Q1046 748 1135.50 822.50Q1225 897 1343 897Q1470 897 1538 822Q1606 747 1606 604Z"  horiz-adv-x="1688" vert-adv-y="2048"  />

      
      <glyph glyph-name="uni26" unicode="&#x26;" d="M748 1298Q661 1298 614 1244Q567 1190 567 1102Q567 993 629 901Q776 976 828.50 1034.50Q881 1093 881 1161Q881 1227 845 1262.50Q809 1298 748 1298M508 176Q585 176 655 203Q725 230 799 285L535 666Q402 592 353.50 524.50Q305 457 305 371Q305 285 361 230.50Q417 176 508 176M66 350Q66 497 151.50 604Q237 711 438 809Q350 960 350 1092Q350 1272 462.50 1378.50Q575 1485 760 1485Q920 1485 1012 1404Q1104 1323 1104 1186Q1104 1057 1014.50 956Q925 855 721 764L956 438Q1065 550 1137 733L1370 733Q1257 463 1073 279L1278 0L1001 0L907 131Q801 51 696 15.50Q591-20 467-20Q277-20 171.50 77.50Q66 175 66 350Z"  horiz-adv-x="1411" vert-adv-y="2048"  />

      
      <glyph glyph-name="uni27" unicode="&#x27;" d="M516 1462L365 934L213 934L285 1462L516 1462Z"  horiz-adv-x="483" vert-adv-y="2048"  />

      
      <glyph glyph-name="uni28" unicode="&#x28;" d="M78 276Q78 619 202.50 908.50Q327 1198 582 1462L791 1462Q293 914 293 272Q293-57 408-324L225-324Q78-63 78 276Z"  horiz-adv-x="639" vert-adv-y="2048"  />

      
      <glyph glyph-name="uni29" unicode="&#x29;" d="M559 860Q559 518 436 230.50Q313-57 55-324L-154-324Q344 224 344 866Q344 1193 229 1462L412 1462Q559 1197 559 860Z"  horiz-adv-x="639" vert-adv-y="2048"  />

      
      <glyph glyph-name="uni2a" unicode="&#x2a;" d="M868 1524L752 1157L1155 1180L1143 975L776 1020L946 659L741 598L639 969L412 657L250 801L543 1067L193 1167L264 1362L618 1184L655 1567L868 1524Z"  horiz-adv-x="1122" vert-adv-y="2048"  />

      
      <glyph glyph-name="uni2b" unicode="&#x2b;" d="M496 631L117 631L117 811L496 811L496 1192L676 1192L676 811L1053 811L1053 631L676 631L676 256L496 256L496 631Z"  horiz-adv-x="1128" vert-adv-y="2048"  />

      
      <glyph glyph-name="uni2c" unicode="&#x2c;" d="M334 238L342 215Q217-45 76-264L-102-264Q3-26 98 238L334 238Z"  horiz-adv-x="530" vert-adv-y="2048"  />

      
      <glyph glyph-name="uni2d" unicode="&#x2d;" d="M47 446L92 649L594 649L549 446L47 446Z"  horiz-adv-x="649" vert-adv-y="2048"  />

      
      <glyph glyph-name="uni2e" unicode="&#x2e;" d="M33 94Q33 177 80 226.50Q127 276 211 276Q267 276 300.50 244.50Q334 213 334 152Q334 74 286.50 22.50Q239-29 162-29Q96-29 64.50 6.50Q33 42 33 94Z"  horiz-adv-x="551" vert-adv-y="2048"  />

      
      <glyph glyph-name="uni2f" unicode="&#x2f;" d="M952 1462L141 0L-92 0L719 1462L952 1462Z"  horiz-adv-x="788" vert-adv-y="2048"  />

      
      <glyph glyph-name="uni30" unicode="&#x30;" d="M1100 1012Q1100 706 1021 465.50Q942 225 802 102.50Q662-20 477-20Q283-20 187.50 107.50Q92 235 92 471Q92 755 175 997Q258 1239 397.50 1362Q537 1485 719 1485Q906 1485 1003 1366.50Q1100 1248 1100 1012M700 1288Q603 1288 520 1176Q437 1064 383.50 863.50Q330 663 330 469Q330 326 369 251Q408 176 498 176Q598 176 680.50 289.50Q763 403 812.50 606Q862 809 862 1020Q862 1288 700 1288Z"  horiz-adv-x="1128" vert-adv-y="2048"  />

      
      <glyph glyph-name="uni31" unicode="&#x31;" d="M637 0L399 0L588 870Q616 1020 670 1194Q613 1139 535 1092L348 975L242 1145L750 1462L948 1462L637 0Z"  horiz-adv-x="1128" vert-adv-y="2048"  />

      
      <glyph glyph-name="uni32" unicode="&#x32;" d="M911 0L-18 0L18 180L489 602Q665 761 727.50 833Q790 905 818 966.50Q846 1028 846 1098Q846 1183 796.50 1232.50Q747 1282 657 1282Q587 1282 518 1252Q449 1222 348 1143L233 1303Q353 1400 464 1441.50Q575 1483 692 1483Q873 1483 980 1390Q1087 1297 1087 1139Q1087 1031 1048 938Q1009 845 925 747.50Q841 650 641 479L330 215L330 207L952 207L911 0Z"  horiz-adv-x="1128" vert-adv-y="2048"  />

      
      <glyph glyph-name="uni33" unicode="&#x33;" d="M1087 1153Q1087 995 988 889Q889 783 719 752L719 745Q846 721 915.50 639Q985 557 985 434Q985 301 917 197.50Q849 94 720.50 37Q592-20 416-20Q191-20 31 59L31 274Q115 225 216.50 198.50Q318 172 412 172Q569 172 657 243.50Q745 315 745 440Q745 659 467 659L334 659L371 842L477 842Q641 842 744.50 916.50Q848 991 848 1116Q848 1195 798.50 1240.50Q749 1286 659 1286Q587 1286 512.50 1260.50Q438 1235 350 1176L246 1337Q366 1418 471.50 1450.50Q577 1483 698 1483Q881 1483 984 1394.50Q1087 1306 1087 1153Z"  horiz-adv-x="1128" vert-adv-y="2048"  />

      
      <glyph glyph-name="uni34" unicode="&#x34;" d="M1047 317L846 317L778 0L549 0L618 317L-4 317L33 514L836 1466L1090 1466L889 514L1090 514L1047 317M659 514L727 823Q758 959 827 1200L819 1200Q768 1114 684 1014L262 514L659 514Z"  horiz-adv-x="1128" vert-adv-y="2048"  />

      
      <glyph glyph-name="uni35" unicode="&#x35;" d="M610 907Q791 907 898.50 803.50Q1006 700 1006 518Q1006 357 936 235Q866 113 732 46.50Q598-20 408-20Q194-20 53 59L53 276Q220 176 395 176Q568 176 665 259Q762 342 762 489Q762 594 700 657.50Q638 721 512 721Q417 721 287 686L199 754L399 1462L1112 1462L1067 1253L561 1253L455 889Q548 907 610 907Z"  horiz-adv-x="1128" vert-adv-y="2048"  />

      
      <glyph glyph-name="uni36" unicode="&#x36;" d="M111 446Q111 651 171.50 852Q232 1053 336.50 1195Q441 1337 587.50 1410Q734 1483 930 1483Q1047 1483 1133 1458L1090 1264Q1018 1286 909 1286Q704 1286 572 1156.50Q440 1027 375 764L381 764Q506 934 707 934Q863 934 950.50 835Q1038 736 1038 563Q1038 401 969.50 262Q901 123 784 51.50Q667-20 514-20Q320-20 215.50 100Q111 220 111 446M530 174Q611 174 673 222.50Q735 271 769 357Q803 443 803 545Q803 745 625 745Q574 745 529.50 726Q485 707 450.50 678Q416 649 392 613.50Q368 578 353 531.50Q338 485 340 418Q340 308 389.50 241Q439 174 530 174Z"  horiz-adv-x="1128" vert-adv-y="2048"  />

      
      <glyph glyph-name="uni37" unicode="&#x37;" d="M125 0L879 1257L205 1257L248 1462L1180 1462L1147 1294L389 0L125 0Z"  horiz-adv-x="1128" vert-adv-y="2048"  />

      
      <glyph glyph-name="uni38" unicode="&#x38;" d="M731 1485Q910 1485 1014 1396Q1118 1307 1118 1157Q1118 1025 1039 927.50Q960 830 791 764Q911 686 963.50 598.50Q1016 511 1016 397Q1016 276 954.50 180.50Q893 85 779 32.50Q665-20 508-20Q305-20 190.50 80Q76 180 76 348Q76 645 444 780Q353 850 313.50 925Q274 1000 274 1087Q274 1266 401 1375.50Q528 1485 731 1485M594 672Q445 618 378 545.50Q311 473 311 369Q311 276 370 220Q429 164 528 164Q643 164 712.50 228Q782 292 782 395Q782 486 733.50 552.50Q685 619 594 672M711 1300Q618 1300 561 1244Q504 1188 504 1096Q504 1013 543 959Q582 905 647 866Q762 909 824.50 971Q887 1033 887 1128Q887 1209 839 1254.50Q791 1300 711 1300Z"  horiz-adv-x="1128" vert-adv-y="2048"  />

      
      <glyph glyph-name="uni39" unicode="&#x39;" d="M1079 1018Q1079 813 1021 603.50Q963 394 868.50 254.50Q774 115 642.50 47.50Q511-20 332-20Q199-20 92 12L92 219Q213 176 328 176Q516 176 634 299Q752 422 811 688L805 688Q692 528 500 528Q335 528 244.50 630Q154 732 154 918Q154 1074 221 1207Q288 1340 407.50 1411.50Q527 1483 682 1483Q874 1483 976.50 1363.50Q1079 1244 1079 1018M664 1288Q582 1288 518.50 1241Q455 1194 421 1111Q387 1028 387 932Q387 827 433 772Q479 717 567 717Q684 717 765 811Q846 905 846 1051Q846 1159 798 1223.50Q750 1288 664 1288Z"  horiz-adv-x="1128" vert-adv-y="2048"  />

      
      <glyph glyph-name="uni3a" unicode="&#x3a;" d="M205 948Q205 1031 252 1080.50Q299 1130 383 1130Q439 1130 472.50 1098.50Q506 1067 506 1006Q506 927 457.50 876Q409 825 332 825Q266 825 235.50 860.50Q205 896 205 948M33 94Q33 177 80 226.50Q127 276 211 276Q267 276 300.50 244.50Q334 213 334 152Q334 74 286.50 22.50Q239-29 162-29Q96-29 64.50 6.50Q33 42 33 94Z"  horiz-adv-x="551" vert-adv-y="2048"  />

      
      <glyph glyph-name="uni3b" unicode="&#x3b;" d="M334 238L342 215Q217-45 76-264L-100-264Q-5-50 98 238L334 238M205 948Q205 1031 252 1080.50Q299 1130 383 1130Q439 1130 472.50 1098.50Q506 1067 506 1006Q506 927 457.50 876Q409 825 332 825Q266 825 235.50 860.50Q205 896 205 948Z"  horiz-adv-x="551" vert-adv-y="2048"  />

      
      <glyph glyph-name="uni3c" unicode="&#x3c;" d="M1051 221L115 651L115 772L1051 1260L1051 1065L354 721L1051 418L1051 221Z"  horiz-adv-x="1128" vert-adv-y="2048"  />

      
      <glyph glyph-name="uni3d" unicode="&#x3d;" d="M117 831L117 1010L1053 1010L1053 831L117 831M117 430L117 610L1053 610L1053 430L117 430Z"  horiz-adv-x="1128" vert-adv-y="2048"  />

      
      <glyph glyph-name="uni3e" unicode="&#x3e;" d="M115 418L809 721L115 1065L115 1260L1051 772L1051 651L115 221L115 418Z"  horiz-adv-x="1128" vert-adv-y="2048"  />

      
      <glyph glyph-name="uni3f" unicode="&#x3f;" d="M260 444Q278 577 331.50 664.50Q385 752 508 842Q615 919 654.50 959Q694 999 712.50 1039.50Q731 1080 731 1128Q731 1198 688.50 1242Q646 1286 565 1286Q488 1286 415 1258.50Q342 1231 264 1194L186 1370Q393 1483 596 1483Q767 1483 865 1397.50Q963 1312 963 1155Q963 1035 899.50 937.50Q836 840 668 721Q564 647 518 588Q472 529 457 444L260 444M162 94Q162 177 209 226.50Q256 276 340 276Q396 276 429.50 244.50Q463 213 463 152Q463 73 414 23Q365-27 289-27Q223-27 192.50 7.50Q162 42 162 94Z"  horiz-adv-x="907" vert-adv-y="2048"  />

      
      <glyph glyph-name="uni40" unicode="&#x40;" d="M1706 846Q1706 670 1646.50 523.50Q1587 377 1480 294Q1373 211 1241 211Q1143 211 1090.50 257Q1038 303 1026 377L1020 377Q919 211 743 211Q620 211 553.50 289.50Q487 368 487 508Q487 659 554.50 787.50Q622 916 742.50 990.50Q863 1065 1006 1065Q1058 1065 1100.50 1060Q1143 1055 1180 1047Q1217 1039 1309 1008L1208 616Q1178 502 1178 457Q1178 365 1257 365Q1329 365 1391 431.50Q1453 498 1488.50 606Q1524 714 1524 836Q1524 1064 1395.50 1183.50Q1267 1303 1032 1303Q818 1303 647 1203.50Q476 1104 380.50 922Q285 740 285 516Q285 257 425.50 115Q566-27 817-27Q1017-27 1247 59L1247-96Q1028-186 793-186Q583-186 426-102.50Q269-19 184.50 137Q100 293 100 502Q100 772 222.50 991Q345 1210 565.50 1335Q786 1460 1059 1460Q1259 1460 1405 1385.50Q1551 1311 1628.50 1171Q1706 1031 1706 846M989 913Q903 913 830.50 859.50Q758 806 717 715.50Q676 625 676 522Q676 365 788 365Q870 365 929.50 437Q989 509 1030 657L1094 897Q1041 913 989 913Z"  horiz-adv-x="1743" vert-adv-y="2048"  />

      
      <glyph glyph-name="uni41" unicode="&#x41;" d="M827 406L342 406L133 0L-121 0L662 1464L936 1464L1102 0L868 0L827 406M811 614Q771 1030 765.50 1117.50Q760 1205 760 1257Q705 1118 618 950L446 614L811 614Z"  horiz-adv-x="1210" vert-adv-y="2048"  />

      
      <glyph glyph-name="uni42" unicode="&#x42;" d="M778 1462Q1000 1462 1113.50 1378Q1227 1294 1227 1130Q1227 984 1140.50 887Q1054 790 901 760L901 752Q1009 724 1068.50 648.50Q1128 573 1128 465Q1128 248 978 124Q828 0 561 0L70 0L379 1462L778 1462M489 858L688 858Q827 858 903 918.50Q979 979 979 1090Q979 1262 756 1262L575 1262L489 858M348 201L571 201Q718 201 801.50 269Q885 337 885 463Q885 561 825 612.50Q765 664 649 664L449 664L348 201Z"  horiz-adv-x="1247" vert-adv-y="2048"  />

      
      <glyph glyph-name="uni43" unicode="&#x43;" d="M924 1278Q770 1278 649 1189Q528 1100 455.50 929.50Q383 759 383 555Q383 375 465.50 279.50Q548 184 709 184Q850 184 1038 252L1038 47Q858-20 664-20Q416-20 275.50 128.50Q135 277 135 545Q135 805 240.50 1028Q346 1251 522 1367Q698 1483 924 1483Q1141 1483 1313 1391L1219 1196Q1156 1230 1085 1254Q1014 1278 924 1278Z"  horiz-adv-x="1225" vert-adv-y="2048"  />

      
      <glyph glyph-name="uni44" unicode="&#x44;" d="M1311 893Q1311 622 1211 420Q1111 218 920 109Q729 0 471 0L70 0L379 1462L748 1462Q1019 1462 1165 1317Q1311 1172 1311 893M483 201Q660 201 792 287Q924 373 994.50 529Q1065 685 1065 885Q1065 1069 977 1165.50Q889 1262 721 1262L575 1262L348 201L483 201Z"  horiz-adv-x="1374" vert-adv-y="2048"  />

      
      <glyph glyph-name="uni45" unicode="&#x45;" d="M846 0L70 0L379 1462L1155 1462L1112 1257L573 1257L489 862L991 862L950 659L446 659L350 203L889 203L846 0Z"  horiz-adv-x="1077" vert-adv-y="2048"  />

      
      <glyph glyph-name="uni46" unicode="&#x46;" d="M307 0L70 0L379 1462L1153 1462L1110 1257L573 1257L477 803L979 803L934 600L434 600L307 0Z"  horiz-adv-x="1026" vert-adv-y="2048"  />

      
      <glyph glyph-name="uni47" unicode="&#x47;" d="M786 793L1298 793L1141 57Q1029 17 922.50-1.50Q816-20 684-20Q423-20 279 126Q135 272 135 539Q135 803 237.50 1022Q340 1241 527.50 1362Q715 1483 954 1483Q1065 1483 1167 1462.50Q1269 1442 1372 1393L1282 1190Q1108 1276 948 1276Q790 1276 661 1185.50Q532 1095 457.50 927.50Q383 760 383 555Q383 372 472 278Q561 184 725 184Q834 184 940 217L1020 588L743 588L786 793Z"  horiz-adv-x="1399" vert-adv-y="2048"  />

      
      <glyph glyph-name="uni48" unicode="&#x48;" d="M1110 0L872 0L1012 659L446 659L307 0L70 0L379 1462L616 1462L489 864L1055 864L1182 1462L1419 1462L1110 0Z"  horiz-adv-x="1411" vert-adv-y="2048"  />

      
      <glyph glyph-name="uni4a" unicode="&#x4a;" d="M-152-408Q-256-408-322-383L-317-182Q-233-203-164-203Q37-203 90 47L389 1462L627 1462L322 16Q276-201 160.50-304.50Q45-408-152-408Z"  horiz-adv-x="612" vert-adv-y="2048"  />

      
      <glyph glyph-name="uni4b" unicode="&#x4b;" d="M1087 0L825 0L573 655L424 555L307 0L70 0L379 1462L616 1462L465 756L606 922L1098 1462L1382 1462L766 793L1087 0Z"  horiz-adv-x="1198" vert-adv-y="2048"  />

      
      <glyph glyph-name="uni4c" unicode="&#x4c;" d="M70 0L379 1462L616 1462L350 205L889 205L846 0L70 0Z"  horiz-adv-x="1016" vert-adv-y="2048"  />

      
      <glyph glyph-name="uni4d" unicode="&#x4d;" d="M647 0L532 1214L526 1214Q517 1096 471 874L287 0L68 0L377 1462L700 1462L809 313L815 313L1421 1462L1765 1462L1460 0L1233 0L1415 872Q1454 1058 1501 1214L1495 1214L852 0L647 0Z"  horiz-adv-x="1757" vert-adv-y="2048"  />

      
      <glyph glyph-name="uni4e" unicode="&#x4e;" d="M1192 0L932 0L522 1163L516 1163L506 1094Q482 945 470.50 881.50Q459 818 287 0L68 0L377 1462L645 1462L1044 313L1051 313Q1057 367 1082 505.50Q1107 644 1122 709L1282 1462L1501 1462L1192 0Z"  horiz-adv-x="1491" vert-adv-y="2048"  />

      
      <glyph glyph-name="uni4f" unicode="&#x4f;" d="M1421 922Q1421 643 1326 425Q1231 207 1064.50 93.50Q898-20 678-20Q419-20 277 129.50Q135 279 135 543Q135 810 233.50 1030.50Q332 1251 503 1368Q674 1485 891 1485Q1142 1485 1281.50 1336Q1421 1187 1421 922M872 1280Q734 1280 622 1184Q510 1088 446.50 917.50Q383 747 383 545Q383 372 464.50 278Q546 184 692 184Q830 184 940.50 279.50Q1051 375 1112.50 544.50Q1174 714 1174 920Q1174 1090 1095 1185Q1016 1280 872 1280Z"  horiz-adv-x="1485" vert-adv-y="2048"  />

      
      <glyph glyph-name="uni50" unicode="&#x50;" d="M465 748L559 748Q737 748 834.50 827.50Q932 907 932 1053Q932 1162 873.50 1212Q815 1262 694 1262L575 1262L465 748M1174 1061Q1174 813 1004.50 680Q835 547 532 547L422 547L307 0L70 0L379 1462L713 1462Q942 1462 1058 1361.50Q1174 1261 1174 1061Z"  horiz-adv-x="1174" vert-adv-y="2048"  />

      
      <glyph glyph-name="uni51" unicode="&#x51;" d="M1421 922Q1421 600 1291 359Q1161 118 936 27L1200-348L911-348L709-20L678-20Q419-20 277 129.50Q135 279 135 543Q135 810 233.50 1030.50Q332 1251 503 1368Q674 1485 891 1485Q1142 1485 1281.50 1336Q1421 1187 1421 922M872 1280Q734 1280 622 1184Q510 1088 446.50 917.50Q383 747 383 545Q383 372 464.50 278Q546 184 692 184Q830 184 940.50 278Q1051 372 1112.50 541.50Q1174 711 1174 920Q1174 1090 1095 1185Q1016 1280 872 1280Z"  horiz-adv-x="1485" vert-adv-y="2048"  />

      
      <glyph glyph-name="uni52" unicode="&#x52;" d="M430 584L307 0L70 0L379 1462L717 1462Q940 1462 1059 1367.50Q1178 1273 1178 1077Q1178 912 1091.50 798.50Q1005 685 834 633L1083 0L823 0L616 584L430 584M473 782L596 782Q766 782 850 857Q934 932 934 1063Q934 1168 875 1214Q816 1260 692 1260L573 1260L473 782Z"  horiz-adv-x="1206" vert-adv-y="2048"  />

      
      <glyph glyph-name="uni53" unicode="&#x53;" d="M930 428Q930 218 785.50 99Q641-20 387-20Q177-20 39 55L39 279Q212 182 389 182Q526 182 605 240.50Q684 299 684 403Q684 472 643 525.50Q602 579 471 662Q366 729 316 784Q266 839 239.50 904.50Q213 970 213 1049Q213 1177 274.50 1276Q336 1375 448.50 1429Q561 1483 702 1483Q907 1483 1083 1391L997 1200Q836 1278 702 1278Q593 1278 527 1219.50Q461 1161 461 1067Q461 1020 476 984.50Q491 949 522.50 918.50Q554 888 657 823Q812 726 871 635.50Q930 545 930 428Z"  horiz-adv-x="1057" vert-adv-y="2048"  />

      
      <glyph glyph-name="uni54" unicode="&#x54;" d="M528 0L291 0L555 1257L176 1257L221 1462L1219 1462L1176 1257L795 1257L528 0Z"  horiz-adv-x="1053" vert-adv-y="2048"  />

      
      <glyph glyph-name="uni55" unicode="&#x55;" d="M1419 1462L1217 506Q1161 239 1009 109.50Q857-20 606-20Q389-20 270.50 86Q152 192 152 391Q152 474 172 561L365 1462L602 1462L410 557Q389 469 389 399Q389 297 448.50 240.50Q508 184 629 184Q774 184 859 264.50Q944 345 983 526L1182 1462L1419 1462Z"  horiz-adv-x="1399" vert-adv-y="2048"  />

      
      <glyph glyph-name="uni56" unicode="&#x56;" d="M506 248Q576 426 643 557L1098 1462L1352 1462L588 0L330 0L186 1462L418 1462L492 557Q501 454 503 324L502 248L506 248Z"  horiz-adv-x="1165" vert-adv-y="2048"  />

      
      <glyph glyph-name="uni57" unicode="&#x57;" d="M1317 0L1059 0L1022 842L1016 1027L1020 1133L1014 1133Q967 989 897 842L512 0L256 0L203 1462L432 1462L451 612Q451 476 438 266L444 266Q527 487 586 621L973 1462L1198 1462L1229 623L1232 454L1229 266L1237 266Q1265 354 1307 463.50Q1349 573 1368 616L1726 1462L1972 1462L1317 0Z"  horiz-adv-x="1788" vert-adv-y="2048"  />

      
      <glyph glyph-name="uni58" unicode="&#x58;" d="M1040 0L784 0L592 592L154 0L-111 0L475 770L225 1462L471 1462L649 922L1051 1462L1317 1462L766 752L1040 0Z"  horiz-adv-x="1151" vert-adv-y="2048"  />

      
      <glyph glyph-name="uni59" unicode="&#x59;" d="M582 793L1014 1462L1280 1462L657 549L543 0L305 0L424 553L186 1462L428 1462L582 793Z"  horiz-adv-x="1092" vert-adv-y="2048"  />

      
      <glyph glyph-name="uni5a" unicode="&#x5a;" d="M901 0L-39 0L-6 168L844 1255L246 1255L289 1462L1186 1462L1151 1290L299 205L944 205L901 0Z"  horiz-adv-x="1092" vert-adv-y="2048"  />

      
      <glyph glyph-name="uni5b" unicode="&#x5b;" d="M403-324L-27-324L354 1462L784 1462L745 1286L524 1286L221-147L442-147L403-324Z"  horiz-adv-x="631" vert-adv-y="2048"  />

      
      <glyph glyph-name="uni5c" unicode="&#x5c;" d="M428 1462L647 0L438 0L221 1462L428 1462Z"  horiz-adv-x="788" vert-adv-y="2048"  />

      
      <glyph glyph-name="uni5d" unicode="&#x5d;" d="M-106-147L113-147L418 1286L197 1286L236 1462L666 1462L285-324L-143-324L-106-147Z"  horiz-adv-x="631" vert-adv-y="2048"  />

      
      <glyph glyph-name="uni5e" unicode="&#x5e;" d="M37 537L645 1470L772 1470L1044 537L860 537L672 1227L238 537L37 537Z"  horiz-adv-x="1069" vert-adv-y="2048"  />

      
      <glyph glyph-name="uni5f" unicode="&#x5f;" d="M629-324L-188-324L-158-184L659-184L629-324Z"  horiz-adv-x="813" vert-adv-y="2048"  />

      
      <glyph glyph-name="uni60" unicode="&#x60;" d="M918 1241L774 1241Q709 1304 642 1392.50Q575 1481 541 1548L541 1569L786 1569Q833 1415 918 1266L918 1241Z"  horiz-adv-x="1135" vert-adv-y="2048"  />

      
      <glyph glyph-name="uni61" unicode="&#x61;" d="M399-20Q258-20 176 81.50Q94 183 94 367Q94 569 163.50 745Q233 921 355 1023.50Q477 1126 623 1126Q720 1126 790 1080.50Q860 1035 899 948L909 948L971 1106L1151 1106L915 0L733 0L754 176L748 176Q590-20 399-20M485 170Q567 170 646 247.50Q725 325 776 455Q827 585 827 739Q827 827 780 880.50Q733 934 657 934Q572 934 497 857Q422 780 377 647.50Q332 515 332 373Q332 271 372.50 220.50Q413 170 485 170Z"  horiz-adv-x="1186" vert-adv-y="2048"  />

      
      <glyph glyph-name="uni62" unicode="&#x62;" d="M578-20Q480-20 409.50 25Q339 70 299 156L289 156L225 0L47 0L377 1556L612 1556L541 1223Q528 1160 503 1066.50Q478 973 463 926L471 926Q561 1039 636 1082.50Q711 1126 797 1126Q942 1126 1023 1022.50Q1104 919 1104 737Q1104 535 1034.50 357.50Q965 180 844 80Q723-20 578-20M711 934Q630 934 549 854Q468 774 418.50 643.50Q369 513 369 373Q369 277 415.50 223.50Q462 170 547 170Q632 170 706 248.50Q780 327 823 458.50Q866 590 866 733Q866 934 711 934Z"  horiz-adv-x="1200" vert-adv-y="2048"  />

      
      <glyph glyph-name="uni63" unicode="&#x63;" d="M506-20Q310-20 202 86Q94 192 94 389Q94 596 167.50 765.50Q241 935 374 1030.50Q507 1126 676 1126Q840 1126 973 1065L903 881Q781 934 682 934Q532 934 432 780.50Q332 627 332 401Q332 290 388 230Q444 170 543 170Q617 170 681.50 192Q746 214 811 246L811 51Q671-20 506-20Z"  horiz-adv-x="954" vert-adv-y="2048"  />

      
      <glyph glyph-name="uni64" unicode="&#x64;" d="M623 1126Q802 1126 891 948L899 948Q912 1094 936 1198L1012 1556L1245 1556L915 0L731 0L750 176L743 176Q655 70 573 25Q491-20 399-20Q256-20 175 81.50Q94 183 94 369Q94 574 165.50 752Q237 930 357 1028Q477 1126 623 1126M489 170Q571 170 651.50 252Q732 334 780.50 466Q829 598 829 733Q829 824 785.50 879Q742 934 653 934Q568 934 494 857Q420 780 376 646Q332 512 332 373Q332 170 489 170Z"  horiz-adv-x="1198" vert-adv-y="2048"  />

      
      <glyph glyph-name="uni65" unicode="&#x65;" d="M664 946Q568 946 483.50 860Q399 774 362 633L391 633Q579 633 685 686.50Q791 740 791 838Q791 889 759 917.50Q727 946 664 946M512-20Q315-20 204.50 91Q94 202 94 401Q94 599 171.50 769.50Q249 940 381.50 1033Q514 1126 678 1126Q839 1126 928.50 1053.50Q1018 981 1018 848Q1018 666 851.50 563.50Q685 461 377 461L334 461L332 430L332 401Q332 290 388.50 227Q445 164 557 164Q629 164 700 183Q771 202 868 248L868 61Q772 17 691.50-1.50Q611-20 512-20Z"  horiz-adv-x="1075" vert-adv-y="2048"  />

      
      <glyph glyph-name="uni66" unicode="&#x66;" d="M-76-492Q-166-492-225-469L-225-279Q-161-299-111-299Q23-299 66-94L283 928L104 928L125 1034L319 1110L340 1202Q384 1400 474.50 1483.50Q565 1567 731 1567Q846 1567 942 1524L881 1348Q807 1376 745 1376Q676 1376 634.50 1333Q593 1290 571 1192L553 1106L782 1106L745 928L516 928L293-125Q253-314 162-403Q71-492-76-492Z"  horiz-adv-x="702" vert-adv-y="2048"  />

      
      <glyph glyph-name="uni67" unicode="&#x67;" d="M1143 1106L1112 969L920 936Q948 878 948 799Q948 606 829 492.50Q710 379 510 379Q458 379 418 387Q307 347 307 283Q307 245 338.50 231Q370 217 430 209L557 193Q733 171 809 105.50Q885 40 885-82Q885-278 734-385Q583-492 305-492Q102-492-9.50-417Q-121-342-121-211Q-121-108-51.50-33Q18 42 172 94Q96 139 96 221Q96 290 142.50 340.50Q189 391 289 438Q154 519 154 690Q154 886 276.50 1006Q399 1126 600 1126Q680 1126 760 1106L1143 1106M324 18Q212 0 152-53Q92-106 92-184Q92-249 147.50-287.50Q203-326 317-326Q480-326 572-272Q664-218 664-117Q664-66 619-37Q574-8 461 4L324 18M594 969Q529 969 480 930.50Q431 892 404 825.50Q377 759 377 680Q377 609 412.50 570.50Q448 532 514 532Q579 532 626.50 571Q674 610 700.50 678Q727 746 727 827Q727 969 594 969Z"  horiz-adv-x="1067" vert-adv-y="2048"  />

      
      <glyph glyph-name="uni68" unicode="&#x68;" d="M702 0L844 672Q862 762 862 799Q862 934 733 934Q621 934 523.50 809Q426 684 381 467L283 0L47 0L377 1556L612 1556L555 1294Q528 1168 482 1001L463 926L471 926Q555 1032 639.50 1079Q724 1126 817 1126Q953 1126 1025.50 1048.50Q1098 971 1098 827Q1098 751 1075 653L936 0L702 0Z"  horiz-adv-x="1208" vert-adv-y="2048"  />

      
      <glyph glyph-name="uni69" unicode="&#x69;" d="M330 1378Q330 1446 369 1488Q408 1530 479 1530Q532 1530 565 1503.50Q598 1477 598 1423Q598 1352 558 1311Q518 1270 453 1270Q400 1270 365 1296Q330 1322 330 1378M283 0L47 0L283 1106L518 1106L283 0Z"  horiz-adv-x="563" vert-adv-y="2048"  />

      
      <glyph glyph-name="uni6a" unicode="&#x6a;" d="M-113-492Q-203-492-262-469L-262-279Q-198-299-145-299Q-14-299 25-113L285 1106L518 1106L252-141Q214-322 124.50-407Q35-492-113-492M332 1378Q332 1446 370 1488Q408 1530 479 1530Q533 1530 565.50 1503.50Q598 1477 598 1423Q598 1352 558 1311Q518 1270 453 1270Q400 1270 366 1295.50Q332 1321 332 1378Z"  horiz-adv-x="563" vert-adv-y="2048"  />

      
      <glyph glyph-name="uni6b" unicode="&#x6b;" d="M887 1106L1159 1106L676 621L967 0L705 0L496 471L360 375L283 0L47 0L377 1556L612 1556Q477 929 452.50 826.50Q428 724 393 600L397 600L887 1106Z"  horiz-adv-x="1081" vert-adv-y="2048"  />

      
      <glyph glyph-name="uni6c" unicode="&#x6c;" d="M281 0L47 0L377 1556L612 1556L281 0Z"  horiz-adv-x="563" vert-adv-y="2048"  />

      
      <glyph glyph-name="uni6d" unicode="&#x6d;" d="M807 1126Q1027 1126 1061 891L1069 891Q1144 1007 1239.50 1066.50Q1335 1126 1438 1126Q1571 1126 1640.50 1049.50Q1710 973 1710 834Q1710 770 1688 653L1548 0L1313 0L1456 672Q1475 767 1475 805Q1475 934 1354 934Q1246 934 1152.50 810Q1059 686 1016 481L915 0L680 0L823 672Q840 754 840 799Q840 934 723 934Q613 934 519.50 807Q426 680 381 469L283 0L47 0L283 1106L467 1106L446 901L455 901Q603 1126 807 1126Z"  horiz-adv-x="1819" vert-adv-y="2048"  />

      
      <glyph glyph-name="uni6e" unicode="&#x6e;" d="M702 0L844 672Q862 762 862 803Q862 934 733 934Q661 934 591 877Q521 820 465 712.50Q409 605 381 469L283 0L47 0L283 1106L467 1106L446 901L455 901Q538 1019 626 1072.50Q714 1126 817 1126Q951 1126 1024.50 1050Q1098 974 1098 834Q1098 765 1075 653L938 0L702 0Z"  horiz-adv-x="1208" vert-adv-y="2048"  />

      
      <glyph glyph-name="uni6f" unicode="&#x6f;" d="M842 702Q842 809 793 869.50Q744 930 653 930Q560 930 486.50 858.50Q413 787 372.50 664.50Q332 542 332 403Q332 292 381.50 233Q431 174 528 174Q618 174 690 242Q762 310 802 432.50Q842 555 842 702M1079 692Q1079 490 1006 324.50Q933 159 805.50 70.50Q678-18 512-18Q320-18 207 96.50Q94 211 94 408Q94 607 165.50 773Q237 939 366 1031.50Q495 1124 664 1124Q859 1124 969 1008Q1079 892 1079 692Z"  horiz-adv-x="1174" vert-adv-y="2048"  />

      
      <glyph glyph-name="uni70" unicode="&#x70;" d="M578-20Q397-20 309 156L299 156Q292 59 274-29L178-492L-55-492L283 1106L467 1106L446 918L455 918Q612 1126 799 1126Q942 1126 1023 1023Q1104 920 1104 737Q1104 533 1034 355.50Q964 178 843.50 79Q723-20 578-20M711 934Q630 934 550 854.50Q470 775 419.50 644Q369 513 369 373Q369 277 415.50 223.50Q462 170 547 170Q632 170 706 248.50Q780 327 823 458.50Q866 590 866 733Q866 934 711 934Z"  horiz-adv-x="1200" vert-adv-y="2048"  />

      
      <glyph glyph-name="uni71" unicode="&#x71;" d="M625 1126Q808 1126 899 948L909 948L973 1106L1151 1106L811-492L578-492L653-143Q665-87 696.50 37Q728 161 735 178L727 178Q643 70 563 25Q483-20 393-20Q254-20 174 82.50Q94 185 94 367Q94 575 167 754Q240 933 359.50 1029.50Q479 1126 625 1126M492 170Q572 170 651 251Q730 332 778.50 464Q827 596 827 733Q827 827 781.50 880.50Q736 934 655 934Q569 934 495 856.50Q421 779 376.50 647Q332 515 332 373Q332 170 492 170Z"  horiz-adv-x="1198" vert-adv-y="2048"  />

      
      <glyph glyph-name="uni72" unicode="&#x72;" d="M797 1126Q859 1126 905 1114L854 895Q800 909 752 909Q626 909 527 796Q428 683 389 500L283 0L47 0L283 1106L467 1106L446 901L455 901Q538 1021 621 1073.50Q704 1126 797 1126Z"  horiz-adv-x="836" vert-adv-y="2048"  />

      
      <glyph glyph-name="uni73" unicode="&#x73;" d="M782 340Q782 167 664 73.50Q546-20 336-20Q146-20 14 47L14 250Q167 160 326 160Q423 160 483 200Q543 240 543 309Q543 360 508.50 396.50Q474 433 367 494Q242 561 190.50 630.50Q139 700 139 795Q139 950 246 1038Q353 1126 535 1126Q731 1126 881 1042L805 866Q665 942 539 942Q466 942 420.50 909Q375 876 375 817Q375 772 408 737Q441 702 543 647Q648 588 692 546Q736 504 759 454.50Q782 405 782 340Z"  horiz-adv-x="922" vert-adv-y="2048"  />

      
      <glyph glyph-name="uni74" unicode="&#x74;" d="M455 170Q523 170 606 201L606 23Q571 6 511-7Q451-20 391-20Q117-20 117 227Q117 284 133 358L254 928L92 928L113 1038L303 1120L432 1352L578 1352L526 1106L805 1106L766 928L489 928L367 356Q354 301 354 264Q354 221 379 195.50Q404 170 455 170Z"  horiz-adv-x="752" vert-adv-y="2048"  />

      
      <glyph glyph-name="uni75" unicode="&#x75;" d="M506 1106L377 496Q346 355 346 303Q346 170 473 170Q545 170 616 227Q687 284 742 389.50Q797 495 827 637L926 1106L1159 1106L926 0L741 0L762 205L754 205Q672 89 583 34.50Q494-20 391-20Q257-20 184 56Q111 132 111 274Q111 337 123 398.50Q135 460 147 522L270 1106L506 1106Z"  horiz-adv-x="1208" vert-adv-y="2048"  />

      
      <glyph glyph-name="uni76" unicode="&#x76;" d="M231 0L100 1106L332 1106L387 508Q401 349 401 211L408 211Q436 285 478 376Q520 467 543 508L854 1106L1104 1106L506 0L231 0Z"  horiz-adv-x="997" vert-adv-y="2048"  />

      
      <glyph glyph-name="uni77" unicode="&#x77;" d="M844 0L825 627L824 697L827 897Q802 835 775.50 772Q749 709 430 0L168 0L121 1106L342 1106L355 460Q353 373 344 215L350 215Q416 391 459 487L737 1106L991 1106L1010 502L1011 449L1008 215L1014 215Q1031 265 1071 373.50Q1111 482 1134.50 537Q1158 592 1386 1106L1630 1106L1112 0L844 0Z"  horiz-adv-x="1540" vert-adv-y="2048"  />

      
      <glyph glyph-name="uni78" unicode="&#x78;" d="M489 387L184 0L-86 0L389 569L158 1106L403 1106L547 733L834 1106L1108 1106L647 557L895 0L649 0L489 387Z"  horiz-adv-x="1032" vert-adv-y="2048"  />

      
      <glyph glyph-name="uni79" unicode="&#x79;" d="M100 1106L332 1106L395 575Q404 513 411 400.50Q418 288 418 219L424 219Q510 434 559 532L852 1106L1106 1106L418-174Q328-339 222-415.50Q116-492-27-492Q-103-492-170-473L-170-285Q-95-301-45-301Q29-301 89-257.50Q149-214 213-102L264-10L100 1106Z"  horiz-adv-x="1004" vert-adv-y="2048"  />

      
      <glyph glyph-name="uni7a" unicode="&#x7a;" d="M719 0L-39 0L-10 147L625 928L186 928L225 1106L930 1106L893 936L270 178L756 178L719 0Z"  horiz-adv-x="920" vert-adv-y="2048"  />

      
      <glyph glyph-name="uni7b" unicode="&#x7b;" d="M457-324Q141-324 141-88Q141-27 158 45L203 246Q217 311 217 344Q217 485 8 485L47 672Q167 672 238.50 714.50Q310 757 332 858L391 1133Q419 1267 464 1334.50Q509 1402 584 1432Q659 1462 782 1462L842 1462L801 1278Q705 1278 661.50 1244Q618 1210 600 1128L530 819Q506 711 443 648.50Q380 586 264 569L264 563Q424 518 424 348Q424 310 408 227L365 33Q354-15 354-41Q354-92 386.50-115.50Q419-139 496-139L496-324L457-324Z"  horiz-adv-x="721" vert-adv-y="2048"  />

      
      <glyph glyph-name="uni7c" unicode="&#x7c;" d="M498 1552L676 1552L676-481L498-481L498 1552Z"  horiz-adv-x="1128" vert-adv-y="2048"  />

      
      <glyph glyph-name="uni7d" unicode="&#x7d;" d="M270 1462Q588 1462 588 1227Q588 1166 571 1094L526 891Q512 826 512 793Q512 651 721 651L682 465Q561 465 490 423Q419 381 397 281L334-25Q300-190 210.50-257Q121-324-59-324L-88-324L-88-141Q18-139 64.50-104.50Q111-70 129 10L199 319Q223 428 286 489Q349 550 465 567L465 573Q307 621 307 788Q307 843 324 909L367 1106Q377 1150 377 1180Q377 1238 334 1258Q291 1278 213 1278L248 1462L270 1462Z"  horiz-adv-x="721" vert-adv-y="2048"  />

      
      <glyph glyph-name="uni7e" unicode="&#x7e;" d="M344 692Q293 692 232 661Q171 630 111 571L111 762Q211 870 360 870Q424 870 478.50 858Q533 846 625 807Q695 777 740 764.50Q785 752 834 752Q884 752 946.50 783Q1009 814 1067 872L1067 682Q964 571 817 571Q754 571 693 587.50Q632 604 555 637Q479 669 435.50 680.50Q392 692 344 692Z"  horiz-adv-x="1128" vert-adv-y="2048"  />

      
      <glyph glyph-name="unia1" unicode="&#xa1;" d="M221 645L395 645L229-373L-45-373L221 645M522 993Q522 913 475 863Q428 813 348 813Q289 813 255 844.50Q221 876 221 936Q221 1018 270 1068Q319 1118 397 1118Q462 1118 492 1082.50Q522 1047 522 993Z"  horiz-adv-x="557" vert-adv-y="2048"  />

      
      <glyph glyph-name="unia2" unicode="&#xa2;" d="M578-20L422-20L467 193Q335 227 265 327.50Q195 428 195 586Q195 776 258.50 937Q322 1098 436.50 1197.50Q551 1297 698 1319L733 1483L889 1483L852 1319Q976 1307 1073 1262L1004 1077Q879 1130 782 1130Q683 1130 602 1058.50Q521 987 476.50 864Q432 741 432 598Q432 487 488 427Q544 367 643 367Q717 367 781.50 388.50Q846 410 911 442L911 248Q778 179 618 174L578-20Z"  horiz-adv-x="1128" vert-adv-y="2048"  />

      
      <glyph glyph-name="unia3" unicode="&#xa3;" d="M856 1483Q1044 1483 1208 1397L1120 1214Q977 1288 862 1288Q677 1288 635 1083L578 805L911 805L877 633L541 633L508 481Q487 383 439.50 316Q392 249 309 207L999 207L954 0L-18 0L20 193Q220 238 270 469L305 633L109 633L145 805L342 805L403 1104Q441 1289 556 1386Q671 1483 856 1483Z"  horiz-adv-x="1128" vert-adv-y="2048"  />

      
      <glyph glyph-name="unia4" unicode="&#xa4;" d="M209 723Q209 833 270 928L141 1057L260 1176L387 1049Q489 1110 594 1110Q702 1110 801 1047L928 1176L1049 1059L920 930Q981 831 981 723Q981 609 920 514L1047 389L928 270L801 397Q706 338 594 338Q474 338 387 397L260 272L143 391L270 516Q209 611 209 723M377 723Q377 632 439.50 569Q502 506 594 506Q685 506 750 568Q815 630 815 723Q815 816 750 879Q685 942 594 942Q502 942 439.50 878Q377 814 377 723Z"  horiz-adv-x="1128" vert-adv-y="2048"  />

      
      <glyph glyph-name="unia5" unicode="&#xa5;" d="M594 793L1026 1462L1274 1462L756 702L973 702L938 547L664 547L633 399L907 399L874 244L602 244L549 0L328 0L379 244L106 244L139 399L412 399L442 547L170 547L205 702L416 702L217 1462L449 1462L594 793Z"  horiz-adv-x="1128" vert-adv-y="2048"  />

      
      <glyph glyph-name="unia6" unicode="&#xa6;" d="M498 1552L676 1552L676 758L498 758L498 1552M498 315L676 315L676-481L498-481L498 315Z"  horiz-adv-x="1128" vert-adv-y="2048"  />

      
      <glyph glyph-name="unia7" unicode="&#xa7;" d="M162 764Q162 952 381 1071Q334 1103 303 1153Q272 1203 272 1268Q272 1406 383.50 1488.50Q495 1571 680 1571Q858 1571 1012 1493L944 1335Q882 1364 814.50 1385.50Q747 1407 670 1407Q584 1407 535.50 1372.50Q487 1338 487 1278Q487 1235 523.50 1201.50Q560 1168 672 1118Q799 1062 858.50 990.50Q918 919 918 823Q918 731 865.50 652Q813 573 705 512Q807 436 807 319Q807 162 684 74Q561-14 354-14Q166-14 39 53L39 240Q191 147 358 147Q474 147 532 187.50Q590 228 590 299Q590 342 551 378.50Q512 415 410 463Q280 523 221 594.50Q162 666 162 764M510 987Q441 961 399.50 908Q358 855 358 793Q358 732 404.50 688.50Q451 645 578 588Q640 624 677.50 678.50Q715 733 715 793Q715 853 665.50 897.50Q616 942 510 987Z"  horiz-adv-x="995" vert-adv-y="2048"  />

      
      <glyph glyph-name="unia8" unicode="&#xa8;" d="M426 1380Q426 1440 461 1478Q496 1516 559 1516Q607 1516 635.50 1492.50Q664 1469 664 1421Q664 1356 628.50 1319Q593 1282 535 1282Q488 1282 457 1305.50Q426 1329 426 1380M809 1380Q809 1440 844 1478Q879 1516 942 1516Q990 1516 1018.50 1492.50Q1047 1469 1047 1421Q1047 1356 1011.50 1319Q976 1282 918 1282Q871 1282 840 1305.50Q809 1329 809 1380Z"  horiz-adv-x="1135" vert-adv-y="2048"  />

      
      <glyph glyph-name="unia9" unicode="&#xa9;" d="M930 1034Q817 1034 754.50 958Q692 882 692 727Q692 426 930 426Q977 426 1042 442Q1107 458 1151 477L1151 319Q1034 268 911 268Q714 268 608 391.50Q502 515 502 727Q502 943 615.50 1067.50Q729 1192 928 1192Q1066 1192 1194 1126L1126 979Q1020 1034 930 1034M131 731Q131 931 231 1106Q331 1281 506 1382Q681 1483 883 1483Q1082 1483 1256.50 1384Q1431 1285 1532.50 1108.50Q1634 932 1634 731Q1634 532 1535.50 358Q1437 184 1263 82Q1089-20 883-20Q676-20 501 83.50Q326 187 228.50 360Q131 533 131 731M254 731Q254 563 337 418.50Q420 274 566 188Q712 102 883 102Q1056 102 1202.50 189Q1349 276 1430 420.50Q1511 565 1511 731Q1511 896 1429 1041.50Q1347 1187 1201.50 1273.50Q1056 1360 883 1360Q715 1360 568.50 1275.50Q422 1191 338 1044.50Q254 898 254 731Z"  horiz-adv-x="1704" vert-adv-y="2048"  />

      
      <glyph glyph-name="uniaa" unicode="&#xaa;" d="M498 1479Q611 1479 664 1376L670 1376L709 1466L827 1466L680 782L557 782L567 887L563 887Q513 825 465 797.50Q417 770 356 770Q265 770 212.50 836Q160 902 160 1016Q160 1144 207 1254.50Q254 1365 329.50 1422Q405 1479 498 1479M412 897Q462 897 509.50 945Q557 993 586.50 1072.50Q616 1152 616 1231Q616 1350 514 1350Q432 1350 375.50 1252.50Q319 1155 319 1022Q319 897 412 897Z"  horiz-adv-x="729" vert-adv-y="2048"  />

      
      <glyph glyph-name="uniab" unicode="&#xab;" d="M80 575L475 995L610 877L322 545L475 176L297 100L80 553L80 575M520 555L905 989L1042 877L762 526L909 176L729 100L520 530L520 555Z"  horiz-adv-x="1055" vert-adv-y="2048"  />

      
      <glyph glyph-name="uniac" unicode="&#xac;" d="M1053 811L1053 256L874 256L874 631L117 631L117 811L1053 811Z"  horiz-adv-x="1128" vert-adv-y="2048"  />

      
      <glyph glyph-name="uniad" unicode="&#xad;" d="M47 446L92 649L594 649L549 446L47 446Z"  horiz-adv-x="649" vert-adv-y="2048"  />

      
      <glyph glyph-name="uniae" unicode="&#xae;" d="M131 731Q131 931 231 1106Q331 1281 506 1382Q681 1483 883 1483Q1082 1483 1256.50 1384Q1431 1285 1532.50 1108.50Q1634 932 1634 731Q1634 532 1535.50 358Q1437 184 1263 82Q1089-20 883-20Q676-20 501 83.50Q326 187 228.50 360Q131 533 131 731M254 731Q254 563 337 418.50Q420 274 566 188Q712 102 883 102Q1056 102 1202.50 189Q1349 276 1430 420.50Q1511 565 1511 731Q1511 896 1429 1041.50Q1347 1187 1201.50 1273.50Q1056 1360 883 1360Q715 1360 568.50 1275.50Q422 1191 338 1044.50Q254 898 254 731M1214 907Q1214 824 1168.50 762Q1123 700 1038 664L1249 291L1049 291L877 616L786 616L786 291L608 291L608 1169L877 1169Q1214 1169 1214 907M786 760L858 760Q942 760 987 796Q1032 832 1032 895Q1032 968 986.50 996Q941 1024 858 1024L786 1024L786 760Z"  horiz-adv-x="1704" vert-adv-y="2048"  />

      
      <glyph glyph-name="uniaf" unicode="&#xaf;" d="M1020 1556L111 1556L150 1722L1061 1722L1020 1556Z"  horiz-adv-x="903" vert-adv-y="2048"  />

      
      <glyph glyph-name="unib0" unicode="&#xb0;" d="M188 1153Q188 1289 285 1386Q382 1483 518 1483Q654 1483 750 1386Q846 1289 846 1153Q846 1016 750 921.50Q654 827 518 827Q430 827 353 871Q276 915 232 990Q188 1065 188 1153M340 1153Q340 1083 392 1031Q444 979 518 979Q590 979 642 1031Q694 1083 694 1153Q694 1227 642.50 1279Q591 1331 518 1331Q444 1331 392 1279.50Q340 1228 340 1153Z"  horiz-adv-x="877" vert-adv-y="2048"  />

      
      <glyph glyph-name="unib1" unicode="&#xb1;" d="M496 657L117 657L117 838L496 838L496 1219L676 1219L676 838L1053 838L1053 657L676 657L676 283L496 283L496 657M117 0L117 180L1053 180L1053 0L117 0Z"  horiz-adv-x="1128" vert-adv-y="2048"  />

      
      <glyph glyph-name="unib2" unicode="&#xb2;" d="M682 586L78 586L106 721L375 944Q486 1039 523.50 1080Q561 1121 578.50 1157Q596 1193 596 1231Q596 1277 568 1303Q540 1329 492 1329Q401 1329 301 1249L221 1372Q289 1426 363.50 1453.50Q438 1481 532 1481Q647 1481 715.50 1421Q784 1361 784 1266Q784 1197 760.50 1141.50Q737 1086 686.50 1031Q636 976 518 885L344 743L715 743L682 586Z"  horiz-adv-x="745" vert-adv-y="2048"  />

      
      <glyph glyph-name="unib3" unicode="&#xb3;" d="M784 1272Q784 1182 729.50 1123Q675 1064 571 1038L571 1034Q649 1016 686 967Q723 918 723 852Q723 723 623.50 646Q524 569 354 569Q216 569 104 625L104 784Q230 713 352 713Q442 713 491.50 750Q541 787 541 856Q541 969 395 969L287 969L315 1102L408 1102Q497 1102 550.50 1136Q604 1170 604 1235Q604 1335 487 1335Q395 1335 299 1270L231 1391Q357 1481 522 1481Q646 1481 715 1425.50Q784 1370 784 1272Z"  horiz-adv-x="745" vert-adv-y="2048"  />

      
      <glyph glyph-name="unib4" unicode="&#xb4;" d="M508 1266Q605 1374 733 1569L997 1569L997 1550Q943 1484 839 1388.50Q735 1293 664 1241L508 1241L508 1266Z"  horiz-adv-x="1135" vert-adv-y="2048"  />

      
      <glyph glyph-name="unib5" unicode="&#xb5;" d="M358 307Q358 242 391 206Q424 170 487 170Q600 170 696.50 295.50Q793 421 838 633L940 1106L1171 1106L936 0L752 0L774 190L764 190Q689 79 611 29.50Q533-20 446-20Q338-20 291 61L283 61Q274-12 244-174L178-492L-55-492L283 1106L518 1106L377 436Q358 352 358 307Z"  horiz-adv-x="1221" vert-adv-y="2048"  />

      
      <glyph glyph-name="unib6" unicode="&#xb6;" d="M1204-260L1065-260L1065 1378L877 1378L877-260L737-260L737 559Q675 541 592 541Q376 541 274 666Q172 791 172 1042Q172 1302 281 1429Q390 1556 623 1556L1204 1556L1204-260Z"  horiz-adv-x="1341" vert-adv-y="2048"  />

      
      <glyph glyph-name="unib7" unicode="&#xb7;" d="M150 692Q150 775 197 824.50Q244 874 328 874Q384 874 417.50 842.50Q451 811 451 750Q451 672 403.50 620.50Q356 569 279 569Q213 569 181.50 604.50Q150 640 150 692Z"  horiz-adv-x="551" vert-adv-y="2048"  />

      
      <glyph glyph-name="unib8" unicode="&#xb8;" d="M236-264Q236-370 154-431Q72-492-70-492Q-134-492-188-477L-188-342Q-141-356-92-356Q45-356 45-260Q45-220 10-198.50Q-25-177-94-168L4 0L150 0L100-96Q172-121 204-163Q236-205 236-264Z"  horiz-adv-x="420" vert-adv-y="2048"  />

      
      <glyph glyph-name="unib9" unicode="&#xb9;" d="M532 1462L694 1462L508 586L317 586L416 1047Q433 1126 473 1264Q452 1244 423.50 1221Q395 1198 270 1118L193 1247L532 1462Z"  horiz-adv-x="745" vert-adv-y="2048"  />

      
      <glyph glyph-name="uniba" unicode="&#xba;" d="M776 1206Q776 1080 734 981Q692 882 613 826Q534 770 424 770Q302 770 233 843Q164 916 164 1047Q164 1169 208 1268.50Q252 1368 333.50 1423.50Q415 1479 522 1479Q646 1479 711 1407.50Q776 1336 776 1206M510 1346Q429 1346 377.50 1258.50Q326 1171 326 1042Q326 901 438 901Q515 901 565.50 988.50Q616 1076 616 1208Q616 1346 510 1346Z"  horiz-adv-x="721" vert-adv-y="2048"  />

      
      <glyph glyph-name="unibb" unicode="&#xbb;" d="M975 510L578 92L444 211L731 541L578 911L758 987L975 532L975 510M535 530L150 98L10 211L291 559L145 911L324 987L535 555L535 530Z"  horiz-adv-x="1055" vert-adv-y="2048"  />

      
      <glyph glyph-name="unibc" unicode="&#xbc;" d="M1429 1462L346 0L149 0L1234 1462L1429 1462M490 1462L652 1462L466 586L275 586L374 1047Q391 1126 431 1264Q410 1244 381.50 1221Q353 1198 228 1118L151 1247L490 1462M1448 177L1326 177L1287 1L1104 1L1143 177L775 177L801 314L1278 883L1475 883L1354 320L1477 320L1448 177M1172 320L1224 541L1258 670Q1226 619 1160 539L973 320L1172 320Z"  horiz-adv-x="1661" vert-adv-y="2048"  />

      
      <glyph glyph-name="unibd" unicode="&#xbd;" d="M1401 1462L318 0L121 0L1206 1462L1401 1462M461 1462L623 1462L437 586L246 586L345 1047Q362 1126 402 1264Q381 1244 352.50 1221Q324 1198 199 1118L122 1247L461 1462M1464 1L860 1L888 136L1157 359Q1268 454 1305.50 495Q1343 536 1360.50 572Q1378 608 1378 646Q1378 692 1350 718Q1322 744 1274 744Q1183 744 1083 664L1003 787Q1071 841 1145.50 868.50Q1220 896 1314 896Q1429 896 1497.50 836Q1566 776 1566 681Q1566 612 1542.50 556.50Q1519 501 1468.50 446Q1418 391 1300 300L1126 158L1497 158L1464 1Z"  horiz-adv-x="1661" vert-adv-y="2048"  />

      
      <glyph glyph-name="unibe" unicode="&#xbe;" d="M1571 1462L488 0L291 0L1376 1462L1571 1462M1554 177L1432 177L1393 1L1210 1L1249 177L881 177L907 314L1384 883L1581 883L1460 320L1583 320L1554 177M1278 320L1330 541L1364 670Q1332 619 1266 539L1079 320L1278 320M788 1272Q788 1182 733.50 1123Q679 1064 575 1038L575 1034Q653 1016 690 967Q727 918 727 852Q727 723 627.50 646Q528 569 358 569Q220 569 108 625L108 784Q234 713 356 713Q446 713 495.50 750Q545 787 545 856Q545 969 399 969L291 969L319 1102L412 1102Q501 1102 554.50 1136Q608 1170 608 1235Q608 1335 491 1335Q399 1335 303 1270L235 1391Q361 1481 526 1481Q650 1481 719 1425.50Q788 1370 788 1272Z"  horiz-adv-x="1683" vert-adv-y="2048"  />

      
      <glyph glyph-name="unibf" unicode="&#xbf;" d="M668 643Q643 497 588.50 412Q534 327 418 244Q311 165 272.50 126Q234 87 215.50 47Q197 7 197-41Q197-112 239-155.50Q281-199 362-199Q438-199 511.50-171.50Q585-144 664-106L739-283Q534-395 330-395Q156-395 60.50-309.50Q-35-224-35-68Q-35 52 29 151Q93 250 260 367Q353 431 401 489.50Q449 548 471 643L668 643M766 993Q766 908 718 858.50Q670 809 588 809Q532 809 498.50 841.50Q465 874 465 934Q465 1012 511.50 1063Q558 1114 637 1114Q703 1114 734.50 1080Q766 1046 766 993Z"  horiz-adv-x="907" vert-adv-y="2048"  />

      
      <glyph glyph-name="unic0" unicode="&#xc0;" d="M827 406L342 406L133 0L-121 0L662 1464L936 1464L1102 0L868 0L827 406M811 614Q771 1030 765.50 1117.50Q760 1205 760 1257Q705 1118 618 950L446 614L811 614M915 1579L771 1579Q706 1642 639 1730.50Q572 1819 538 1886L538 1907L783 1907Q830 1753 915 1604L915 1579Z"  horiz-adv-x="1210" vert-adv-y="2048"  />

      
      <glyph glyph-name="unic1" unicode="&#xc1;" d="M827 406L342 406L133 0L-121 0L662 1464L936 1464L1102 0L868 0L827 406M811 614Q771 1030 765.50 1117.50Q760 1205 760 1257Q705 1118 618 950L446 614L811 614M707 1604Q804 1712 932 1907L1196 1907L1196 1888Q1142 1822 1038 1726.50Q934 1631 863 1579L707 1579L707 1604Z"  horiz-adv-x="1210" vert-adv-y="2048"  />

      
      <glyph glyph-name="unic2" unicode="&#xc2;" d="M827 406L342 406L133 0L-121 0L662 1464L936 1464L1102 0L868 0L827 406M811 614Q771 1030 765.50 1117.50Q760 1205 760 1257Q705 1118 618 950L446 614L811 614M1157 1579L1005 1579Q929 1642 844 1757Q713 1647 608 1579L444 1579L444 1604Q582 1732 645 1799.50Q708 1867 735 1907L983 1907Q1021 1808 1157 1604L1157 1579Z"  horiz-adv-x="1210" vert-adv-y="2048"  />

      
      <glyph glyph-name="unic3" unicode="&#xc3;" d="M827 406L342 406L133 0L-121 0L662 1464L936 1464L1102 0L868 0L827 406M811 614Q771 1030 765.50 1117.50Q760 1205 760 1257Q705 1118 618 950L446 614L811 614M967 1579Q922 1579 884.50 1596Q847 1613 813 1633.50Q779 1654 747.50 1671Q716 1688 684 1688Q646 1688 621 1660.50Q596 1633 578 1577L441 1577Q498 1862 697 1862Q743 1862 782 1844.50Q821 1827 854.50 1806.50Q888 1786 918 1768.50Q948 1751 977 1751Q1017 1751 1042 1777.50Q1067 1804 1090 1864L1227 1864Q1161 1579 967 1579Z"  horiz-adv-x="1210" vert-adv-y="2048"  />

      
      <glyph glyph-name="unic4" unicode="&#xc4;" d="M827 406L342 406L133 0L-121 0L662 1464L936 1464L1102 0L868 0L827 406M811 614Q771 1030 765.50 1117.50Q760 1205 760 1257Q705 1118 618 950L446 614L811 614M518 1718Q518 1778 553 1816Q588 1854 651 1854Q699 1854 727.50 1830.50Q756 1807 756 1759Q756 1694 720.50 1657Q685 1620 627 1620Q580 1620 549 1643.50Q518 1667 518 1718M901 1718Q901 1778 936 1816Q971 1854 1034 1854Q1082 1854 1110.50 1830.50Q1139 1807 1139 1759Q1139 1694 1103.50 1657Q1068 1620 1010 1620Q963 1620 932 1643.50Q901 1667 901 1718Z"  horiz-adv-x="1210" vert-adv-y="2048"  />

      
      <glyph glyph-name="unic5" unicode="&#xc5;" d="M827 406L342 406L133 0L-121 0L662 1464L936 1464L1102 0L868 0L827 406M811 614Q771 1030 765.50 1117.50Q760 1205 760 1257Q705 1118 618 950L446 614L811 614M1039 1575Q1039 1471 973 1409.50Q907 1348 801 1348Q695 1348 631.50 1409Q568 1470 568 1573Q568 1676 633 1737.50Q698 1799 801 1799Q905 1799 972 1738.50Q1039 1678 1039 1575M908 1573Q908 1623 878 1651.50Q848 1680 801 1680Q756 1680 726.50 1651.50Q697 1623 697 1573Q697 1524 723.50 1496.50Q750 1469 801 1469Q848 1469 878 1496.50Q908 1524 908 1573Z"  horiz-adv-x="1210" vert-adv-y="2048"  />

      
      <glyph glyph-name="unic6" unicode="&#xc6;" d="M1520 0L743 0L829 406L397 406L141 0L-121 0L809 1462L1829 1462L1786 1257L1247 1257L1163 862L1667 862L1624 662L1122 662L1024 203L1563 203L1520 0M872 614L1010 1257L928 1257L528 614L872 614Z"  horiz-adv-x="1753" vert-adv-y="2048"  />

      
      <glyph glyph-name="unic7" unicode="&#xc7;" d="M924 1278Q770 1278 649 1189Q528 1100 455.50 929.50Q383 759 383 555Q383 375 465.50 279.50Q548 184 709 184Q850 184 1038 252L1038 47Q858-20 664-20Q416-20 275.50 128.50Q135 277 135 545Q135 805 240.50 1028Q346 1251 522 1367Q698 1483 924 1483Q1141 1483 1313 1391L1219 1196Q1156 1230 1085 1254Q1014 1278 924 1278M791-264Q791-370 709-431Q627-492 485-492Q421-492 367-477L367-342Q414-356 463-356Q600-356 600-260Q600-220 565-198.50Q530-177 461-168L559 0L705 0L655-96Q727-121 759-163Q791-205 791-264Z"  horiz-adv-x="1225" vert-adv-y="2048"  />

      
      <glyph glyph-name="unic8" unicode="&#xc8;" d="M846 0L70 0L379 1462L1155 1462L1112 1257L573 1257L489 862L991 862L950 659L446 659L350 203L889 203L846 0M903 1579L759 1579Q694 1642 627 1730.50Q560 1819 526 1886L526 1907L771 1907Q818 1753 903 1604L903 1579Z"  horiz-adv-x="1077" vert-adv-y="2048"  />

      
      <glyph glyph-name="unic9" unicode="&#xc9;" d="M846 0L70 0L379 1462L1155 1462L1112 1257L573 1257L489 862L991 862L950 659L446 659L350 203L889 203L846 0M633 1604Q730 1712 858 1907L1122 1907L1122 1888Q1068 1822 964 1726.50Q860 1631 789 1579L633 1579L633 1604Z"  horiz-adv-x="1077" vert-adv-y="2048"  />

      
      <glyph glyph-name="unica" unicode="&#xca;" d="M846 0L70 0L379 1462L1155 1462L1112 1257L573 1257L489 862L991 862L950 659L446 659L350 203L889 203L846 0M1130 1579L978 1579Q902 1642 817 1757Q686 1647 581 1579L417 1579L417 1604Q555 1732 618 1799.50Q681 1867 708 1907L956 1907Q994 1808 1130 1604L1130 1579Z"  horiz-adv-x="1077" vert-adv-y="2048"  />

      
      <glyph glyph-name="unicb" unicode="&#xcb;" d="M846 0L70 0L379 1462L1155 1462L1112 1257L573 1257L489 862L991 862L950 659L446 659L350 203L889 203L846 0M479 1718Q479 1778 514 1816Q549 1854 612 1854Q660 1854 688.50 1830.50Q717 1807 717 1759Q717 1694 681.50 1657Q646 1620 588 1620Q541 1620 510 1643.50Q479 1667 479 1718M862 1718Q862 1778 897 1816Q932 1854 995 1854Q1043 1854 1071.50 1830.50Q1100 1807 1100 1759Q1100 1694 1064.50 1657Q1029 1620 971 1620Q924 1620 893 1643.50Q862 1667 862 1718Z"  horiz-adv-x="1077" vert-adv-y="2048"  />

      
      <glyph glyph-name="unid0" unicode="&#xd0;" d="M1311 893Q1311 622 1211 420Q1111 218 920 109Q729 0 471 0L70 0L199 623L53 623L98 823L242 823L379 1462L748 1462Q1019 1462 1165 1317Q1311 1172 1311 893M483 201Q660 201 792 287Q924 373 994.50 529Q1065 685 1065 885Q1065 1069 977 1165.50Q889 1262 721 1262L575 1262L481 823L766 823L721 623L438 623L348 201L483 201Z"  horiz-adv-x="1374" vert-adv-y="2048"  />

      
      <glyph glyph-name="unid1" unicode="&#xd1;" d="M1192 0L932 0L522 1163L516 1163L506 1094Q482 945 470.50 881.50Q459 818 287 0L68 0L377 1462L645 1462L1044 313L1051 313Q1057 367 1082 505.50Q1107 644 1122 709L1282 1462L1501 1462L1192 0M1108 1579Q1063 1579 1025.50 1596Q988 1613 954 1633.50Q920 1654 888.50 1671Q857 1688 825 1688Q787 1688 762 1660.50Q737 1633 719 1577L582 1577Q639 1862 838 1862Q884 1862 923 1844.50Q962 1827 995.50 1806.50Q1029 1786 1059 1768.50Q1089 1751 1118 1751Q1158 1751 1183 1777.50Q1208 1804 1231 1864L1368 1864Q1302 1579 1108 1579Z"  horiz-adv-x="1491" vert-adv-y="2048"  />

      
      <glyph glyph-name="unid2" unicode="&#xd2;" d="M1421 922Q1421 643 1326 425Q1231 207 1064.50 93.50Q898-20 678-20Q419-20 277 129.50Q135 279 135 543Q135 810 233.50 1030.50Q332 1251 503 1368Q674 1485 891 1485Q1142 1485 1281.50 1336Q1421 1187 1421 922M872 1280Q734 1280 622 1184Q510 1088 446.50 917.50Q383 747 383 545Q383 372 464.50 278Q546 184 692 184Q830 184 940.50 279.50Q1051 375 1112.50 544.50Q1174 714 1174 920Q1174 1090 1095 1185Q1016 1280 872 1280M1029 1579L885 1579Q820 1642 753 1730.50Q686 1819 652 1886L652 1907L897 1907Q944 1753 1029 1604L1029 1579Z"  horiz-adv-x="1485" vert-adv-y="2048"  />

      
      <glyph glyph-name="unid3" unicode="&#xd3;" d="M1421 922Q1421 643 1326 425Q1231 207 1064.50 93.50Q898-20 678-20Q419-20 277 129.50Q135 279 135 543Q135 810 233.50 1030.50Q332 1251 503 1368Q674 1485 891 1485Q1142 1485 1281.50 1336Q1421 1187 1421 922M872 1280Q734 1280 622 1184Q510 1088 446.50 917.50Q383 747 383 545Q383 372 464.50 278Q546 184 692 184Q830 184 940.50 279.50Q1051 375 1112.50 544.50Q1174 714 1174 920Q1174 1090 1095 1185Q1016 1280 872 1280M787 1604Q884 1712 1012 1907L1276 1907L1276 1888Q1222 1822 1118 1726.50Q1014 1631 943 1579L787 1579L787 1604Z"  horiz-adv-x="1485" vert-adv-y="2048"  />

      
      <glyph glyph-name="unid4" unicode="&#xd4;" d="M1421 922Q1421 643 1326 425Q1231 207 1064.50 93.50Q898-20 678-20Q419-20 277 129.50Q135 279 135 543Q135 810 233.50 1030.50Q332 1251 503 1368Q674 1485 891 1485Q1142 1485 1281.50 1336Q1421 1187 1421 922M872 1280Q734 1280 622 1184Q510 1088 446.50 917.50Q383 747 383 545Q383 372 464.50 278Q546 184 692 184Q830 184 940.50 279.50Q1051 375 1112.50 544.50Q1174 714 1174 920Q1174 1090 1095 1185Q1016 1280 872 1280M1268 1579L1116 1579Q1040 1642 955 1757Q824 1647 719 1579L555 1579L555 1604Q693 1732 756 1799.50Q819 1867 846 1907L1094 1907Q1132 1808 1268 1604L1268 1579Z"  horiz-adv-x="1485" vert-adv-y="2048"  />

      
      <glyph glyph-name="unid5" unicode="&#xd5;" d="M1421 922Q1421 643 1326 425Q1231 207 1064.50 93.50Q898-20 678-20Q419-20 277 129.50Q135 279 135 543Q135 810 233.50 1030.50Q332 1251 503 1368Q674 1485 891 1485Q1142 1485 1281.50 1336Q1421 1187 1421 922M872 1280Q734 1280 622 1184Q510 1088 446.50 917.50Q383 747 383 545Q383 372 464.50 278Q546 184 692 184Q830 184 940.50 279.50Q1051 375 1112.50 544.50Q1174 714 1174 920Q1174 1090 1095 1185Q1016 1280 872 1280M1069 1579Q1024 1579 986.50 1596Q949 1613 915 1633.50Q881 1654 849.50 1671Q818 1688 786 1688Q748 1688 723 1660.50Q698 1633 680 1577L543 1577Q600 1862 799 1862Q845 1862 884 1844.50Q923 1827 956.50 1806.50Q990 1786 1020 1768.50Q1050 1751 1079 1751Q1119 1751 1144 1777.50Q1169 1804 1192 1864L1329 1864Q1263 1579 1069 1579Z"  horiz-adv-x="1485" vert-adv-y="2048"  />

      
      <glyph glyph-name="unid6" unicode="&#xd6;" d="M1421 922Q1421 643 1326 425Q1231 207 1064.50 93.50Q898-20 678-20Q419-20 277 129.50Q135 279 135 543Q135 810 233.50 1030.50Q332 1251 503 1368Q674 1485 891 1485Q1142 1485 1281.50 1336Q1421 1187 1421 922M872 1280Q734 1280 622 1184Q510 1088 446.50 917.50Q383 747 383 545Q383 372 464.50 278Q546 184 692 184Q830 184 940.50 279.50Q1051 375 1112.50 544.50Q1174 714 1174 920Q1174 1090 1095 1185Q1016 1280 872 1280M623 1718Q623 1778 658 1816Q693 1854 756 1854Q804 1854 832.50 1830.50Q861 1807 861 1759Q861 1694 825.50 1657Q790 1620 732 1620Q685 1620 654 1643.50Q623 1667 623 1718M1006 1718Q1006 1778 1041 1816Q1076 1854 1139 1854Q1187 1854 1215.50 1830.50Q1244 1807 1244 1759Q1244 1694 1208.50 1657Q1173 1620 1115 1620Q1068 1620 1037 1643.50Q1006 1667 1006 1718Z"  horiz-adv-x="1485" vert-adv-y="2048"  />

      
      <glyph glyph-name="unid7" unicode="&#xd7;" d="M457 723L147 1034L272 1159L584 850L897 1159L1024 1036L709 723L1020 410L897 287L584 596L272 289L150 412L457 723Z"  horiz-adv-x="1128" vert-adv-y="2048"  />

      
      <glyph glyph-name="unid8" unicode="&#xd8;" d="M1421 922Q1421 643 1326 425Q1231 207 1064.50 93.50Q898-20 678-20Q485-20 360 63L242-86L109 18L238 178Q135 316 135 543Q135 810 233.50 1030.50Q332 1251 503 1368Q674 1485 891 1485Q1080 1485 1208 1391L1327 1540L1460 1436L1327 1270Q1421 1140 1421 922M872 1282Q731 1282 619 1189Q507 1096 442 924Q377 752 377 545Q377 457 401 381L1069 1217Q989 1282 872 1282M1180 920Q1180 1008 1161 1063L500 238Q575 182 694 182Q833 182 944.50 277.50Q1056 373 1118 542Q1180 711 1180 920Z"  horiz-adv-x="1485" vert-adv-y="2048"  />

      
      <glyph glyph-name="unid9" unicode="&#xd9;" d="M1419 1462L1217 506Q1161 239 1009 109.50Q857-20 606-20Q389-20 270.50 86Q152 192 152 391Q152 474 172 561L365 1462L602 1462L410 557Q389 469 389 399Q389 297 448.50 240.50Q508 184 629 184Q774 184 859 264.50Q944 345 983 526L1182 1462L1419 1462M996 1579L852 1579Q787 1642 720 1730.50Q653 1819 619 1886L619 1907L864 1907Q911 1753 996 1604L996 1579Z"  horiz-adv-x="1399" vert-adv-y="2048"  />

      
      <glyph glyph-name="unida" unicode="&#xda;" d="M1419 1462L1217 506Q1161 239 1009 109.50Q857-20 606-20Q389-20 270.50 86Q152 192 152 391Q152 474 172 561L365 1462L602 1462L410 557Q389 469 389 399Q389 297 448.50 240.50Q508 184 629 184Q774 184 859 264.50Q944 345 983 526L1182 1462L1419 1462M791 1604Q888 1712 1016 1907L1280 1907L1280 1888Q1226 1822 1122 1726.50Q1018 1631 947 1579L791 1579L791 1604Z"  horiz-adv-x="1399" vert-adv-y="2048"  />

      
      <glyph glyph-name="unidb" unicode="&#xdb;" d="M1419 1462L1217 506Q1161 239 1009 109.50Q857-20 606-20Q389-20 270.50 86Q152 192 152 391Q152 474 172 561L365 1462L602 1462L410 557Q389 469 389 399Q389 297 448.50 240.50Q508 184 629 184Q774 184 859 264.50Q944 345 983 526L1182 1462L1419 1462M1249 1579L1097 1579Q1021 1642 936 1757Q805 1647 700 1579L536 1579L536 1604Q674 1732 737 1799.50Q800 1867 827 1907L1075 1907Q1113 1808 1249 1604L1249 1579Z"  horiz-adv-x="1399" vert-adv-y="2048"  />

      
      <glyph glyph-name="unidc" unicode="&#xdc;" d="M1419 1462L1217 506Q1161 239 1009 109.50Q857-20 606-20Q389-20 270.50 86Q152 192 152 391Q152 474 172 561L365 1462L602 1462L410 557Q389 469 389 399Q389 297 448.50 240.50Q508 184 629 184Q774 184 859 264.50Q944 345 983 526L1182 1462L1419 1462M602 1718Q602 1778 637 1816Q672 1854 735 1854Q783 1854 811.50 1830.50Q840 1807 840 1759Q840 1694 804.50 1657Q769 1620 711 1620Q664 1620 633 1643.50Q602 1667 602 1718M985 1718Q985 1778 1020 1816Q1055 1854 1118 1854Q1166 1854 1194.50 1830.50Q1223 1807 1223 1759Q1223 1694 1187.50 1657Q1152 1620 1094 1620Q1047 1620 1016 1643.50Q985 1667 985 1718Z"  horiz-adv-x="1399" vert-adv-y="2048"  />

      
      <glyph glyph-name="unidd" unicode="&#xdd;" d="M582 793L1014 1462L1280 1462L657 549L543 0L305 0L424 553L186 1462L428 1462L582 793M610 1604Q707 1712 835 1907L1099 1907L1099 1888Q1045 1822 941 1726.50Q837 1631 766 1579L610 1579L610 1604Z"  horiz-adv-x="1092" vert-adv-y="2048"  />

      
      <glyph glyph-name="unide" unicode="&#xde;" d="M1124 817Q1124 574 957.50 439.50Q791 305 481 305L373 305L307 0L70 0L379 1462L616 1462L565 1219L662 1219Q889 1219 1006.50 1118Q1124 1017 1124 817M414 506L510 506Q686 506 784.50 584.50Q883 663 883 811Q883 920 823.50 969Q764 1018 643 1018L522 1018L414 506Z"  horiz-adv-x="1174" vert-adv-y="2048"  />

      
      <glyph glyph-name="unidf" unicode="&#xdf;" d="M-117-492Q-186-492-258-469L-258-276Q-197-297-145-297Q-80-297-38.50-253.50Q3-210 25-106L287 1128Q335 1359 460 1461Q585 1563 809 1563Q997 1563 1101.50 1483Q1206 1403 1206 1268Q1206 1099 1027 969Q909 882 878.50 849.50Q848 817 848 782Q848 738 922 681Q1029 597 1065 554Q1101 511 1120 461.50Q1139 412 1139 352Q1139 180 1023 80Q907-20 709-20Q527-20 426 45L426 246Q552 160 678 160Q783 160 842 204Q901 248 901 328Q901 376 877.50 413Q854 450 766 520Q684 584 645 641.50Q606 699 606 768Q606 843 650.50 907Q695 971 786 1031Q884 1097 924.50 1143Q965 1189 965 1241Q965 1306 918 1342Q871 1378 786 1378Q576 1378 524 1139L260-121Q218-318 125.50-405Q33-492-117-492Z"  horiz-adv-x="1266" vert-adv-y="2048"  />

      
      <glyph glyph-name="unie0" unicode="&#xe0;" d="M399-20Q258-20 176 81.50Q94 183 94 367Q94 569 163.50 745Q233 921 355 1023.50Q477 1126 623 1126Q720 1126 790 1080.50Q860 1035 899 948L909 948L971 1106L1151 1106L915 0L733 0L754 176L748 176Q590-20 399-20M485 170Q567 170 646 247.50Q725 325 776 455Q827 585 827 739Q827 827 780 880.50Q733 934 657 934Q572 934 497 857Q422 780 377 647.50Q332 515 332 373Q332 271 372.50 220.50Q413 170 485 170M847 1241L703 1241Q638 1304 571 1392.50Q504 1481 470 1548L470 1569L715 1569Q762 1415 847 1266L847 1241Z"  horiz-adv-x="1186" vert-adv-y="2048"  />

      
      <glyph glyph-name="unie1" unicode="&#xe1;" d="M399-20Q258-20 176 81.50Q94 183 94 367Q94 569 163.50 745Q233 921 355 1023.50Q477 1126 623 1126Q720 1126 790 1080.50Q860 1035 899 948L909 948L971 1106L1151 1106L915 0L733 0L754 176L748 176Q590-20 399-20M485 170Q567 170 646 247.50Q725 325 776 455Q827 585 827 739Q827 827 780 880.50Q733 934 657 934Q572 934 497 857Q422 780 377 647.50Q332 515 332 373Q332 271 372.50 220.50Q413 170 485 170M598 1266Q695 1374 823 1569L1087 1569L1087 1550Q1033 1484 929 1388.50Q825 1293 754 1241L598 1241L598 1266Z"  horiz-adv-x="1186" vert-adv-y="2048"  />

      
      <glyph glyph-name="unie2" unicode="&#xe2;" d="M399-20Q258-20 176 81.50Q94 183 94 367Q94 569 163.50 745Q233 921 355 1023.50Q477 1126 623 1126Q720 1126 790 1080.50Q860 1035 899 948L909 948L971 1106L1151 1106L915 0L733 0L754 176L748 176Q590-20 399-20M485 170Q567 170 646 247.50Q725 325 776 455Q827 585 827 739Q827 827 780 880.50Q733 934 657 934Q572 934 497 857Q422 780 377 647.50Q332 515 332 373Q332 271 372.50 220.50Q413 170 485 170M1064 1241L912 1241Q836 1304 751 1419Q620 1309 515 1241L351 1241L351 1266Q489 1394 552 1461.50Q615 1529 642 1569L890 1569Q928 1470 1064 1266L1064 1241Z"  horiz-adv-x="1186" vert-adv-y="2048"  />

      
      <glyph glyph-name="unie3" unicode="&#xe3;" d="M399-20Q258-20 176 81.50Q94 183 94 367Q94 569 163.50 745Q233 921 355 1023.50Q477 1126 623 1126Q720 1126 790 1080.50Q860 1035 899 948L909 948L971 1106L1151 1106L915 0L733 0L754 176L748 176Q590-20 399-20M485 170Q567 170 646 247.50Q725 325 776 455Q827 585 827 739Q827 827 780 880.50Q733 934 657 934Q572 934 497 857Q422 780 377 647.50Q332 515 332 373Q332 271 372.50 220.50Q413 170 485 170M870 1241Q825 1241 787.50 1258Q750 1275 716 1295.50Q682 1316 650.50 1333Q619 1350 587 1350Q549 1350 524 1322.50Q499 1295 481 1239L344 1239Q401 1524 600 1524Q646 1524 685 1506.50Q724 1489 757.50 1468.50Q791 1448 821 1430.50Q851 1413 880 1413Q920 1413 945 1439.50Q970 1466 993 1526L1130 1526Q1064 1241 870 1241Z"  horiz-adv-x="1186" vert-adv-y="2048"  />

      
      <glyph glyph-name="unie4" unicode="&#xe4;" d="M399-20Q258-20 176 81.50Q94 183 94 367Q94 569 163.50 745Q233 921 355 1023.50Q477 1126 623 1126Q720 1126 790 1080.50Q860 1035 899 948L909 948L971 1106L1151 1106L915 0L733 0L754 176L748 176Q590-20 399-20M485 170Q567 170 646 247.50Q725 325 776 455Q827 585 827 739Q827 827 780 880.50Q733 934 657 934Q572 934 497 857Q422 780 377 647.50Q332 515 332 373Q332 271 372.50 220.50Q413 170 485 170M425 1380Q425 1440 460 1478Q495 1516 558 1516Q606 1516 634.50 1492.50Q663 1469 663 1421Q663 1356 627.50 1319Q592 1282 534 1282Q487 1282 456 1305.50Q425 1329 425 1380M808 1380Q808 1440 843 1478Q878 1516 941 1516Q989 1516 1017.50 1492.50Q1046 1469 1046 1421Q1046 1356 1010.50 1319Q975 1282 917 1282Q870 1282 839 1305.50Q808 1329 808 1380Z"  horiz-adv-x="1186" vert-adv-y="2048"  />

      
      <glyph glyph-name="unie5" unicode="&#xe5;" d="M399-20Q258-20 176 81.50Q94 183 94 367Q94 569 163.50 745Q233 921 355 1023.50Q477 1126 623 1126Q720 1126 790 1080.50Q860 1035 899 948L909 948L971 1106L1151 1106L915 0L733 0L754 176L748 176Q590-20 399-20M485 170Q567 170 646 247.50Q725 325 776 455Q827 585 827 739Q827 827 780 880.50Q733 934 657 934Q572 934 497 857Q422 780 377 647.50Q332 515 332 373Q332 271 372.50 220.50Q413 170 485 170M988 1466Q988 1362 922 1300.50Q856 1239 750 1239Q644 1239 580.50 1300Q517 1361 517 1464Q517 1567 582 1628.50Q647 1690 750 1690Q854 1690 921 1629.50Q988 1569 988 1466M857 1464Q857 1514 827 1542.50Q797 1571 750 1571Q705 1571 675.50 1542.50Q646 1514 646 1464Q646 1415 672.50 1387.50Q699 1360 750 1360Q797 1360 827 1387.50Q857 1415 857 1464Z"  horiz-adv-x="1186" vert-adv-y="2048"  />

      
      <glyph glyph-name="unie6" unicode="&#xe6;" d="M1186-20Q964-20 881 117L858 0L707 0L727 176L719 176Q634 70 553.50 25Q473-20 379-20Q245-20 169.50 83Q94 186 94 367Q94 568 163 745Q232 922 351.50 1024Q471 1126 612 1126Q700 1126 764 1082.50Q828 1039 872 948L881 948L944 1106L1092 1106L1067 989Q1118 1052 1198 1089Q1278 1126 1378 1126Q1518 1126 1598.50 1049.50Q1679 973 1679 848Q1679 666 1512.50 563.50Q1346 461 1038 461L993 461L989 401Q989 284 1049.50 224Q1110 164 1225 164Q1350 164 1530 248L1530 59Q1355-20 1186-20M465 170Q550 170 627.50 250.50Q705 331 753 466Q801 601 801 733Q801 824 762.50 879Q724 934 649 934Q564 934 489.50 854Q415 774 373.50 643Q332 512 332 373Q332 268 369 219Q406 170 465 170M1333 946Q1230 946 1144.50 860Q1059 774 1022 633L1053 633Q1240 633 1346 686.50Q1452 740 1452 836Q1452 894 1418 920Q1384 946 1333 946Z"  horiz-adv-x="1726" vert-adv-y="2048"  />

      
      <glyph glyph-name="unie7" unicode="&#xe7;" d="M506-20Q310-20 202 86Q94 192 94 389Q94 596 167.50 765.50Q241 935 374 1030.50Q507 1126 676 1126Q840 1126 973 1065L903 881Q781 934 682 934Q532 934 432 780.50Q332 627 332 401Q332 290 388 230Q444 170 543 170Q617 170 681.50 192Q746 214 811 246L811 51Q671-20 506-20M621-264Q621-370 539-431Q457-492 315-492Q251-492 197-477L197-342Q244-356 293-356Q430-356 430-260Q430-220 395-198.50Q360-177 291-168L389 0L535 0L485-96Q557-121 589-163Q621-205 621-264Z"  horiz-adv-x="954" vert-adv-y="2048"  />

      
      <glyph glyph-name="unie8" unicode="&#xe8;" d="M664 946Q568 946 483.50 860Q399 774 362 633L391 633Q579 633 685 686.50Q791 740 791 838Q791 889 759 917.50Q727 946 664 946M512-20Q315-20 204.50 91Q94 202 94 401Q94 599 171.50 769.50Q249 940 381.50 1033Q514 1126 678 1126Q839 1126 928.50 1053.50Q1018 981 1018 848Q1018 666 851.50 563.50Q685 461 377 461L334 461L332 430L332 401Q332 290 388.50 227Q445 164 557 164Q629 164 700 183Q771 202 868 248L868 61Q772 17 691.50-1.50Q611-20 512-20M813 1241L669 1241Q604 1304 537 1392.50Q470 1481 436 1548L436 1569L681 1569Q728 1415 813 1266L813 1241Z"  horiz-adv-x="1075" vert-adv-y="2048"  />

      
      <glyph glyph-name="unie9" unicode="&#xe9;" d="M664 946Q568 946 483.50 860Q399 774 362 633L391 633Q579 633 685 686.50Q791 740 791 838Q791 889 759 917.50Q727 946 664 946M512-20Q315-20 204.50 91Q94 202 94 401Q94 599 171.50 769.50Q249 940 381.50 1033Q514 1126 678 1126Q839 1126 928.50 1053.50Q1018 981 1018 848Q1018 666 851.50 563.50Q685 461 377 461L334 461L332 430L332 401Q332 290 388.50 227Q445 164 557 164Q629 164 700 183Q771 202 868 248L868 61Q772 17 691.50-1.50Q611-20 512-20M557 1266Q654 1374 782 1569L1046 1569L1046 1550Q992 1484 888 1388.50Q784 1293 713 1241L557 1241L557 1266Z"  horiz-adv-x="1075" vert-adv-y="2048"  />

      
      <glyph glyph-name="uniea" unicode="&#xea;" d="M664 946Q568 946 483.50 860Q399 774 362 633L391 633Q579 633 685 686.50Q791 740 791 838Q791 889 759 917.50Q727 946 664 946M512-20Q315-20 204.50 91Q94 202 94 401Q94 599 171.50 769.50Q249 940 381.50 1033Q514 1126 678 1126Q839 1126 928.50 1053.50Q1018 981 1018 848Q1018 666 851.50 563.50Q685 461 377 461L334 461L332 430L332 401Q332 290 388.50 227Q445 164 557 164Q629 164 700 183Q771 202 868 248L868 61Q772 17 691.50-1.50Q611-20 512-20M1033 1241L881 1241Q805 1304 720 1419Q589 1309 484 1241L320 1241L320 1266Q458 1394 521 1461.50Q584 1529 611 1569L859 1569Q897 1470 1033 1266L1033 1241Z"  horiz-adv-x="1075" vert-adv-y="2048"  />

      
      <glyph glyph-name="unieb" unicode="&#xeb;" d="M664 946Q568 946 483.50 860Q399 774 362 633L391 633Q579 633 685 686.50Q791 740 791 838Q791 889 759 917.50Q727 946 664 946M512-20Q315-20 204.50 91Q94 202 94 401Q94 599 171.50 769.50Q249 940 381.50 1033Q514 1126 678 1126Q839 1126 928.50 1053.50Q1018 981 1018 848Q1018 666 851.50 563.50Q685 461 377 461L334 461L332 430L332 401Q332 290 388.50 227Q445 164 557 164Q629 164 700 183Q771 202 868 248L868 61Q772 17 691.50-1.50Q611-20 512-20M388 1380Q388 1440 423 1478Q458 1516 521 1516Q569 1516 597.50 1492.50Q626 1469 626 1421Q626 1356 590.50 1319Q555 1282 497 1282Q450 1282 419 1305.50Q388 1329 388 1380M771 1380Q771 1440 806 1478Q841 1516 904 1516Q952 1516 980.50 1492.50Q1009 1469 1009 1421Q1009 1356 973.50 1319Q938 1282 880 1282Q833 1282 802 1305.50Q771 1329 771 1380Z"  horiz-adv-x="1075" vert-adv-y="2048"  />

      
      <glyph glyph-name="uniec" unicode="&#xec;" d="M283 0L47 0L283 1106L518 1106L283 0M536 1241L392 1241Q327 1304 260 1392.50Q193 1481 159 1548L159 1569L404 1569Q451 1415 536 1266L536 1241Z"  horiz-adv-x="563" vert-adv-y="2048"  />

      
      <glyph glyph-name="unied" unicode="&#xed;" d="M283 0L47 0L283 1106L518 1106L283 0M308 1266Q405 1374 533 1569L797 1569L797 1550Q743 1484 639 1388.50Q535 1293 464 1241L308 1241L308 1266Z"  horiz-adv-x="563" vert-adv-y="2048"  />

      
      <glyph glyph-name="uniee" unicode="&#xee;" d="M283 0L47 0L283 1106L518 1106L283 0M777 1241L625 1241Q549 1304 464 1419Q333 1309 228 1241L64 1241L64 1266Q202 1394 265 1461.50Q328 1529 355 1569L603 1569Q641 1470 777 1266L777 1241Z"  horiz-adv-x="563" vert-adv-y="2048"  />

      
      <glyph glyph-name="unief" unicode="&#xef;" d="M283 0L47 0L283 1106L518 1106L283 0M142 1380Q142 1440 177 1478Q212 1516 275 1516Q323 1516 351.50 1492.50Q380 1469 380 1421Q380 1356 344.50 1319Q309 1282 251 1282Q204 1282 173 1305.50Q142 1329 142 1380M525 1380Q525 1440 560 1478Q595 1516 658 1516Q706 1516 734.50 1492.50Q763 1469 763 1421Q763 1356 727.50 1319Q692 1282 634 1282Q587 1282 556 1305.50Q525 1329 525 1380Z"  horiz-adv-x="563" vert-adv-y="2048"  />

      
      <glyph glyph-name="unif0" unicode="&#xf0;" d="M647 1325Q603 1366 512 1421L618 1573Q747 1501 827 1427L1077 1565L1147 1438L930 1317Q1085 1112 1085 805Q1085 550 1012 360.50Q939 171 808 75.50Q677-20 496-20Q299-20 189.50 87Q80 194 80 389Q80 551 145.50 688Q211 825 330 903Q449 981 596 981Q692 981 764 942.50Q836 904 877 834L883 834Q873 1077 750 1217L500 1075L428 1204L647 1325M508 162Q600 162 669.50 221.50Q739 281 778 380.50Q817 480 817 586Q817 683 765 741Q713 799 621 799Q530 799 460.50 743Q391 687 354 589.50Q317 492 317 377Q317 273 366 217.50Q415 162 508 162Z"  horiz-adv-x="1174" vert-adv-y="2048"  />

      
      <glyph glyph-name="unif1" unicode="&#xf1;" d="M702 0L844 672Q862 762 862 803Q862 934 733 934Q661 934 591 877Q521 820 465 712.50Q409 605 381 469L283 0L47 0L283 1106L467 1106L446 901L455 901Q538 1019 626 1072.50Q714 1126 817 1126Q951 1126 1024.50 1050Q1098 974 1098 834Q1098 765 1075 653L938 0L702 0M889 1241Q844 1241 806.50 1258Q769 1275 735 1295.50Q701 1316 669.50 1333Q638 1350 606 1350Q568 1350 543 1322.50Q518 1295 500 1239L363 1239Q420 1524 619 1524Q665 1524 704 1506.50Q743 1489 776.50 1468.50Q810 1448 840 1430.50Q870 1413 899 1413Q939 1413 964 1439.50Q989 1466 1012 1526L1149 1526Q1083 1241 889 1241Z"  horiz-adv-x="1208" vert-adv-y="2048"  />

      
      <glyph glyph-name="unif2" unicode="&#xf2;" d="M842 702Q842 809 793 869.50Q744 930 653 930Q560 930 486.50 858.50Q413 787 372.50 664.50Q332 542 332 403Q332 292 381.50 233Q431 174 528 174Q618 174 690 242Q762 310 802 432.50Q842 555 842 702M1079 692Q1079 490 1006 324.50Q933 159 805.50 70.50Q678-18 512-18Q320-18 207 96.50Q94 211 94 408Q94 607 165.50 773Q237 939 366 1031.50Q495 1124 664 1124Q859 1124 969 1008Q1079 892 1079 692M821 1241L677 1241Q612 1304 545 1392.50Q478 1481 444 1548L444 1569L689 1569Q736 1415 821 1266L821 1241Z"  horiz-adv-x="1174" vert-adv-y="2048"  />

      
      <glyph glyph-name="unif3" unicode="&#xf3;" d="M842 702Q842 809 793 869.50Q744 930 653 930Q560 930 486.50 858.50Q413 787 372.50 664.50Q332 542 332 403Q332 292 381.50 233Q431 174 528 174Q618 174 690 242Q762 310 802 432.50Q842 555 842 702M1079 692Q1079 490 1006 324.50Q933 159 805.50 70.50Q678-18 512-18Q320-18 207 96.50Q94 211 94 408Q94 607 165.50 773Q237 939 366 1031.50Q495 1124 664 1124Q859 1124 969 1008Q1079 892 1079 692M580 1266Q677 1374 805 1569L1069 1569L1069 1550Q1015 1484 911 1388.50Q807 1293 736 1241L580 1241L580 1266Z"  horiz-adv-x="1174" vert-adv-y="2048"  />

      
      <glyph glyph-name="unif4" unicode="&#xf4;" d="M842 702Q842 809 793 869.50Q744 930 653 930Q560 930 486.50 858.50Q413 787 372.50 664.50Q332 542 332 403Q332 292 381.50 233Q431 174 528 174Q618 174 690 242Q762 310 802 432.50Q842 555 842 702M1079 692Q1079 490 1006 324.50Q933 159 805.50 70.50Q678-18 512-18Q320-18 207 96.50Q94 211 94 408Q94 607 165.50 773Q237 939 366 1031.50Q495 1124 664 1124Q859 1124 969 1008Q1079 892 1079 692M1054 1241L902 1241Q826 1304 741 1419Q610 1309 505 1241L341 1241L341 1266Q479 1394 542 1461.50Q605 1529 632 1569L880 1569Q918 1470 1054 1266L1054 1241Z"  horiz-adv-x="1174" vert-adv-y="2048"  />

      
      <glyph glyph-name="unif5" unicode="&#xf5;" d="M842 702Q842 809 793 869.50Q744 930 653 930Q560 930 486.50 858.50Q413 787 372.50 664.50Q332 542 332 403Q332 292 381.50 233Q431 174 528 174Q618 174 690 242Q762 310 802 432.50Q842 555 842 702M1079 692Q1079 490 1006 324.50Q933 159 805.50 70.50Q678-18 512-18Q320-18 207 96.50Q94 211 94 408Q94 607 165.50 773Q237 939 366 1031.50Q495 1124 664 1124Q859 1124 969 1008Q1079 892 1079 692M854 1241Q809 1241 771.50 1258Q734 1275 700 1295.50Q666 1316 634.50 1333Q603 1350 571 1350Q533 1350 508 1322.50Q483 1295 465 1239L328 1239Q385 1524 584 1524Q630 1524 669 1506.50Q708 1489 741.50 1468.50Q775 1448 805 1430.50Q835 1413 864 1413Q904 1413 929 1439.50Q954 1466 977 1526L1114 1526Q1048 1241 854 1241Z"  horiz-adv-x="1174" vert-adv-y="2048"  />

      
      <glyph glyph-name="unif6" unicode="&#xf6;" d="M842 702Q842 809 793 869.50Q744 930 653 930Q560 930 486.50 858.50Q413 787 372.50 664.50Q332 542 332 403Q332 292 381.50 233Q431 174 528 174Q618 174 690 242Q762 310 802 432.50Q842 555 842 702M1079 692Q1079 490 1006 324.50Q933 159 805.50 70.50Q678-18 512-18Q320-18 207 96.50Q94 211 94 408Q94 607 165.50 773Q237 939 366 1031.50Q495 1124 664 1124Q859 1124 969 1008Q1079 892 1079 692M409 1380Q409 1440 444 1478Q479 1516 542 1516Q590 1516 618.50 1492.50Q647 1469 647 1421Q647 1356 611.50 1319Q576 1282 518 1282Q471 1282 440 1305.50Q409 1329 409 1380M792 1380Q792 1440 827 1478Q862 1516 925 1516Q973 1516 1001.50 1492.50Q1030 1469 1030 1421Q1030 1356 994.50 1319Q959 1282 901 1282Q854 1282 823 1305.50Q792 1329 792 1380Z"  horiz-adv-x="1174" vert-adv-y="2048"  />

      
      <glyph glyph-name="unif7" unicode="&#xf7;" d="M117 631L117 811L1053 811L1053 631L117 631M459 373Q459 437 490.50 472.50Q522 508 584 508Q646 508 678.50 472Q711 436 711 373Q711 309 676.50 272.50Q642 236 584 236Q526 236 492.50 271.50Q459 307 459 373M459 1071Q459 1135 490.50 1170.50Q522 1206 584 1206Q646 1206 678.50 1170Q711 1134 711 1071Q711 1007 676.50 970.50Q642 934 584 934Q526 934 492.50 969.50Q459 1005 459 1071Z"  horiz-adv-x="1128" vert-adv-y="2048"  />

      
      <glyph glyph-name="unif8" unicode="&#xf8;" d="M1077 700Q1077 492 1003 324Q929 156 802.50 69Q676-18 514-18Q377-18 279 41L174-90L51 6L166 147Q96 251 96 408Q96 608 166.50 773Q237 938 366 1031Q495 1124 664 1124Q800 1124 903 1063L989 1171L1114 1075L1014 958Q1077 858 1077 700M653 936Q512 936 418 790.50Q324 645 324 426Q324 387 332 352L774 901Q729 936 653 936M528 168Q617 168 691 234.50Q765 301 807.50 418.50Q850 536 850 676Q850 721 844 743L408 201Q449 168 528 168Z"  horiz-adv-x="1174" vert-adv-y="2048"  />

      
      <glyph glyph-name="unif9" unicode="&#xf9;" d="M506 1106L377 496Q346 355 346 303Q346 170 473 170Q545 170 616 227Q687 284 742 389.50Q797 495 827 637L926 1106L1159 1106L926 0L741 0L762 205L754 205Q672 89 583 34.50Q494-20 391-20Q257-20 184 56Q111 132 111 274Q111 337 123 398.50Q135 460 147 522L270 1106L506 1106M823 1241L679 1241Q614 1304 547 1392.50Q480 1481 446 1548L446 1569L691 1569Q738 1415 823 1266L823 1241Z"  horiz-adv-x="1208" vert-adv-y="2048"  />

      
      <glyph glyph-name="unifa" unicode="&#xfa;" d="M506 1106L377 496Q346 355 346 303Q346 170 473 170Q545 170 616 227Q687 284 742 389.50Q797 495 827 637L926 1106L1159 1106L926 0L741 0L762 205L754 205Q672 89 583 34.50Q494-20 391-20Q257-20 184 56Q111 132 111 274Q111 337 123 398.50Q135 460 147 522L270 1106L506 1106M623 1266Q720 1374 848 1569L1112 1569L1112 1550Q1058 1484 954 1388.50Q850 1293 779 1241L623 1241L623 1266Z"  horiz-adv-x="1208" vert-adv-y="2048"  />

      
      <glyph glyph-name="unifb" unicode="&#xfb;" d="M506 1106L377 496Q346 355 346 303Q346 170 473 170Q545 170 616 227Q687 284 742 389.50Q797 495 827 637L926 1106L1159 1106L926 0L741 0L762 205L754 205Q672 89 583 34.50Q494-20 391-20Q257-20 184 56Q111 132 111 274Q111 337 123 398.50Q135 460 147 522L270 1106L506 1106M1083 1241L931 1241Q855 1304 770 1419Q639 1309 534 1241L370 1241L370 1266Q508 1394 571 1461.50Q634 1529 661 1569L909 1569Q947 1470 1083 1266L1083 1241Z"  horiz-adv-x="1208" vert-adv-y="2048"  />

      
      <glyph glyph-name="unifc" unicode="&#xfc;" d="M506 1106L377 496Q346 355 346 303Q346 170 473 170Q545 170 616 227Q687 284 742 389.50Q797 495 827 637L926 1106L1159 1106L926 0L741 0L762 205L754 205Q672 89 583 34.50Q494-20 391-20Q257-20 184 56Q111 132 111 274Q111 337 123 398.50Q135 460 147 522L270 1106L506 1106M432 1380Q432 1440 467 1478Q502 1516 565 1516Q613 1516 641.50 1492.50Q670 1469 670 1421Q670 1356 634.50 1319Q599 1282 541 1282Q494 1282 463 1305.50Q432 1329 432 1380M815 1380Q815 1440 850 1478Q885 1516 948 1516Q996 1516 1024.50 1492.50Q1053 1469 1053 1421Q1053 1356 1017.50 1319Q982 1282 924 1282Q877 1282 846 1305.50Q815 1329 815 1380Z"  horiz-adv-x="1208" vert-adv-y="2048"  />

      
      <glyph glyph-name="unifd" unicode="&#xfd;" d="M100 1106L332 1106L395 575Q404 513 411 400.50Q418 288 418 219L424 219Q510 434 559 532L852 1106L1106 1106L418-174Q328-339 222-415.50Q116-492-27-492Q-103-492-170-473L-170-285Q-95-301-45-301Q29-301 89-257.50Q149-214 213-102L264-10L100 1106M501 1266Q598 1374 726 1569L990 1569L990 1550Q936 1484 832 1388.50Q728 1293 657 1241L501 1241L501 1266Z"  horiz-adv-x="1004" vert-adv-y="2048"  />

      
      <glyph glyph-name="unife" unicode="&#xfe;" d="M586-20Q492-20 421 25.50Q350 71 307 156L299 156Q292 65 274-29L178-492L-55-492L377 1556L612 1556Q564 1333 539 1217Q514 1101 463 926L471 926Q626 1126 799 1126Q943 1126 1023.50 1024Q1104 922 1104 737Q1104 533 1036 355.50Q968 178 851.50 79Q735-20 586-20M707 934Q623 934 544 853Q465 772 417 639.50Q369 507 369 373Q369 275 415 222.50Q461 170 547 170Q633 170 706.50 247Q780 324 823 456Q866 588 866 733Q866 833 825 883.50Q784 934 707 934Z"  horiz-adv-x="1200" vert-adv-y="2048"  />

      
      <glyph glyph-name="uniff" unicode="&#xff;" d="M100 1106L332 1106L395 575Q404 513 411 400.50Q418 288 418 219L424 219Q510 434 559 532L852 1106L1106 1106L418-174Q328-339 222-415.50Q116-492-27-492Q-103-492-170-473L-170-285Q-95-301-45-301Q29-301 89-257.50Q149-214 213-102L264-10L100 1106M323 1380Q323 1440 358 1478Q393 1516 456 1516Q504 1516 532.50 1492.50Q561 1469 561 1421Q561 1356 525.50 1319Q490 1282 432 1282Q385 1282 354 1305.50Q323 1329 323 1380M706 1380Q706 1440 741 1478Q776 1516 839 1516Q887 1516 915.50 1492.50Q944 1469 944 1421Q944 1356 908.50 1319Q873 1282 815 1282Q768 1282 737 1305.50Q706 1329 706 1380Z"  horiz-adv-x="1004" vert-adv-y="2048"  />

      
      <glyph glyph-name="uni0100" unicode="&#x0100;" d="M827 406L342 406L133 0L-121 0L662 1464L936 1464L1102 0L868 0L827 406M811 614Q771 1030 765.50 1117.50Q760 1205 760 1257Q705 1118 618 950L446 614L811 614M555 1755L1137 1755L1100 1579L518 1579L555 1755Z"  horiz-adv-x="1210" vert-adv-y="2048"  />

      
      <glyph glyph-name="uni0101" unicode="&#x0101;" d="M399-20Q258-20 176 81.50Q94 183 94 367Q94 569 163.50 745Q233 921 355 1023.50Q477 1126 623 1126Q720 1126 790 1080.50Q860 1035 899 948L909 948L971 1106L1151 1106L915 0L733 0L754 176L748 176Q590-20 399-20M485 170Q567 170 646 247.50Q725 325 776 455Q827 585 827 739Q827 827 780 880.50Q733 934 657 934Q572 934 497 857Q422 780 377 647.50Q332 515 332 373Q332 271 372.50 220.50Q413 170 485 170M467 1417L1049 1417L1012 1241L430 1241L467 1417Z"  horiz-adv-x="1186" vert-adv-y="2048"  />

      
      <glyph glyph-name="uni0102" unicode="&#x0102;" d="M827 406L342 406L133 0L-121 0L662 1464L936 1464L1102 0L868 0L827 406M811 614Q771 1030 765.50 1117.50Q760 1205 760 1257Q705 1118 618 950L446 614L811 614M1170 1882Q1139 1727 1050 1653Q961 1579 809 1579Q676 1579 600.50 1645Q525 1711 525 1827Q525 1863 529 1882L664 1882Q664 1819 700.50 1788Q737 1757 824 1757Q912 1757 959.50 1788Q1007 1819 1022 1882L1170 1882Z"  horiz-adv-x="1210" vert-adv-y="2048"  />

      
      <glyph glyph-name="uni0103" unicode="&#x0103;" d="M399-20Q258-20 176 81.50Q94 183 94 367Q94 569 163.50 745Q233 921 355 1023.50Q477 1126 623 1126Q720 1126 790 1080.50Q860 1035 899 948L909 948L971 1106L1151 1106L915 0L733 0L754 176L748 176Q590-20 399-20M485 170Q567 170 646 247.50Q725 325 776 455Q827 585 827 739Q827 827 780 880.50Q733 934 657 934Q572 934 497 857Q422 780 377 647.50Q332 515 332 373Q332 271 372.50 220.50Q413 170 485 170M1091 1544Q1060 1389 971 1315Q882 1241 730 1241Q597 1241 521.50 1307Q446 1373 446 1489Q446 1525 450 1544L585 1544Q585 1481 621.50 1450Q658 1419 745 1419Q833 1419 880.50 1450Q928 1481 943 1544L1091 1544Z"  horiz-adv-x="1186" vert-adv-y="2048"  />

      
      <glyph glyph-name="uni0104" unicode="&#x0104;" d="M827 406L342 406L133 0L-121 0L662 1464L936 1464L1102 0L868 0L827 406M811 614Q771 1030 765.50 1117.50Q760 1205 760 1257Q705 1118 618 950L446 614L811 614M1030 0Q919-88 879.50-145.50Q840-203 840-254Q840-286 857-302.50Q874-319 903-319Q941-319 995-305L995-446Q930-467 858-467Q767-467 712-420Q657-373 657-289Q657-208 704.50-141Q752-74 872 0L1030 0Z"  horiz-adv-x="1210" vert-adv-y="2048"  />

      
      <glyph glyph-name="uni0105" unicode="&#x0105;" d="M399-20Q258-20 176 81.50Q94 183 94 367Q94 569 163.50 745Q233 921 355 1023.50Q477 1126 623 1126Q720 1126 790 1080.50Q860 1035 899 948L909 948L971 1106L1151 1106L915 0L733 0L754 176L748 176Q590-20 399-20M485 170Q567 170 646 247.50Q725 325 776 455Q827 585 827 739Q827 827 780 880.50Q733 934 657 934Q572 934 497 857Q422 780 377 647.50Q332 515 332 373Q332 271 372.50 220.50Q413 170 485 170M889 0Q778-88 738.50-145.50Q699-203 699-254Q699-286 716-302.50Q733-319 762-319Q800-319 854-305L854-446Q789-467 717-467Q626-467 571-420Q516-373 516-289Q516-208 563.50-141Q611-74 731 0L889 0Z"  horiz-adv-x="1186" vert-adv-y="2048"  />

      
      <glyph glyph-name="uni0106" unicode="&#x0106;" d="M924 1278Q770 1278 649 1189Q528 1100 455.50 929.50Q383 759 383 555Q383 375 465.50 279.50Q548 184 709 184Q850 184 1038 252L1038 47Q858-20 664-20Q416-20 275.50 128.50Q135 277 135 545Q135 805 240.50 1028Q346 1251 522 1367Q698 1483 924 1483Q1141 1483 1313 1391L1219 1196Q1156 1230 1085 1254Q1014 1278 924 1278M791 1604Q888 1712 1016 1907L1280 1907L1280 1888Q1226 1822 1122 1726.50Q1018 1631 947 1579L791 1579L791 1604Z"  horiz-adv-x="1225" vert-adv-y="2048"  />

      
      <glyph glyph-name="uni0107" unicode="&#x0107;" d="M506-20Q310-20 202 86Q94 192 94 389Q94 596 167.50 765.50Q241 935 374 1030.50Q507 1126 676 1126Q840 1126 973 1065L903 881Q781 934 682 934Q532 934 432 780.50Q332 627 332 401Q332 290 388 230Q444 170 543 170Q617 170 681.50 192Q746 214 811 246L811 51Q671-20 506-20M555 1266Q652 1374 780 1569L1044 1569L1044 1550Q990 1484 886 1388.50Q782 1293 711 1241L555 1241L555 1266Z"  horiz-adv-x="954" vert-adv-y="2048"  />

      
      <glyph glyph-name="uni0108" unicode="&#x0108;" d="M924 1278Q770 1278 649 1189Q528 1100 455.50 929.50Q383 759 383 555Q383 375 465.50 279.50Q548 184 709 184Q850 184 1038 252L1038 47Q858-20 664-20Q416-20 275.50 128.50Q135 277 135 545Q135 805 240.50 1028Q346 1251 522 1367Q698 1483 924 1483Q1141 1483 1313 1391L1219 1196Q1156 1230 1085 1254Q1014 1278 924 1278M1260 1579L1108 1579Q1032 1642 947 1757Q816 1647 711 1579L547 1579L547 1604Q685 1732 748 1799.50Q811 1867 838 1907L1086 1907Q1124 1808 1260 1604L1260 1579Z"  horiz-adv-x="1225" vert-adv-y="2048"  />

      
      <glyph glyph-name="uni0109" unicode="&#x0109;" d="M506-20Q310-20 202 86Q94 192 94 389Q94 596 167.50 765.50Q241 935 374 1030.50Q507 1126 676 1126Q840 1126 973 1065L903 881Q781 934 682 934Q532 934 432 780.50Q332 627 332 401Q332 290 388 230Q444 170 543 170Q617 170 681.50 192Q746 214 811 246L811 51Q671-20 506-20M1013 1241L861 1241Q785 1304 700 1419Q569 1309 464 1241L300 1241L300 1266Q438 1394 501 1461.50Q564 1529 591 1569L839 1569Q877 1470 1013 1266L1013 1241Z"  horiz-adv-x="954" vert-adv-y="2048"  />

      
      <glyph glyph-name="uni010A" unicode="&#x010A;" d="M924 1278Q770 1278 649 1189Q528 1100 455.50 929.50Q383 759 383 555Q383 375 465.50 279.50Q548 184 709 184Q850 184 1038 252L1038 47Q858-20 664-20Q416-20 275.50 128.50Q135 277 135 545Q135 805 240.50 1028Q346 1251 522 1367Q698 1483 924 1483Q1141 1483 1313 1391L1219 1196Q1156 1230 1085 1254Q1014 1278 924 1278M797 1716Q797 1784 836 1826Q875 1868 946 1868Q999 1868 1032 1841.50Q1065 1815 1065 1761Q1065 1690 1024.50 1649Q984 1608 919 1608Q867 1608 832 1634Q797 1660 797 1716Z"  horiz-adv-x="1225" vert-adv-y="2048"  />

      
      <glyph glyph-name="uni010B" unicode="&#x010B;" d="M506-20Q310-20 202 86Q94 192 94 389Q94 596 167.50 765.50Q241 935 374 1030.50Q507 1126 676 1126Q840 1126 973 1065L903 881Q781 934 682 934Q532 934 432 780.50Q332 627 332 401Q332 290 388 230Q444 170 543 170Q617 170 681.50 192Q746 214 811 246L811 51Q671-20 506-20M566 1378Q566 1446 605 1488Q644 1530 715 1530Q768 1530 801 1503.50Q834 1477 834 1423Q834 1352 793.50 1311Q753 1270 688 1270Q636 1270 601 1296Q566 1322 566 1378Z"  horiz-adv-x="954" vert-adv-y="2048"  />

      
      <glyph glyph-name="uni010C" unicode="&#x010C;" d="M924 1278Q770 1278 649 1189Q528 1100 455.50 929.50Q383 759 383 555Q383 375 465.50 279.50Q548 184 709 184Q850 184 1038 252L1038 47Q858-20 664-20Q416-20 275.50 128.50Q135 277 135 545Q135 805 240.50 1028Q346 1251 522 1367Q698 1483 924 1483Q1141 1483 1313 1391L1219 1196Q1156 1230 1085 1254Q1014 1278 924 1278M574 1907L723 1907Q792 1849 885 1729Q1010 1834 1123 1907L1285 1907L1285 1880Q1205 1809 1116 1717.50Q1027 1626 994 1579L746 1579Q702 1689 574 1880L574 1907Z"  horiz-adv-x="1225" vert-adv-y="2048"  />

      
      <glyph glyph-name="uni010D" unicode="&#x010D;" d="M506-20Q310-20 202 86Q94 192 94 389Q94 596 167.50 765.50Q241 935 374 1030.50Q507 1126 676 1126Q840 1126 973 1065L903 881Q781 934 682 934Q532 934 432 780.50Q332 627 332 401Q332 290 388 230Q444 170 543 170Q617 170 681.50 192Q746 214 811 246L811 51Q671-20 506-20M355 1569L504 1569Q573 1511 666 1391Q791 1496 904 1569L1066 1569L1066 1542Q986 1471 897 1379.50Q808 1288 775 1241L527 1241Q483 1351 355 1542L355 1569Z"  horiz-adv-x="954" vert-adv-y="2048"  />

      
      <glyph glyph-name="uni010E" unicode="&#x010E;" d="M1311 893Q1311 622 1211 420Q1111 218 920 109Q729 0 471 0L70 0L379 1462L748 1462Q1019 1462 1165 1317Q1311 1172 1311 893M483 201Q660 201 792 287Q924 373 994.50 529Q1065 685 1065 885Q1065 1069 977 1165.50Q889 1262 721 1262L575 1262L348 201L483 201M514 1907L663 1907Q732 1849 825 1729Q950 1834 1063 1907L1225 1907L1225 1880Q1145 1809 1056 1717.50Q967 1626 934 1579L686 1579Q642 1689 514 1880L514 1907Z"  horiz-adv-x="1374" vert-adv-y="2048"  />

      
      <glyph glyph-name="uni010F" unicode="&#x010F;" d="M623 1126Q802 1126 891 948L899 948Q912 1094 936 1198L1012 1556L1245 1556L915 0L731 0L750 176L743 176Q655 70 573 25Q491-20 399-20Q256-20 175 81.50Q94 183 94 369Q94 574 165.50 752Q237 930 357 1028Q477 1126 623 1126M489 170Q571 170 651.50 252Q732 334 780.50 466Q829 598 829 733Q829 824 785.50 879Q742 934 653 934Q568 934 494 857Q420 780 376 646Q332 512 332 373Q332 170 489 170M1272 1255Q1352 1399 1409 1556L1630 1556L1630 1536Q1597 1467 1529 1374.50Q1461 1282 1407 1229L1272 1229L1272 1255Z"  horiz-adv-x="1198" vert-adv-y="2048"  />

      
      <glyph glyph-name="uni0110" unicode="&#x0110;" d="M1311 893Q1311 622 1211 420Q1111 218 920 109Q729 0 471 0L70 0L199 623L53 623L98 823L242 823L379 1462L748 1462Q1019 1462 1165 1317Q1311 1172 1311 893M483 201Q660 201 792 287Q924 373 994.50 529Q1065 685 1065 885Q1065 1069 977 1165.50Q889 1262 721 1262L575 1262L481 823L766 823L721 623L438 623L348 201L483 201Z"  horiz-adv-x="1374" vert-adv-y="2048"  />

      
      <glyph glyph-name="uni0111" unicode="&#x0111;" d="M614 1100Q797 1100 887 930L895 930Q900 1005 918 1110L940 1219L606 1219L639 1382L975 1382L1012 1556L1245 1556L1208 1382L1360 1382L1325 1219L1174 1219L915 0L731 0L750 176L743 176Q661 73 578.50 26.50Q496-20 403-20Q257-20 175.50 84Q94 188 94 369Q94 561 161 733Q228 905 346 1002.50Q464 1100 614 1100M492 170Q572 170 649.50 247Q727 324 777 452Q827 580 827 713Q827 800 785 853.50Q743 907 651 907Q564 907 490.50 833.50Q417 760 374.50 635Q332 510 332 373Q332 170 492 170Z"  horiz-adv-x="1198" vert-adv-y="2048"  />

      
      <glyph glyph-name="uni0112" unicode="&#x0112;" d="M846 0L70 0L379 1462L1155 1462L1112 1257L573 1257L489 862L991 862L950 659L446 659L350 203L889 203L846 0M520 1755L1102 1755L1065 1579L483 1579L520 1755Z"  horiz-adv-x="1077" vert-adv-y="2048"  />

      
      <glyph glyph-name="uni0113" unicode="&#x0113;" d="M664 946Q568 946 483.50 860Q399 774 362 633L391 633Q579 633 685 686.50Q791 740 791 838Q791 889 759 917.50Q727 946 664 946M512-20Q315-20 204.50 91Q94 202 94 401Q94 599 171.50 769.50Q249 940 381.50 1033Q514 1126 678 1126Q839 1126 928.50 1053.50Q1018 981 1018 848Q1018 666 851.50 563.50Q685 461 377 461L334 461L332 430L332 401Q332 290 388.50 227Q445 164 557 164Q629 164 700 183Q771 202 868 248L868 61Q772 17 691.50-1.50Q611-20 512-20M436 1417L1018 1417L981 1241L399 1241L436 1417Z"  horiz-adv-x="1075" vert-adv-y="2048"  />

      
      <glyph glyph-name="uni0114" unicode="&#x0114;" d="M846 0L70 0L379 1462L1155 1462L1112 1257L573 1257L489 862L991 862L950 659L446 659L350 203L889 203L846 0M1143 1882Q1112 1727 1023 1653Q934 1579 782 1579Q649 1579 573.50 1645Q498 1711 498 1827Q498 1863 502 1882L637 1882Q637 1819 673.50 1788Q710 1757 797 1757Q885 1757 932.50 1788Q980 1819 995 1882L1143 1882Z"  horiz-adv-x="1077" vert-adv-y="2048"  />

      
      <glyph glyph-name="uni0115" unicode="&#x0115;" d="M664 946Q568 946 483.50 860Q399 774 362 633L391 633Q579 633 685 686.50Q791 740 791 838Q791 889 759 917.50Q727 946 664 946M512-20Q315-20 204.50 91Q94 202 94 401Q94 599 171.50 769.50Q249 940 381.50 1033Q514 1126 678 1126Q839 1126 928.50 1053.50Q1018 981 1018 848Q1018 666 851.50 563.50Q685 461 377 461L334 461L332 430L332 401Q332 290 388.50 227Q445 164 557 164Q629 164 700 183Q771 202 868 248L868 61Q772 17 691.50-1.50Q611-20 512-20M1064 1544Q1033 1389 944 1315Q855 1241 703 1241Q570 1241 494.50 1307Q419 1373 419 1489Q419 1525 423 1544L558 1544Q558 1481 594.50 1450Q631 1419 718 1419Q806 1419 853.50 1450Q901 1481 916 1544L1064 1544Z"  horiz-adv-x="1075" vert-adv-y="2048"  />

      
      <glyph glyph-name="uni0116" unicode="&#x0116;" d="M846 0L70 0L379 1462L1155 1462L1112 1257L573 1257L489 862L991 862L950 659L446 659L350 203L889 203L846 0M646 1687Q646 1755 685 1797Q724 1839 795 1839Q848 1839 881 1812.50Q914 1786 914 1732Q914 1661 873.50 1620Q833 1579 768 1579Q716 1579 681 1605Q646 1631 646 1687Z"  horiz-adv-x="1077" vert-adv-y="2048"  />

      
      <glyph glyph-name="uni0117" unicode="&#x0117;" d="M664 946Q568 946 483.50 860Q399 774 362 633L391 633Q579 633 685 686.50Q791 740 791 838Q791 889 759 917.50Q727 946 664 946M512-20Q315-20 204.50 91Q94 202 94 401Q94 599 171.50 769.50Q249 940 381.50 1033Q514 1126 678 1126Q839 1126 928.50 1053.50Q1018 981 1018 848Q1018 666 851.50 563.50Q685 461 377 461L334 461L332 430L332 401Q332 290 388.50 227Q445 164 557 164Q629 164 700 183Q771 202 868 248L868 61Q772 17 691.50-1.50Q611-20 512-20M576 1378Q576 1446 615 1488Q654 1530 725 1530Q778 1530 811 1503.50Q844 1477 844 1423Q844 1352 803.50 1311Q763 1270 698 1270Q646 1270 611 1296Q576 1322 576 1378Z"  horiz-adv-x="1075" vert-adv-y="2048"  />

      
      <glyph glyph-name="uni0118" unicode="&#x0118;" d="M846 0L70 0L379 1462L1155 1462L1112 1257L573 1257L489 862L991 862L950 659L446 659L350 203L889 203L846 0M772 0Q661-88 621.50-145.50Q582-203 582-254Q582-286 599-302.50Q616-319 645-319Q683-319 737-305L737-446Q672-467 600-467Q509-467 454-420Q399-373 399-289Q399-208 446.50-141Q494-74 614 0L772 0Z"  horiz-adv-x="1077" vert-adv-y="2048"  />

      
      <glyph glyph-name="uni0119" unicode="&#x0119;" d="M664 946Q568 946 483.50 860Q399 774 362 633L391 633Q579 633 685 686.50Q791 740 791 838Q791 889 759 917.50Q727 946 664 946M512-20Q315-20 204.50 91Q94 202 94 401Q94 599 171.50 769.50Q249 940 381.50 1033Q514 1126 678 1126Q839 1126 928.50 1053.50Q1018 981 1018 848Q1018 666 851.50 563.50Q685 461 377 461L334 461L332 430L332 401Q332 290 388.50 227Q445 164 557 164Q629 164 700 183Q771 202 868 248L868 61Q772 17 691.50-1.50Q611-20 512-20M709 25Q598-63 558.50-120.50Q519-178 519-229Q519-261 536-277.50Q553-294 582-294Q620-294 674-280L674-421Q609-442 537-442Q446-442 391-395Q336-348 336-264Q336-183 383.50-116Q431-49 551 25L709 25Z"  horiz-adv-x="1075" vert-adv-y="2048"  />

      
      <glyph glyph-name="uni011A" unicode="&#x011A;" d="M846 0L70 0L379 1462L1155 1462L1112 1257L573 1257L489 862L991 862L950 659L446 659L350 203L889 203L846 0M467 1907L616 1907Q685 1849 778 1729Q903 1834 1016 1907L1178 1907L1178 1880Q1098 1809 1009 1717.50Q920 1626 887 1579L639 1579Q595 1689 467 1880L467 1907Z"  horiz-adv-x="1077" vert-adv-y="2048"  />

      
      <glyph glyph-name="uni011B" unicode="&#x011B;" d="M664 946Q568 946 483.50 860Q399 774 362 633L391 633Q579 633 685 686.50Q791 740 791 838Q791 889 759 917.50Q727 946 664 946M512-20Q315-20 204.50 91Q94 202 94 401Q94 599 171.50 769.50Q249 940 381.50 1033Q514 1126 678 1126Q839 1126 928.50 1053.50Q1018 981 1018 848Q1018 666 851.50 563.50Q685 461 377 461L334 461L332 430L332 401Q332 290 388.50 227Q445 164 557 164Q629 164 700 183Q771 202 868 248L868 61Q772 17 691.50-1.50Q611-20 512-20M384 1569L533 1569Q602 1511 695 1391Q820 1496 933 1569L1095 1569L1095 1542Q1015 1471 926 1379.50Q837 1288 804 1241L556 1241Q512 1351 384 1542L384 1569Z"  horiz-adv-x="1075" vert-adv-y="2048"  />

      
      <glyph glyph-name="uni011C" unicode="&#x011C;" d="M786 793L1298 793L1141 57Q1029 17 922.50-1.50Q816-20 684-20Q423-20 279 126Q135 272 135 539Q135 803 237.50 1022Q340 1241 527.50 1362Q715 1483 954 1483Q1065 1483 1167 1462.50Q1269 1442 1372 1393L1282 1190Q1108 1276 948 1276Q790 1276 661 1185.50Q532 1095 457.50 927.50Q383 760 383 555Q383 372 472 278Q561 184 725 184Q834 184 940 217L1020 588L743 588L786 793M1264 1579L1112 1579Q1036 1642 951 1757Q820 1647 715 1579L551 1579L551 1604Q689 1732 752 1799.50Q815 1867 842 1907L1090 1907Q1128 1808 1264 1604L1264 1579Z"  horiz-adv-x="1399" vert-adv-y="2048"  />

      
      <glyph glyph-name="uni011D" unicode="&#x011D;" d="M1143 1106L1112 969L920 936Q948 878 948 799Q948 606 829 492.50Q710 379 510 379Q458 379 418 387Q307 347 307 283Q307 245 338.50 231Q370 217 430 209L557 193Q733 171 809 105.50Q885 40 885-82Q885-278 734-385Q583-492 305-492Q102-492-9.50-417Q-121-342-121-211Q-121-108-51.50-33Q18 42 172 94Q96 139 96 221Q96 290 142.50 340.50Q189 391 289 438Q154 519 154 690Q154 886 276.50 1006Q399 1126 600 1126Q680 1126 760 1106L1143 1106M324 18Q212 0 152-53Q92-106 92-184Q92-249 147.50-287.50Q203-326 317-326Q480-326 572-272Q664-218 664-117Q664-66 619-37Q574-8 461 4L324 18M594 969Q529 969 480 930.50Q431 892 404 825.50Q377 759 377 680Q377 609 412.50 570.50Q448 532 514 532Q579 532 626.50 571Q674 610 700.50 678Q727 746 727 827Q727 969 594 969M1069 1241L917 1241Q841 1304 756 1419Q625 1309 520 1241L356 1241L356 1266Q494 1394 557 1461.50Q620 1529 647 1569L895 1569Q933 1470 1069 1266L1069 1241Z"  horiz-adv-x="1067" vert-adv-y="2048"  />

      
      <glyph glyph-name="uni011E" unicode="&#x011E;" d="M786 793L1298 793L1141 57Q1029 17 922.50-1.50Q816-20 684-20Q423-20 279 126Q135 272 135 539Q135 803 237.50 1022Q340 1241 527.50 1362Q715 1483 954 1483Q1065 1483 1167 1462.50Q1269 1442 1372 1393L1282 1190Q1108 1276 948 1276Q790 1276 661 1185.50Q532 1095 457.50 927.50Q383 760 383 555Q383 372 472 278Q561 184 725 184Q834 184 940 217L1020 588L743 588L786 793M1268 1882Q1237 1727 1148 1653Q1059 1579 907 1579Q774 1579 698.50 1645Q623 1711 623 1827Q623 1863 627 1882L762 1882Q762 1819 798.50 1788Q835 1757 922 1757Q1010 1757 1057.50 1788Q1105 1819 1120 1882L1268 1882Z"  horiz-adv-x="1399" vert-adv-y="2048"  />

      
      <glyph glyph-name="uni011F" unicode="&#x011F;" d="M1143 1106L1112 969L920 936Q948 878 948 799Q948 606 829 492.50Q710 379 510 379Q458 379 418 387Q307 347 307 283Q307 245 338.50 231Q370 217 430 209L557 193Q733 171 809 105.50Q885 40 885-82Q885-278 734-385Q583-492 305-492Q102-492-9.50-417Q-121-342-121-211Q-121-108-51.50-33Q18 42 172 94Q96 139 96 221Q96 290 142.50 340.50Q189 391 289 438Q154 519 154 690Q154 886 276.50 1006Q399 1126 600 1126Q680 1126 760 1106L1143 1106M324 18Q212 0 152-53Q92-106 92-184Q92-249 147.50-287.50Q203-326 317-326Q480-326 572-272Q664-218 664-117Q664-66 619-37Q574-8 461 4L324 18M594 969Q529 969 480 930.50Q431 892 404 825.50Q377 759 377 680Q377 609 412.50 570.50Q448 532 514 532Q579 532 626.50 571Q674 610 700.50 678Q727 746 727 827Q727 969 594 969M1064 1544Q1033 1389 944 1315Q855 1241 703 1241Q570 1241 494.50 1307Q419 1373 419 1489Q419 1525 423 1544L558 1544Q558 1481 594.50 1450Q631 1419 718 1419Q806 1419 853.50 1450Q901 1481 916 1544L1064 1544Z"  horiz-adv-x="1067" vert-adv-y="2048"  />

      
      <glyph glyph-name="uni0120" unicode="&#x0120;" d="M786 793L1298 793L1141 57Q1029 17 922.50-1.50Q816-20 684-20Q423-20 279 126Q135 272 135 539Q135 803 237.50 1022Q340 1241 527.50 1362Q715 1483 954 1483Q1065 1483 1167 1462.50Q1269 1442 1372 1393L1282 1190Q1108 1276 948 1276Q790 1276 661 1185.50Q532 1095 457.50 927.50Q383 760 383 555Q383 372 472 278Q561 184 725 184Q834 184 940 217L1020 588L743 588L786 793M805 1716Q805 1784 844 1826Q883 1868 954 1868Q1007 1868 1040 1841.50Q1073 1815 1073 1761Q1073 1690 1032.50 1649Q992 1608 927 1608Q875 1608 840 1634Q805 1660 805 1716Z"  horiz-adv-x="1399" vert-adv-y="2048"  />

      
      <glyph glyph-name="uni0121" unicode="&#x0121;" d="M1143 1106L1112 969L920 936Q948 878 948 799Q948 606 829 492.50Q710 379 510 379Q458 379 418 387Q307 347 307 283Q307 245 338.50 231Q370 217 430 209L557 193Q733 171 809 105.50Q885 40 885-82Q885-278 734-385Q583-492 305-492Q102-492-9.50-417Q-121-342-121-211Q-121-108-51.50-33Q18 42 172 94Q96 139 96 221Q96 290 142.50 340.50Q189 391 289 438Q154 519 154 690Q154 886 276.50 1006Q399 1126 600 1126Q680 1126 760 1106L1143 1106M324 18Q212 0 152-53Q92-106 92-184Q92-249 147.50-287.50Q203-326 317-326Q480-326 572-272Q664-218 664-117Q664-66 619-37Q574-8 461 4L324 18M594 969Q529 969 480 930.50Q431 892 404 825.50Q377 759 377 680Q377 609 412.50 570.50Q448 532 514 532Q579 532 626.50 571Q674 610 700.50 678Q727 746 727 827Q727 969 594 969M611 1378Q611 1446 650 1488Q689 1530 760 1530Q813 1530 846 1503.50Q879 1477 879 1423Q879 1352 838.50 1311Q798 1270 733 1270Q681 1270 646 1296Q611 1322 611 1378Z"  horiz-adv-x="1067" vert-adv-y="2048"  />

      
      <glyph glyph-name="uni0122" unicode="&#x0122;" d="M786 793L1298 793L1141 57Q1029 17 922.50-1.50Q816-20 684-20Q423-20 279 126Q135 272 135 539Q135 803 237.50 1022Q340 1241 527.50 1362Q715 1483 954 1483Q1065 1483 1167 1462.50Q1269 1442 1372 1393L1282 1190Q1108 1276 948 1276Q790 1276 661 1185.50Q532 1095 457.50 927.50Q383 760 383 555Q383 372 472 278Q561 184 725 184Q834 184 940 217L1020 588L743 588L786 793M430-426Q517-270 565-125L787-125L787-145Q758-210 694-297.50Q630-385 565-453L430-453L430-426Z"  horiz-adv-x="1399" vert-adv-y="2048"  />

      
      <glyph glyph-name="uni0123" unicode="&#x0123;" d="M1143 1106L1112 969L920 936Q948 878 948 799Q948 606 829 492.50Q710 379 510 379Q458 379 418 387Q307 347 307 283Q307 245 338.50 231Q370 217 430 209L557 193Q733 171 809 105.50Q885 40 885-82Q885-278 734-385Q583-492 305-492Q102-492-9.50-417Q-121-342-121-211Q-121-108-51.50-33Q18 42 172 94Q96 139 96 221Q96 290 142.50 340.50Q189 391 289 438Q154 519 154 690Q154 886 276.50 1006Q399 1126 600 1126Q680 1126 760 1106L1143 1106M324 18Q212 0 152-53Q92-106 92-184Q92-249 147.50-287.50Q203-326 317-326Q480-326 572-272Q664-218 664-117Q664-66 619-37Q574-8 461 4L324 18M594 969Q529 969 480 930.50Q431 892 404 825.50Q377 759 377 680Q377 609 412.50 570.50Q448 532 514 532Q579 532 626.50 571Q674 610 700.50 678Q727 746 727 827Q727 969 594 969M961 1542Q864 1361 824 1241L602 1241L602 1262Q633 1324 696.50 1412.50Q760 1501 824 1569L961 1569L961 1542Z"  horiz-adv-x="1067" vert-adv-y="2048"  />

      
      </font>
</defs>
</svg>
