<?xml version="1.0" standalone="no"?>
  <!DOCTYPE svg PUBLIC "-//W3C//DTD SVG 1.1//EN" "http://www.w3.org/Graphics/SVG/1.1/DTD/svg11.dtd" >
  <svg>
  <metadata>
  Created by font-carrier
  </metadata>
  <defs>
  <font id="OpenSansLight-Italic" horiz-adv-x="2390" vert-adv-y="2390" >
    <font-face
      
      font-family="Open Sans Light"
      
      font-weight="400"
      
      font-stretch="normal"
      
      units-per-em="2048"
      
      ascent="2189"
      
      descent="-600"
      
    />
      <missing-glyph />

      

      
      <glyph glyph-name="uni21" unicode="&#x21;" d="M248 377L186 377L389 1462L508 1462L248 377M80 57Q80 113 105 145.50Q130 178 174 178Q240 178 240 106Q240 53 215 18.50Q190-16 147-16Q80-16 80 57Z"  horiz-adv-x="502" vert-adv-y="2048"  />

      
      <glyph glyph-name="uni22" unicode="&#x22;" d="M455 1462L309 934L248 934L328 1462L455 1462M784 1462L639 934L578 934L657 1462L784 1462Z"  horiz-adv-x="721" vert-adv-y="2048"  />

      
      <glyph glyph-name="uni23" unicode="&#x23;" d="M389 530L508 928L211 928L219 1008L530 1008L664 1462L754 1462L618 1008L983 1008L1118 1462L1204 1462L1069 1008L1354 1008L1346 928L1044 928L926 530L1229 530L1221 451L901 451L768 0L678 0L813 451L453 451L319 0L231 0L365 451L82 451L90 530L389 530M475 530L838 530L958 928L596 928L475 530Z"  horiz-adv-x="1323" vert-adv-y="2048"  />

      
      <glyph glyph-name="uni24" unicode="&#x24;" d="M928 467Q928 316 817.50 224Q707 132 520 121L467-119L385-119L436 121Q357 123 278 139Q199 155 141 182L141 276Q206 242 294.50 222.50Q383 203 455 203L565 715Q455 768 412 806Q369 844 345.50 893.50Q322 943 322 1010Q322 1165 427.50 1260.50Q533 1356 700 1360L741 1552L821 1552L780 1360Q929 1355 1057 1292L1022 1214Q912 1275 766 1284L657 770Q781 710 829.50 670.50Q878 631 903 582Q928 533 928 467M537 203Q679 210 760.50 277.50Q842 345 842 461Q842 537 794 590.50Q746 644 637 688L537 203M686 1284Q552 1275 481 1204Q410 1133 410 1018Q410 940 447 889.50Q484 839 584 793L686 1284Z"  horiz-adv-x="1128" vert-adv-y="2048"  />

      
      <glyph glyph-name="uni25" unicode="&#x25;" d="M1458 1462L319 0L213 0L1348 1462L1458 1462M1520 612Q1520 437 1470 285Q1420 133 1334 55Q1248-23 1137-23Q1025-23 965 52.50Q905 128 905 276Q905 436 957 588Q1009 740 1095 817.50Q1181 895 1288 895Q1409 895 1464.50 823.50Q1520 752 1520 612M1284 821Q1204 821 1137.50 748.50Q1071 676 1031 546Q991 416 991 283Q991 167 1032 109Q1073 51 1145 51Q1275 51 1354.50 217.50Q1434 384 1434 604Q1434 713 1398 767Q1362 821 1284 821M760 1198Q760 1023 710 871Q660 719 574 641Q488 563 377 563Q265 563 205 638.50Q145 714 145 862Q145 1022 197 1174Q249 1326 335 1403.50Q421 1481 528 1481Q760 1481 760 1198M524 1407Q445 1407 379 1335.50Q313 1264 272 1132.50Q231 1001 231 868Q231 753 272 695Q313 637 385 637Q469 637 533.50 709Q598 781 636 913Q674 1045 674 1190Q674 1299 638 1353Q602 1407 524 1407Z"  horiz-adv-x="1556" vert-adv-y="2048"  />

      
      <glyph glyph-name="uni26" unicode="&#x26;" d="M748 1395Q623 1395 554 1327Q485 1259 485 1135Q485 1003 594 854Q797 943 873.50 1017.50Q950 1092 950 1200Q950 1291 893.50 1343Q837 1395 748 1395M465 63Q573 63 676.50 105.50Q780 148 899 252L547 745Q383 666 315 610.50Q247 555 211.50 486.50Q176 418 176 328Q176 209 254 136Q332 63 465 63M78 324Q78 486 177 601.50Q276 717 502 817L461 884Q383 1012 383 1135Q383 1292 484 1388.50Q585 1485 748 1485Q893 1485 975 1408.50Q1057 1332 1057 1202Q1057 1117 1016 1048Q975 979 895 920Q815 861 639 782L969 319Q1042 394 1104.50 495.50Q1167 597 1196 682L1307 682Q1205 435 1022 246L1206 0L1083 0L952 184Q831 76 710 28Q589-20 444-20Q277-20 177.50 74Q78 168 78 324Z"  horiz-adv-x="1331" vert-adv-y="2048"  />

      
      <glyph glyph-name="uni27" unicode="&#x27;" d="M461 1462L315 934L254 934L334 1462L461 1462Z"  horiz-adv-x="403" vert-adv-y="2048"  />

      
      <glyph glyph-name="uni28" unicode="&#x28;" d="M104 270Q104 613 226 903Q348 1193 608 1462L713 1462Q454 1186 328.50 894Q203 602 203 276Q203-41 330-324L250-324Q104-62 104 270Z"  horiz-adv-x="526" vert-adv-y="2048"  />

      
      <glyph glyph-name="uni29" unicode="&#x29;" d="M453 868Q453 523 329.50 232Q206-59-51-324L-156-324Q101-50 227.50 242.50Q354 535 354 862Q354 1010 325.50 1156Q297 1302 227 1462L307 1462Q453 1200 453 868Z"  horiz-adv-x="526" vert-adv-y="2048"  />

      
      <glyph glyph-name="uni2a" unicode="&#x2a;" d="M834 1540L725 1135L1163 1143L1155 1036L739 1065L920 664L805 627L670 1044L385 696L307 774L625 1092L233 1217L272 1319L666 1151L713 1559L834 1540Z"  horiz-adv-x="1137" vert-adv-y="2048"  />

      
      <glyph glyph-name="uni2b" unicode="&#x2b;" d="M563 672L162 672L162 772L563 772L563 1176L664 1176L664 772L1065 772L1065 672L664 672L664 272L563 272L563 672Z"  horiz-adv-x="1128" vert-adv-y="2048"  />

      
      <glyph glyph-name="uni2c" unicode="&#x2c;" d="M250 238L258 215Q224 123 144-18.50Q64-160-16-264L-90-264Q-11-132 51 7Q113 146 139 238L250 238Z"  horiz-adv-x="451" vert-adv-y="2048"  />

      
      <glyph glyph-name="uni2d" unicode="&#x2d;" d="M82 502L100 592L557 592L541 502L82 502Z"  horiz-adv-x="629" vert-adv-y="2048"  />

      
      <glyph glyph-name="uni2e" unicode="&#x2e;" d="M82 55Q82 111 107 143.50Q132 176 176 176Q242 176 242 104Q242 51 217 16.50Q192-18 150-18Q82-18 82 55Z"  horiz-adv-x="485" vert-adv-y="2048"  />

      
      <glyph glyph-name="uni2f" unicode="&#x2f;" d="M827 1462L10 0L-100 0L715 1462L827 1462Z"  horiz-adv-x="641" vert-adv-y="2048"  />

      
      <glyph glyph-name="uni30" unicode="&#x30;" d="M1075 1016Q1075 815 1034 611Q993 407 917.50 265Q842 123 734 51.50Q626-20 492-20Q316-20 227.50 106.50Q139 233 139 494Q139 680 183.50 875.50Q228 1071 307.50 1209.50Q387 1348 494.50 1416.50Q602 1485 735 1485Q1075 1485 1075 1016M723 1397Q589 1397 481.50 1284Q374 1171 308 955Q242 739 242 504Q242 282 304.50 175Q367 68 502 68Q641 68 746 180Q851 292 912 517Q973 742 973 1006Q973 1205 913.50 1301Q854 1397 723 1397Z"  horiz-adv-x="1128" vert-adv-y="2048"  />

      
      <glyph glyph-name="uni31" unicode="&#x31;" d="M537 0L432 0L657 1055Q676 1147 731 1348Q689 1312 655.50 1287Q622 1262 406 1126L354 1204L760 1462L850 1462L537 0Z"  horiz-adv-x="1128" vert-adv-y="2048"  />

      
      <glyph glyph-name="uni32" unicode="&#x32;" d="M909 0L39 0L61 104L510 506Q708 683 794 782.50Q880 882 920.50 969Q961 1056 961 1149Q961 1261 895 1327Q829 1393 698 1393Q522 1393 365 1264L311 1337Q491 1483 705 1483Q878 1483 973.50 1398Q1069 1313 1069 1161Q1069 1051 1025.50 952.50Q982 854 884 741Q786 628 573 438L190 100L190 96L926 96L909 0Z"  horiz-adv-x="1128" vert-adv-y="2048"  />

      
      <glyph glyph-name="uni33" unicode="&#x33;" d="M1049 1174Q1049 1012 943 899Q837 786 657 756L657 752Q774 728 842.50 636.50Q911 545 911 410Q911 276 847 177Q783 78 667.50 29Q552-20 393-20Q297-20 208.50 0.50Q120 21 55 53L55 154Q227 68 399 68Q596 68 702.50 157.50Q809 247 809 410Q809 555 720 633Q631 711 473 711L356 711L377 807L487 807Q696 807 820 902.50Q944 998 944 1161Q944 1275 880.50 1336Q817 1397 692 1397Q525 1397 348 1266L299 1341Q383 1408 487 1445.50Q591 1483 705 1483Q866 1483 957.50 1400.50Q1049 1318 1049 1174Z"  horiz-adv-x="1128" vert-adv-y="2048"  />

      
      <glyph glyph-name="uni34" unicode="&#x34;" d="M1071 371L807 371L727 0L631 0L711 371L23 371L43 467L924 1477L1042 1477L827 459L1092 459L1071 371M729 459Q808 828 848 1017.50Q888 1207 934 1372L930 1372Q864 1281 801 1206L150 459L729 459Z"  horiz-adv-x="1128" vert-adv-y="2048"  />

      
      <glyph glyph-name="uni35" unicode="&#x35;" d="M582 879Q770 879 874.50 777Q979 675 979 498Q979 261 831 120.50Q683-20 424-20Q340-20 246.50 0Q153 20 88 51L88 158Q258 68 428 68Q636 68 756.50 182.50Q877 297 877 496Q877 636 792 715.50Q707 795 567 795Q434 795 324 754L258 803L451 1462L1075 1462L1057 1366L516 1366L367 850Q465 879 582 879Z"  horiz-adv-x="1128" vert-adv-y="2048"  />

      
      <glyph glyph-name="uni36" unicode="&#x36;" d="M170 428Q170 711 275 972.50Q380 1234 544.50 1357.50Q709 1481 928 1481Q1051 1481 1110 1460L1092 1370Q1006 1393 922 1393Q689 1393 528.50 1219Q368 1045 295 717L303 717Q371 811 467 860Q563 909 678 909Q839 909 928.50 808.50Q1018 708 1018 526Q1018 370 958 245Q898 120 787 50Q676-20 530-20Q359-20 264.50 99Q170 218 170 428M543 68Q655 68 739.50 126.50Q824 185 869.50 288.50Q915 392 915 518Q915 664 848 742.50Q781 821 653 821Q572 821 499 789.50Q426 758 370 702.50Q314 647 292 587.50Q270 528 270 414Q270 250 342.50 159Q415 68 543 68Z"  horiz-adv-x="1128" vert-adv-y="2048"  />

      
      <glyph glyph-name="uni37" unicode="&#x37;" d="M244 0L1040 1366L274 1366L297 1462L1155 1462L1135 1352L356 0L244 0Z"  horiz-adv-x="1128" vert-adv-y="2048"  />

      
      <glyph glyph-name="uni38" unicode="&#x38;" d="M737 1485Q900 1485 995 1400Q1090 1315 1090 1171Q1090 1033 1006 936.50Q922 840 721 764Q851 686 911 593.50Q971 501 971 385Q971 269 913 177Q855 85 747.50 32.50Q640-20 487-20Q309-20 203.50 72.50Q98 165 98 326Q98 485 198.50 594.50Q299 704 520 782Q420 854 376 934Q332 1014 332 1114Q332 1273 446 1379Q560 1485 737 1485M610 733Q392 660 296.50 565.50Q201 471 201 340Q201 204 278.50 133.50Q356 63 498 63Q666 63 768 154Q870 245 870 387Q870 491 808 576Q746 661 610 733M727 1399Q597 1399 512.50 1317Q428 1235 428 1114Q428 1023 469.50 955Q511 887 627 813Q819 875 906 957Q993 1039 993 1163Q993 1272 922.50 1335.50Q852 1399 727 1399Z"  horiz-adv-x="1128" vert-adv-y="2048"  />

      
      <glyph glyph-name="uni39" unicode="&#x39;" d="M1059 1032Q1059 744 957.50 484Q856 224 694 102Q532-20 301-20Q187-20 115 2L115 92Q202 63 307 63Q781 63 934 737L926 737Q786 545 559 545Q397 545 304 650Q211 755 211 934Q211 1089 270.50 1215Q330 1341 441 1411Q552 1481 698 1481Q872 1481 965.50 1365.50Q1059 1250 1059 1032M686 1393Q574 1393 488.50 1334.50Q403 1276 358 1172Q313 1068 313 942Q313 797 380.50 717Q448 637 573 637Q656 637 730.50 669.50Q805 702 859.50 757Q914 812 936 871Q958 930 958 1047Q958 1213 887 1303Q816 1393 686 1393Z"  horiz-adv-x="1128" vert-adv-y="2048"  />

      
      <glyph glyph-name="uni3a" unicode="&#x3a;" d="M260 989Q260 1046 285.50 1078Q311 1110 354 1110Q420 1110 420 1038Q420 983 395 949Q370 915 328 915Q260 915 260 989M102 55Q102 111 127.50 143.50Q153 176 197 176Q262 176 262 104Q262 49 236.50 15.50Q211-18 170-18Q102-18 102 55Z"  horiz-adv-x="485" vert-adv-y="2048"  />

      
      <glyph glyph-name="uni3b" unicode="&#x3b;" d="M287 238L295 215Q260 119 176.50-27Q93-173 20-264L-53-264Q26-132 88 7Q150 146 176 238L287 238M266 989Q266 1046 291.50 1078Q317 1110 360 1110Q426 1110 426 1038Q426 983 401 949Q376 915 334 915Q266 915 266 989Z"  horiz-adv-x="485" vert-adv-y="2048"  />

      
      <glyph glyph-name="uni3c" unicode="&#x3c;" d="M1051 262L137 676L137 750L1051 1221L1051 1118L250 719L1051 369L1051 262Z"  horiz-adv-x="1128" vert-adv-y="2048"  />

      
      <glyph glyph-name="uni3d" unicode="&#x3d;" d="M168 885L168 985L1071 985L1071 885L168 885M168 461L168 559L1071 559L1071 461L168 461Z"  horiz-adv-x="1128" vert-adv-y="2048"  />

      
      <glyph glyph-name="uni3e" unicode="&#x3e;" d="M170 369L971 719L170 1118L170 1221L1085 750L1085 676L170 262L170 369Z"  horiz-adv-x="1128" vert-adv-y="2048"  />

      
      <glyph glyph-name="uni3f" unicode="&#x3f;" d="M242 362L248 391Q277 523 330 597.50Q383 672 487 745Q605 829 662 890.50Q719 952 748.50 1018Q778 1084 778 1159Q778 1267 710.50 1329Q643 1391 528 1391Q389 1391 221 1290L182 1376Q267 1425 353.50 1454Q440 1483 541 1483Q700 1483 791.50 1398.50Q883 1314 883 1169Q883 1042 817 935Q751 828 586 709Q501 648 453.50 600.50Q406 553 380.50 505.50Q355 458 334 362L242 362M170 59Q170 115 195 147.50Q220 180 264 180Q330 180 330 109Q330 55 305.50 20.50Q281-14 238-14Q170-14 170 59Z"  horiz-adv-x="799" vert-adv-y="2048"  />

      
      <glyph glyph-name="uni40" unicode="&#x40;" d="M1688 858Q1688 679 1632 534.50Q1576 390 1477.50 307.50Q1379 225 1266 225Q1168 225 1111.50 280Q1055 335 1055 424L1051 424Q997 327 918.50 276Q840 225 750 225Q638 225 572 298Q506 371 506 500Q506 656 569 783Q632 910 747 981.50Q862 1053 1008 1053Q1130 1053 1260 1001L1176 686Q1137 546 1137 465Q1137 394 1171.50 353.50Q1206 313 1272 313Q1358 313 1432 386.50Q1506 460 1549.50 584.50Q1593 709 1593 836Q1593 992 1528 1113Q1463 1234 1341 1301Q1219 1368 1049 1368Q814 1368 624.50 1259.50Q435 1151 329 955.50Q223 760 223 516Q223 228 378 67Q533-94 813-94Q1020-94 1233-12L1233-102Q1023-184 805-184Q602-184 447.50-101.50Q293-19 209 137.50Q125 294 125 508Q125 784 246.50 1001.50Q368 1219 583.50 1338.50Q799 1458 1057 1458Q1246 1458 1387.50 1385.50Q1529 1313 1608.50 1172.50Q1688 1032 1688 858M1008 969Q895 969 803.50 910Q712 851 661 744.50Q610 638 610 506Q610 414 650.50 363.50Q691 313 764 313Q865 313 944.50 402Q1024 491 1069 657L1147 946Q1081 969 1008 969Z"  horiz-adv-x="1724" vert-adv-y="2048"  />

      
      <glyph glyph-name="uni41" unicode="&#x41;" d="M805 520L293 520L6 0L-111 0L711 1468L778 1468L979 0L874 0L805 520M793 612L754 903Q723 1145 715 1305Q685 1242 650.50 1175Q616 1108 344 612L793 612Z"  horiz-adv-x="1059" vert-adv-y="2048"  />

      
      <glyph glyph-name="uni42" unicode="&#x42;" d="M412 1462L791 1462Q981 1462 1081.50 1378Q1182 1294 1182 1137Q1182 984 1092 888Q1002 792 838 764L838 760Q963 729 1026.50 646.50Q1090 564 1090 442Q1090 237 949.50 118.50Q809 0 559 0L102 0L412 1462M377 811L655 811Q861 811 968 892Q1075 973 1075 1130Q1075 1249 997 1310.50Q919 1372 768 1372L496 1372L377 811M358 721L223 90L565 90Q766 90 874.50 177.50Q983 265 983 434Q983 579 893 650Q803 721 618 721L358 721Z"  horiz-adv-x="1202" vert-adv-y="2048"  />

      
      <glyph glyph-name="uni43" unicode="&#x43;" d="M961 1389Q764 1389 609.50 1284.50Q455 1180 364.50 980Q274 780 274 539Q274 314 384.50 193Q495 72 702 72Q842 72 1006 123L1006 29Q850-20 690-20Q438-20 304 125Q170 270 170 535Q170 801 274.50 1023Q379 1245 559 1364Q739 1483 961 1483Q1138 1483 1268 1415L1223 1325Q1168 1355 1098.50 1372Q1029 1389 961 1389Z"  horiz-adv-x="1169" vert-adv-y="2048"  />

      
      <glyph glyph-name="uni44" unicode="&#x44;" d="M1288 879Q1288 626 1178.50 417.50Q1069 209 878 104.50Q687 0 432 0L102 0L412 1462L717 1462Q999 1462 1143.50 1314.50Q1288 1167 1288 879M430 90Q656 90 824.50 184.50Q993 279 1085.50 460Q1178 641 1178 872Q1178 1370 702 1370L496 1370L221 90L430 90Z"  horiz-adv-x="1350" vert-adv-y="2048"  />

      
      <glyph glyph-name="uni45" unicode="&#x45;" d="M829 0L102 0L412 1462L1139 1462L1118 1368L494 1368L377 815L967 815L946 721L358 721L223 94L850 94L829 0Z"  horiz-adv-x="1067" vert-adv-y="2048"  />

      
      <glyph glyph-name="uni46" unicode="&#x46;" d="M205 0L102 0L412 1462L1120 1462L1100 1368L496 1368L362 748L932 748L911 653L342 653L205 0Z"  horiz-adv-x="981" vert-adv-y="2048"  />

      
      <glyph glyph-name="uni47" unicode="&#x47;" d="M856 735L1262 735L1112 53Q901-20 707-20Q450-20 310 126Q170 272 170 547Q170 812 275 1030.50Q380 1249 558.50 1366Q737 1483 954 1483Q1067 1483 1157 1464Q1247 1445 1341 1405L1303 1311Q1193 1357 1113.50 1373Q1034 1389 946 1389Q762 1389 607 1281.50Q452 1174 363 980Q274 786 274 547Q274 318 388.50 195Q503 72 715 72Q870 72 1024 119L1141 645L838 645L856 735Z"  horiz-adv-x="1374" vert-adv-y="2048"  />

      
      <glyph glyph-name="uni48" unicode="&#x48;" d="M1063 0L963 0L1114 719L354 719L205 0L102 0L412 1462L514 1462L375 813L1135 813L1272 1462L1372 1462L1063 0Z"  horiz-adv-x="1366" vert-adv-y="2048"  />

      
      <glyph glyph-name="uni4a" unicode="&#x4a;" d="M-180-360Q-228-360-268-352Q-308-344-324-336L-313-244Q-256-264-176-264Q37-264 86-23L395 1462L500 1462L186-29Q151-199 61-279.50Q-29-360-180-360Z"  horiz-adv-x="477" vert-adv-y="2048"  />

      
      <glyph glyph-name="uni4b" unicode="&#x4b;" d="M979 0L868 0L526 788L336 635L205 0L102 0L412 1462L514 1462L356 739L489 860L1169 1462L1307 1462L608 852L979 0Z"  horiz-adv-x="1122" vert-adv-y="2048"  />

      
      <glyph glyph-name="uni4c" unicode="&#x4c;" d="M102 0L412 1462L514 1462L225 96L846 96L823 0L102 0Z"  horiz-adv-x="938" vert-adv-y="2048"  />

      
      <glyph glyph-name="uni4d" unicode="&#x4d;" d="M772 205L1505 1462L1655 1462L1354 0L1253 0L1444 901Q1523 1270 1544 1348L1538 1348L758 0L707 0L485 1348L479 1348Q459 1194 401 922L205 0L109 0L418 1462L561 1462L766 205L772 205Z"  horiz-adv-x="1669" vert-adv-y="2048"  />

      
      <glyph glyph-name="uni4e" unicode="&#x4e;" d="M1069 0L983 0L467 1284L459 1284Q436 1135 411 1011Q386 887 197 0L102 0L412 1462L492 1462L1014 168L1022 168Q1045 344 1096 584L1284 1462L1378 1462L1069 0Z"  horiz-adv-x="1372" vert-adv-y="2048"  />

      
      <glyph glyph-name="uni4f" unicode="&#x4f;" d="M1403 911Q1403 656 1309 429.50Q1215 203 1057 91.50Q899-20 692-20Q442-20 307 129Q172 278 172 559Q172 821 265 1036.50Q358 1252 520 1367.50Q682 1483 893 1483Q1140 1483 1271.50 1334.50Q1403 1186 1403 911M879 1389Q705 1389 570.50 1288Q436 1187 356 990Q276 793 276 573Q276 328 385.50 200Q495 72 705 72Q874 72 1005 170.50Q1136 269 1215 470.50Q1294 672 1294 901Q1294 1141 1189.50 1265Q1085 1389 879 1389Z"  horiz-adv-x="1464" vert-adv-y="2048"  />

      
      <glyph glyph-name="uni50" unicode="&#x50;" d="M1145 1102Q1145 602 535 602L334 602L205 0L102 0L412 1462L727 1462Q929 1462 1037 1369.50Q1145 1277 1145 1102M350 694L541 694Q793 694 914.50 790.50Q1036 887 1036 1096Q1036 1370 707 1370L496 1370L350 694Z"  horiz-adv-x="1145" vert-adv-y="2048"  />

      
      <glyph glyph-name="uni51" unicode="&#x51;" d="M1403 911Q1403 695 1333 493Q1263 291 1146.50 169Q1030 47 872 2L1139-348L997-348L766-16L692-20Q442-20 307 129Q172 278 172 559Q172 821 265 1036.50Q358 1252 520 1367.50Q682 1483 893 1483Q1140 1483 1271.50 1334.50Q1403 1186 1403 911M879 1389Q705 1389 570.50 1288Q436 1187 356 990Q276 793 276 573Q276 328 385.50 200Q495 72 705 72Q874 72 1005 170.50Q1136 269 1215 470.50Q1294 672 1294 901Q1294 1141 1189.50 1265Q1085 1389 879 1389Z"  horiz-adv-x="1464" vert-adv-y="2048"  />

      
      <glyph glyph-name="uni52" unicode="&#x52;" d="M336 633L205 0L102 0L412 1462L715 1462Q1145 1462 1145 1102Q1145 920 1041.50 799Q938 678 760 647Q961 56 981 0L870 0L659 633L336 633M358 725L610 725Q818 725 927 820.50Q1036 916 1036 1102Q1036 1370 707 1370L496 1370L358 725Z"  horiz-adv-x="1145" vert-adv-y="2048"  />

      
      <glyph glyph-name="uni53" unicode="&#x53;" d="M895 403Q895 277 829.50 178.50Q764 80 650 30Q536-20 381-20Q293-20 208.50-3Q124 14 37 55L37 164Q200 72 385 72Q573 72 680.50 158.50Q788 245 788 391Q788 452 771 495.50Q754 539 718.50 574Q683 609 627.50 642Q572 675 496 717Q346 793 286.50 881Q227 969 227 1087Q227 1205 286 1294.50Q345 1384 451 1433.50Q557 1483 688 1483Q787 1483 868 1465.50Q949 1448 1036 1405L1004 1311Q938 1351 852.50 1374Q767 1397 688 1397Q525 1397 428.50 1314.50Q332 1232 332 1096Q332 993 381 926Q430 859 563 793Q717 714 776.50 663Q836 612 865.50 550Q895 488 895 403Z"  horiz-adv-x="1020" vert-adv-y="2048"  />

      
      <glyph glyph-name="uni54" unicode="&#x54;" d="M438 0L336 0L625 1368L193 1368L213 1462L1186 1462L1167 1368L727 1368L438 0Z"  horiz-adv-x="985" vert-adv-y="2048"  />

      
      <glyph glyph-name="uni55" unicode="&#x55;" d="M1395 1462L1188 485Q1130 215 991 97.50Q852-20 616-20Q176-20 176 381Q176 464 203 582L389 1462L492 1462L299 563Q279 474 279 379Q279 70 621 70Q816 70 928.50 166.50Q1041 263 1087 485L1294 1462L1395 1462Z"  horiz-adv-x="1370" vert-adv-y="2048"  />

      
      <glyph glyph-name="uni56" unicode="&#x56;" d="M457 147Q508 258 581 394L1153 1462L1270 1462L471 0L383 0L201 1462L301 1462L418 512Q444 295 453 147L457 147Z"  horiz-adv-x="1079" vert-adv-y="2048"  />

      
      <glyph glyph-name="uni57" unicode="&#x57;" d="M1018 1341Q991 1265 956 1187.50Q921 1110 393 0L311 0L238 1462L338 1462L385 431L389 266L387 180L393 180Q478 406 563 578L997 1462L1102 1462L1163 584Q1182 318 1182 174L1188 174Q1218 260 1249.50 337Q1281 414 1743 1462L1851 1462Q1682 1097 1520.50 731Q1359 365 1192 0L1114 0L1036 1075Q1025 1217 1025 1294L1026 1341L1018 1341Z"  horiz-adv-x="1702" vert-adv-y="2048"  />

      
      <glyph glyph-name="uni58" unicode="&#x58;" d="M879 0L772 0L518 678L-8 0L-135 0L473 766L201 1462L307 1462L547 836L1030 1462L1149 1462L594 743L879 0Z"  horiz-adv-x="971" vert-adv-y="2048"  />

      
      <glyph glyph-name="uni59" unicode="&#x59;" d="M494 645L1038 1462L1155 1462L524 530L416 0L311 0L430 545L193 1462L293 1462L494 645Z"  horiz-adv-x="965" vert-adv-y="2048"  />

      
      <glyph glyph-name="uni5a" unicode="&#x5a;" d="M913 0L-12 0L10 92L1079 1368L315 1368L338 1462L1225 1462L1206 1374L137 94L936 94L913 0Z"  horiz-adv-x="1128" vert-adv-y="2048"  />

      
      <glyph glyph-name="uni5b" unicode="&#x5b;" d="M369-324L-57-324L319 1462L748 1462L729 1372L399 1372L59-233L389-233L369-324Z"  horiz-adv-x="537" vert-adv-y="2048"  />

      
      <glyph glyph-name="uni5c" unicode="&#x5c;" d="M295 1462L537 0L455 0L209 1462L295 1462Z"  horiz-adv-x="641" vert-adv-y="2048"  />

      
      <glyph glyph-name="uni5d" unicode="&#x5d;" d="M203 1462L629 1462L252-324L-176-324L-158-233L172-233L512 1372L182 1372L203 1462Z"  horiz-adv-x="537" vert-adv-y="2048"  />

      
      <glyph glyph-name="uni5e" unicode="&#x5e;" d="M70 569L657 1475L748 1475L1008 569L903 569L686 1378L186 569L70 569Z"  horiz-adv-x="1047" vert-adv-y="2048"  />

      
      <glyph glyph-name="uni5f" unicode="&#x5f;" d="M625-291L-182-291L-164-205L643-205L625-291Z"  horiz-adv-x="801" vert-adv-y="2048"  />

      
      <glyph glyph-name="uni60" unicode="&#x60;" d="M766 1241L700 1241Q650 1293 586 1385.50Q522 1478 487 1548L487 1569L602 1569Q648 1440 766 1266L766 1241Z"  horiz-adv-x="1135" vert-adv-y="2048"  />

      
      <glyph glyph-name="uni61" unicode="&#x61;" d="M655 1104Q887 1104 934 885L940 885L999 1087L1079 1087L850 0L768 0L813 274L807 274Q723 132 620 56Q517-20 383-20Q102-20 102 354Q102 551 177 730Q252 909 377.50 1006.50Q503 1104 655 1104M406 70Q495 70 583.50 132Q672 194 742.50 298Q813 402 850 528Q887 654 887 741Q887 820 861 882.50Q835 945 784 981.50Q733 1018 657 1018Q533 1018 433 936Q333 854 269 690.50Q205 527 205 365Q205 213 255 141.50Q305 70 406 70Z"  horiz-adv-x="1133" vert-adv-y="2048"  />

      
      <glyph glyph-name="uni62" unicode="&#x62;" d="M500-16Q387-16 314 43Q241 102 217 209L211 209L156 0L76 0L403 1556L498 1556Q367 928 336 805L342 805Q435 961 541 1034.50Q647 1108 772 1108Q1053 1108 1053 733Q1053 530 977 353Q901 176 776 80Q651-16 500-16M750 1018Q659 1018 570 956.50Q481 895 409.50 787Q338 679 303 552Q268 425 268 346Q268 217 332 143.50Q396 70 498 70Q622 70 722 153Q822 236 886 398Q950 560 950 723Q950 875 901 946.50Q852 1018 750 1018Z"  horiz-adv-x="1151" vert-adv-y="2048"  />

      
      <glyph glyph-name="uni63" unicode="&#x63;" d="M477-20Q303-20 202.50 90.50Q102 201 102 397Q102 590 175.50 758.50Q249 927 374 1015.50Q499 1104 664 1104Q798 1104 905 1061L877 971Q770 1018 659 1018Q530 1018 426.50 941Q323 864 264 719Q205 574 205 399Q205 241 278.50 155.50Q352 70 487 70Q558 70 618.50 83Q679 96 750 129L750 37Q634-20 477-20Z"  horiz-adv-x="887" vert-adv-y="2048"  />

      
      <glyph glyph-name="uni64" unicode="&#x64;" d="M655 1104Q885 1104 934 885L938 885Q950 951 1081 1556L1180 1556L850 0L768 0L813 274L807 274Q634-20 383-20Q102-20 102 354Q102 547 173.50 724Q245 901 371 1002.50Q497 1104 655 1104M406 70Q495 70 584.50 132.50Q674 195 744.50 300.50Q815 406 851 531.50Q887 657 887 741Q887 867 825.50 942.50Q764 1018 657 1018Q533 1018 433 935Q333 852 269 692.50Q205 533 205 365Q205 70 406 70Z"  horiz-adv-x="1133" vert-adv-y="2048"  />

      
      <glyph glyph-name="uni65" unicode="&#x65;" d="M469-20Q296-20 199 89.50Q102 199 102 395Q102 576 173 742Q244 908 368.50 1006Q493 1104 643 1104Q757 1104 825 1043Q893 982 893 877Q893 696 729.50 601Q566 506 244 506L211 506Q205 462 205 408Q205 243 279 156.50Q353 70 492 70Q624 70 768 143L768 49Q628-20 469-20M631 1018Q500 1018 387.50 902.50Q275 787 225 594L274 594Q791 594 791 864Q791 931 747.50 974.50Q704 1018 631 1018Z"  horiz-adv-x="928" vert-adv-y="2048"  />

      
      <glyph glyph-name="uni66" unicode="&#x66;" d="M-131-492Q-179-492-233-473L-233-383Q-180-399-133-399Q-45-399 1-346Q47-293 76-160L322 1006L117 1006L131 1073L336 1087L371 1247Q406 1415 487.50 1491Q569 1567 715 1567Q788 1567 881 1536L856 1456Q769 1483 709 1483Q613 1483 555.50 1429.50Q498 1376 471 1251L436 1087L684 1087L668 1006L420 1006L168-184Q135-345 64-418.50Q-7-492-131-492Z"  horiz-adv-x="578" vert-adv-y="2048"  />

      
      <glyph glyph-name="uni67" unicode="&#x67;" d="M1100 1087L1083 1008L840 997Q866 969 883.50 913Q901 857 901 799Q901 690 846.50 592.50Q792 495 698.50 447Q605 399 485 399Q422 399 408 408Q328 375 284 335Q240 295 240 254Q240 213 271.50 189.50Q303 166 385 158L506 147Q852 116 852-117Q852-229 787-314.50Q722-400 600-446Q478-492 309-492Q123-492 17.50-420Q-88-348-88-217Q-88 19 221 117Q143 159 143 240Q143 363 334 442Q263 478 223.50 547.50Q184 617 184 705Q184 816 237.50 909Q291 1002 385.50 1055Q480 1108 592 1108Q661 1108 739 1087L1100 1087M14-207Q14-308 95-357Q176-406 319-406Q522-406 636-331.50Q750-257 750-127Q750-42 687.50 3.50Q625 49 469 61L309 76Q152 31 83-38.50Q14-108 14-207M285 711Q285 599 343.50 541Q402 483 508 483Q596 483 662 520Q728 557 764.50 634Q801 711 801 803Q801 907 745 964.50Q689 1022 588 1022Q495 1022 427 979Q359 936 322 863Q285 790 285 711Z"  horiz-adv-x="1040" vert-adv-y="2048"  />

      
      <glyph glyph-name="uni68" unicode="&#x68;" d="M764 0L913 692Q934 784 934 848Q934 928 890.50 973Q847 1018 756 1018Q644 1018 545.50 951Q447 884 379.50 763Q312 642 276 477L174 0L76 0L408 1556L504 1556L418 1145Q374 945 352 866L358 866Q436 979 544.50 1041.50Q653 1104 774 1104Q898 1104 966 1039Q1034 974 1034 856Q1034 786 1010 674L862 0L764 0Z"  horiz-adv-x="1143" vert-adv-y="2048"  />

      
      <glyph glyph-name="uni69" unicode="&#x69;" d="M174 0L76 0L307 1087L403 1087L174 0M350 1366Q350 1421 372 1454Q394 1487 432 1487Q489 1487 489 1415Q489 1358 467 1325Q445 1292 410 1292Q381 1292 365.50 1311.50Q350 1331 350 1366Z"  horiz-adv-x="475" vert-adv-y="2048"  />

      
      <glyph glyph-name="uni6a" unicode="&#x6a;" d="M-166-492Q-228-492-279-473L-279-381Q-232-403-166-403Q-84-403-37.50-351.50Q9-300 35-174L301 1087L397 1087L129-184Q94-349 22.50-420.50Q-49-492-166-492M350 1366Q350 1421 372 1454Q394 1487 432 1487Q489 1487 489 1415Q489 1358 467 1325Q445 1292 410 1292Q381 1292 365.50 1311.50Q350 1331 350 1366Z"  horiz-adv-x="475" vert-adv-y="2048"  />

      
      <glyph glyph-name="uni6b" unicode="&#x6b;" d="M270 477L879 1087L1004 1087L530 618L827 0L721 0L457 559L252 371L172 0L76 0L406 1556L502 1556L336 776L266 477L270 477Z"  horiz-adv-x="944" vert-adv-y="2048"  />

      
      <glyph glyph-name="uni6c" unicode="&#x6c;" d="M170 0L76 0L410 1556L504 1556L170 0Z"  horiz-adv-x="475" vert-adv-y="2048"  />

      
      <glyph glyph-name="uni6d" unicode="&#x6d;" d="M711 0L858 674Q883 799 883 836Q883 1018 729 1018Q623 1018 529 950.50Q435 883 370 762Q305 641 270 475L170 0L72 0L303 1087L383 1087L350 877L356 877Q436 990 537.50 1047Q639 1104 750 1104Q856 1104 913 1037Q970 970 973 842L979 842Q1056 971 1160 1037.50Q1264 1104 1382 1104Q1499 1104 1564.50 1042.50Q1630 981 1630 866Q1630 837 1627.50 809.50Q1625 782 1608 690L1456 0L1356 0L1505 680Q1530 800 1530 856Q1530 933 1487 975.50Q1444 1018 1368 1018Q1211 1018 1090.50 880.50Q970 743 922 518L813 0L711 0Z"  horiz-adv-x="1751" vert-adv-y="2048"  />

      
      <glyph glyph-name="uni6e" unicode="&#x6e;" d="M764 0L913 692Q934 784 934 848Q934 928 890.50 973Q847 1018 756 1018Q644 1018 545.50 951Q447 884 379.50 763.50Q312 643 276 477L174 0L76 0L307 1087L389 1087L352 866L358 866Q522 1104 774 1104Q904 1104 969 1040Q1034 976 1034 856Q1034 786 1010 674L862 0L764 0Z"  horiz-adv-x="1143" vert-adv-y="2048"  />

      
      <glyph glyph-name="uni6f" unicode="&#x6f;" d="M649 1108Q829 1108 927.50 999.50Q1026 891 1026 700Q1026 503 954.50 331.50Q883 160 759 70Q635-20 473-20Q289-20 193.50 89.50Q98 199 98 403Q98 594 171 761Q244 928 368 1018Q492 1108 649 1108M641 1022Q517 1022 418 943.50Q319 865 260 718.50Q201 572 201 408Q201 66 483 66Q610 66 708.50 143.50Q807 221 865.50 371.50Q924 522 924 702Q924 856 851 939Q778 1022 641 1022Z"  horiz-adv-x="1124" vert-adv-y="2048"  />

      
      <glyph glyph-name="uni70" unicode="&#x70;" d="M498-16Q268-16 219 203L215 203Q202 131 66-492L-33-492L303 1087L385 1087L340 813L346 813Q437 966 541.50 1037Q646 1108 770 1108Q905 1108 978 1015.50Q1051 923 1051 733Q1051 538 979 362Q907 186 781.50 85Q656-16 498-16M748 1018Q661 1018 574 959.50Q487 901 412.50 792Q338 683 302 554.50Q266 426 266 346Q266 221 327.50 145.50Q389 70 496 70Q620 70 721 154Q822 238 885 397.50Q948 557 948 723Q948 1018 748 1018Z"  horiz-adv-x="1149" vert-adv-y="2048"  />

      
      <glyph glyph-name="uni71" unicode="&#x71;" d="M651 1104Q760 1104 834.50 1046Q909 988 934 879L940 879L995 1087L1075 1087L748-469L653-469L751 1L815 283L809 283Q716 127 610 53.50Q504-20 379-20Q98-20 98 354Q98 555 173.50 733Q249 911 374 1007.50Q499 1104 651 1104M401 70Q493 70 583 132.50Q673 195 743.50 304Q814 413 848.50 540.50Q883 668 883 741Q883 871 819.50 944.50Q756 1018 653 1018Q529 1018 429 935Q329 852 265 690Q201 528 201 365Q201 222 246.50 146Q292 70 401 70Z"  horiz-adv-x="1157" vert-adv-y="2048"  />

      
      <glyph glyph-name="uni72" unicode="&#x72;" d="M713 1106Q782 1106 836 1092L815 999Q768 1014 702 1014Q608 1014 523 950Q438 886 370 758Q302 630 270 481L170 0L72 0L303 1087L383 1087L354 883L360 883Q433 977 483 1018.50Q533 1060 589.50 1083Q646 1106 713 1106Z"  horiz-adv-x="752" vert-adv-y="2048"  />

      
      <glyph glyph-name="uni73" unicode="&#x73;" d="M713 295Q713 151 610 65.50Q507-20 330-20Q157-20 25 55L25 162Q99 116 178 91Q257 66 326 66Q464 66 537 123.50Q610 181 610 287Q610 329 594.50 361Q579 393 544.50 422.50Q510 452 412 508Q264 588 212 653.50Q160 719 160 813Q160 941 258.50 1022.50Q357 1104 518 1104Q593 1104 676.50 1086.50Q760 1069 817 1040L782 952Q646 1016 518 1016Q402 1016 332 963Q262 910 262 825Q262 770 279 737Q296 704 339.50 668.50Q383 633 459 592Q573 529 620.50 488.50Q668 448 690.50 402Q713 356 713 295Z"  horiz-adv-x="827" vert-adv-y="2048"  />

      
      <glyph glyph-name="uni74" unicode="&#x74;" d="M694 1087L676 1006L393 1006L258 371Q236 272 236 207Q236 68 362 68Q430 68 514 94L514 8Q413-20 344-20Q245-20 191 34.50Q137 89 137 193Q137 266 166 399L295 1006L113 1006L127 1073L311 1090L408 1343L463 1343L408 1087L694 1087Z"  horiz-adv-x="616" vert-adv-y="2048"  />

      
      <glyph glyph-name="uni75" unicode="&#x75;" d="M381 1087L229 389Q207 283 207 231Q207 157 254.50 113.50Q302 70 393 70Q503 70 600.50 135.50Q698 201 764.50 322.50Q831 444 864 602L969 1087L1067 1087L836 0L756 0L784 205L778 205Q611-16 375-16Q244-16 176.50 46Q109 108 109 227Q109 287 131 397L281 1087L381 1087Z"  horiz-adv-x="1143" vert-adv-y="2048"  />

      
      <glyph glyph-name="uni76" unicode="&#x76;" d="M276 0L104 1087L205 1087L313 352Q339 187 346 98L352 98Q403 213 481 354L887 1087L989 1087L389 0L276 0Z"  horiz-adv-x="895" vert-adv-y="2048"  />

      
      <glyph glyph-name="uni77" unicode="&#x77;" d="M838 0L778 686Q764 910 764 952L758 952Q724 860 614 662L258 0L141 0L121 1087L213 1087L226 266L223 109L229 109Q290 243 379 406L752 1087L829 1087L893 406Q907 259 907 109L913 109L937 170L1038 406L1358 1087L1454 1087L946 0L838 0Z"  horiz-adv-x="1393" vert-adv-y="2048"  />

      
      <glyph glyph-name="uni78" unicode="&#x78;" d="M442 483L49 0L-72 0L399 559L154 1087L254 1087L461 625L834 1087L954 1087L506 553L764 0L666 0L442 483Z"  horiz-adv-x="922" vert-adv-y="2048"  />

      
      <glyph glyph-name="uni79" unicode="&#x79;" d="M123 1087L223 1087L305 539Q356 188 360 90L371 90Q414 195 557 457L905 1087L1008 1087L295-203Q223-330 172.50-381Q122-432 58.50-462Q-5-492-88-492Q-156-492-217-471L-217-379Q-146-406-80-406Q0-406 67-356.50Q134-307 197-192Q260-77 297-8L123 1087Z"  horiz-adv-x="920" vert-adv-y="2048"  />

      
      <glyph glyph-name="uni7a" unicode="&#x7a;" d="M700 0L-29 0L-14 72L762 1004L219 1004L236 1087L895 1087L877 1004L115 84L717 84L700 0Z"  horiz-adv-x="887" vert-adv-y="2048"  />

      
      <glyph glyph-name="uni7b" unicode="&#x7b;" d="M424-324Q168-324 168-125Q168-80 184-10L240 242Q258 332 258 369Q258 528 59 528L80 606Q206 606 271 655Q336 704 360 813L449 1206Q479 1341 555 1401.50Q631 1462 770 1462L799 1462L782 1376Q696 1374 653 1355.50Q610 1337 583.50 1294Q557 1251 539 1174L465 836Q435 702 373.50 641.50Q312 581 209 563L209 559Q277 541 314.50 490.50Q352 440 352 369Q352 317 328 205L281-20Q268-78 268-121Q268-182 305.50-210Q343-238 444-238L444-324L424-324Z"  horiz-adv-x="709" vert-adv-y="2048"  />

      
      <glyph glyph-name="uni7c" unicode="&#x7c;" d="M584 1561L684 1561L684-510L584-510L584 1561Z"  horiz-adv-x="1128" vert-adv-y="2048"  />

      
      <glyph glyph-name="uni7d" unicode="&#x7d;" d="M332 1462Q463 1462 521.50 1411Q580 1360 580 1264Q580 1223 563 1149L508 897Q489 802 489 770Q489 693 538.50 651.50Q588 610 688 610L668 532Q543 532 477 483.50Q411 435 387 326L299-68Q267-207 190.50-265.50Q114-324-23-324L-41-324L-41-238Q55-236 97-217Q139-198 165.50-156Q192-114 209-35L283 303Q310 429 370.50 492.50Q431 556 539 575L539 580Q464 600 429.50 652.50Q395 705 395 770Q395 825 413 901L467 1159Q479 1220 479 1260Q479 1304 461 1329Q443 1354 407 1365Q371 1376 291 1376L311 1462L332 1462Z"  horiz-adv-x="709" vert-adv-y="2048"  />

      
      <glyph glyph-name="uni7e" unicode="&#x7e;" d="M350 745Q301 745 242 714.50Q183 684 127 625L127 719Q235 829 360 829Q421 829 475 815.50Q529 802 631 758Q757 700 850 700Q904 700 957.50 729Q1011 758 1075 825L1075 729Q964 616 842 616Q725 616 571 688Q509 717 458.50 731Q408 745 350 745Z"  horiz-adv-x="1128" vert-adv-y="2048"  />

      
      <glyph glyph-name="unia1" unicode="&#xa1;" d="M264 711L326 711L123-375L4-375L264 711M432 1030Q432 974 407 941.50Q382 909 338 909Q272 909 272 981Q272 1036 297 1070Q322 1104 365 1104Q432 1104 432 1030Z"  horiz-adv-x="502" vert-adv-y="2048"  />

      
      <glyph glyph-name="unia2" unicode="&#xa2;" d="M578-20L485-20L530 195Q398 220 324 327.50Q250 435 250 600Q250 784 313.50 941Q377 1098 491.50 1194Q606 1290 748 1305L784 1483L874 1483L836 1307Q952 1303 1053 1264L1024 1174Q917 1221 807 1221Q677 1221 574 1145Q471 1069 411.50 924Q352 779 352 602Q352 438 426.50 355Q501 272 635 272Q762 272 899 332L899 240Q781 182 618 182L578-20Z"  horiz-adv-x="1128" vert-adv-y="2048"  />

      
      <glyph glyph-name="unia3" unicode="&#xa3;" d="M879 1479Q1049 1479 1192 1401L1153 1317L1099 1343Q991 1393 868 1393Q734 1393 647.50 1318.50Q561 1244 530 1098L457 758L866 758L848 676L440 676L383 408Q333 183 195 94L954 94L934 0L-4 0L12 84Q105 95 177.50 179.50Q250 264 285 416L342 676L143 676L160 758L358 758L434 1108Q475 1295 589 1387Q703 1479 879 1479Z"  horiz-adv-x="1128" vert-adv-y="2048"  />

      
      <glyph glyph-name="unia4" unicode="&#xa4;" d="M262 723Q262 841 336 948L207 1077L270 1141L397 1012Q502 1090 627 1090Q745 1090 850 1012L981 1141L1042 1079L913 950Q991 844 991 723Q991 588 913 496L1042 369L981 307L850 434Q746 358 627 358Q501 358 399 438L270 309L209 371L336 498Q262 596 262 723M350 723Q350 607 430 526.50Q510 446 627 446Q744 446 825.50 527Q907 608 907 723Q907 798 870.50 863Q834 928 768 967Q702 1006 627 1006Q513 1006 431.50 924Q350 842 350 723Z"  horiz-adv-x="1128" vert-adv-y="2048"  />

      
      <glyph glyph-name="unia5" unicode="&#xa5;" d="M584 645L1128 1462L1245 1462L686 639L952 639L936 563L621 563L582 373L899 373L881 289L565 289L506 0L401 0L465 289L166 289L184 373L483 373L524 563L223 563L240 639L498 639L283 1462L383 1462L584 645Z"  horiz-adv-x="1128" vert-adv-y="2048"  />

      
      <glyph glyph-name="unia6" unicode="&#xa6;" d="M578 1561L678 1561L678 805L578 805L578 1561M578 246L678 246L678-510L578-510L578 246Z"  horiz-adv-x="1128" vert-adv-y="2048"  />

      
      <glyph glyph-name="unia7" unicode="&#xa7;" d="M211 778Q211 879 280.50 960Q350 1041 479 1090Q415 1121 375.50 1175.50Q336 1230 336 1296Q336 1370 382 1430.50Q428 1491 514.50 1525Q601 1559 717 1559Q880 1559 1006 1501L975 1421Q837 1475 711 1475Q587 1475 508.50 1428.50Q430 1382 430 1305Q430 1246 476 1200.50Q522 1155 659 1094Q771 1042 817.50 1004.50Q864 967 888.50 919.50Q913 872 913 809Q913 612 664 492Q786 428 786 295Q786 209 738 141.50Q690 74 598.50 36Q507-2 377-2Q220-2 102 51L102 150Q149 123 228 103.50Q307 84 381 84Q530 84 609 136.50Q688 189 688 287Q688 349 645.50 393Q603 437 479 489Q324 554 267.50 619Q211 684 211 778M559 1038Q440 1008 371.50 940.50Q303 873 303 786Q303 729 327.50 689.50Q352 650 408.50 616.50Q465 583 596 535Q699 584 758 648.50Q817 713 817 805Q817 877 759.50 931Q702 985 559 1038Z"  horiz-adv-x="995" vert-adv-y="2048"  />

      
      <glyph glyph-name="unia8" unicode="&#xa8;" d="M836 1366Q836 1415 856.50 1444Q877 1473 913 1473Q967 1473 967 1409Q967 1361 946 1332Q925 1303 891 1303Q836 1303 836 1366M492 1366Q492 1415 512.50 1444Q533 1473 569 1473Q623 1473 623 1409Q623 1361 602 1332Q581 1303 547 1303Q492 1303 492 1366Z"  horiz-adv-x="1135" vert-adv-y="2048"  />

      
      <glyph glyph-name="unia9" unicode="&#xa9;" d="M944 1092Q802 1092 721.50 997.50Q641 903 641 733Q641 547 715.50 458Q790 369 936 369Q1021 369 1135 412L1135 324Q1031 279 926 279Q739 279 638 395Q537 511 537 725Q537 932 647 1057Q757 1182 944 1182Q1063 1182 1171 1130L1135 1047Q1036 1092 944 1092M147 731Q147 931 247 1106Q347 1281 522 1382Q697 1483 899 1483Q1099 1483 1274 1383Q1449 1283 1550 1108Q1651 933 1651 731Q1651 534 1554 361Q1457 188 1282 84Q1107-20 899-20Q692-20 517 83.50Q342 187 244.50 360Q147 533 147 731M240 731Q240 553 328.50 401.50Q417 250 569 161Q721 72 899 72Q1073 72 1224 157.50Q1375 243 1467 396.50Q1559 550 1559 731Q1559 909 1470 1061Q1381 1213 1229.50 1302Q1078 1391 899 1391Q717 1391 564 1299Q411 1207 325.50 1056Q240 905 240 731Z"  horiz-adv-x="1704" vert-adv-y="2048"  />

      
      <glyph glyph-name="uniaa" unicode="&#xaa;" d="M487 1485Q542 1485 584.50 1456Q627 1427 651 1370L657 1370L692 1473L758 1473L621 823L549 823L571 948L567 948Q471 811 344 811Q264 811 217 867.50Q170 924 170 1032Q170 1221 260.50 1353Q351 1485 487 1485M369 885Q435 885 502.50 960.50Q570 1036 600 1145Q616 1196 616 1268Q616 1326 580 1368.50Q544 1411 487 1411Q393 1411 325.50 1299.50Q258 1188 258 1028Q258 885 369 885Z"  horiz-adv-x="643" vert-adv-y="2048"  />

      
      <glyph glyph-name="uniab" unicode="&#xab;" d="M426 932L483 883L166 547L379 162L315 123L61 541L63 567L426 932M786 932L844 883L530 547L739 162L676 123L422 541L424 567L786 932Z"  horiz-adv-x="860" vert-adv-y="2048"  />

      
      <glyph glyph-name="uniac" unicode="&#xac;" d="M1028 772L1028 272L928 272L928 672L125 672L125 772L1028 772Z"  horiz-adv-x="1128" vert-adv-y="2048"  />

      
      <glyph glyph-name="uniad" unicode="&#xad;" d="M77 502L95 592L552 592L536 502L77 502Z"  horiz-adv-x="629" vert-adv-y="2048"  />

      
      <glyph glyph-name="uniae" unicode="&#xae;" d="M758 731L870 731Q963 731 1014 777.50Q1065 824 1065 913Q1065 1085 868 1085L758 1085L758 731M1169 918Q1169 838 1129.50 777Q1090 716 1020 684L1257 291L1137 291L926 651L758 651L758 291L657 291L657 1171L868 1171Q1011 1171 1090 1109Q1169 1047 1169 918M150 731Q150 938 253.50 1113Q357 1288 530 1385.50Q703 1483 901 1483Q1101 1483 1276 1383Q1451 1283 1552 1108Q1653 933 1653 731Q1653 534 1556 361Q1459 188 1284 84Q1109-20 901-20Q697-20 524.50 80.50Q352 181 251 353.50Q150 526 150 731M242 731Q242 553 330.50 401.50Q419 250 571 161Q723 72 901 72Q1075 72 1226 157.50Q1377 243 1469 396.50Q1561 550 1561 731Q1561 909 1472 1061Q1383 1213 1231.50 1302Q1080 1391 901 1391Q719 1391 566 1299Q413 1207 327.50 1056Q242 905 242 731Z"  horiz-adv-x="1704" vert-adv-y="2048"  />

      
      <glyph glyph-name="uniaf" unicode="&#xaf;" d="M1001 1556L348 1556L401 1653L1055 1653L1001 1556Z"  horiz-adv-x="655" vert-adv-y="2048"  />

      
      <glyph glyph-name="unib0" unicode="&#xb0;" d="M242 1190Q242 1310 327 1396.50Q412 1483 535 1483Q657 1483 742 1396.50Q827 1310 827 1190Q827 1068 741.50 982.50Q656 897 535 897Q413 897 327.50 982.50Q242 1068 242 1190M315 1190Q315 1101 379.50 1037Q444 973 535 973Q627 973 690.50 1037Q754 1101 754 1190Q754 1280 690 1345.50Q626 1411 535 1411Q445 1411 380 1345.50Q315 1280 315 1190Z"  horiz-adv-x="877" vert-adv-y="2048"  />

      
      <glyph glyph-name="unib1" unicode="&#xb1;" d="M528 629L127 629L127 727L528 727L528 1133L629 1133L629 727L1030 727L1030 629L629 629L629 229L528 229L528 629M127 0L127 100L1030 100L1030 0L127 0Z"  horiz-adv-x="1128" vert-adv-y="2048"  />

      
      <glyph glyph-name="unib2" unicode="&#xb2;" d="M604 586L82 586L98 666L395 924Q532 1042 577.50 1114.50Q623 1187 623 1268Q623 1327 584.50 1365Q546 1403 479 1403Q384 1403 285 1327L244 1389Q352 1479 483 1479Q556 1479 608 1452Q660 1425 686.50 1380Q713 1335 713 1280Q713 1174 654 1081.50Q595 989 471 887L205 664L621 664L604 586Z"  horiz-adv-x="643" vert-adv-y="2048"  />

      
      <glyph glyph-name="unib3" unicode="&#xb3;" d="M705 1276Q705 1191 656.50 1128Q608 1065 502 1040L502 1036Q568 1020 607.50 968Q647 916 647 844Q647 767 608 703Q569 639 499 604Q429 569 338 569Q279 569 214.50 584.50Q150 600 109 625L109 715Q155 687 217 667Q279 647 342 647Q441 647 501 699.50Q561 752 561 842Q561 1004 365 1004L281 1004L297 1083L383 1083Q485 1083 551.50 1132.50Q618 1182 618 1262Q618 1330 580.50 1364.50Q543 1399 475 1399Q375 1399 276 1331L236 1395Q345 1481 487 1481Q587 1481 646 1424.50Q705 1368 705 1276Z"  horiz-adv-x="643" vert-adv-y="2048"  />

      
      <glyph glyph-name="unib4" unicode="&#xb4;" d="M580 1262Q646 1313 730.50 1404Q815 1495 860 1569L997 1569L997 1546Q946 1480 839.50 1387.50Q733 1295 647 1241L580 1241L580 1262Z"  horiz-adv-x="1135" vert-adv-y="2048"  />

      
      <glyph glyph-name="unib5" unicode="&#xb5;" d="M238 242Q238 160 286.50 115Q335 70 422 70Q532 70 629 134.50Q726 199 791.50 317Q857 435 893 602L997 1087L1096 1087L862 0L784 0L813 205L807 205Q643-16 403-16Q318-16 264 16.50Q210 49 188 106L182 106Q164-26 131-178L68-492L-29-492L309 1087L410 1087L258 389Q238 293 238 242Z"  horiz-adv-x="1171" vert-adv-y="2048"  />

      
      <glyph glyph-name="unib6" unicode="&#xb6;" d="M1208-260L1108-260L1108 1462L881 1462L881-260L780-260L780 559Q716 541 635 541Q419 541 317 666Q215 791 215 1042Q215 1302 324 1429Q433 1556 666 1556L1208 1556L1208-260Z"  horiz-adv-x="1341" vert-adv-y="2048"  />

      
      <glyph glyph-name="unib7" unicode="&#xb7;" d="M207 698Q207 754 232 786.50Q257 819 301 819Q367 819 367 747Q367 694 342 659.50Q317 625 275 625Q207 625 207 698Z"  horiz-adv-x="485" vert-adv-y="2048"  />

      
      <glyph glyph-name="unib8" unicode="&#xb8;" d="M197-289Q197-383 121.50-437.50Q46-492-96-492Q-142-492-174-485L-174-406Q-144-412-102-412Q96-412 96-297Q96-200-55-190L55 0L135 0L57-137Q197-167 197-289Z"  horiz-adv-x="420" vert-adv-y="2048"  />

      
      <glyph glyph-name="unib9" unicode="&#xb9;" d="M512 1462L592 1462L406 586L322 586L440 1155Q445 1176 451.50 1205.50Q458 1235 465.50 1265.50Q473 1296 481 1324.50Q489 1353 496 1374Q462 1343 436 1322.50Q410 1302 293 1229L254 1288L512 1462Z"  horiz-adv-x="643" vert-adv-y="2048"  />

      
      <glyph glyph-name="uniba" unicode="&#xba;" d="M518 1479Q623 1479 683 1415Q743 1351 743 1235Q743 1120 703 1021Q663 922 589 864.50Q515 807 414 807Q300 807 245 874.50Q190 942 190 1059Q190 1171 231.50 1268.50Q273 1366 347.50 1422.50Q422 1479 518 1479M508 1405Q438 1405 384 1358.50Q330 1312 300 1234Q270 1156 270 1067Q270 881 426 881Q499 881 551.50 927.50Q604 974 633 1055Q662 1136 662 1231Q662 1314 623 1359.50Q584 1405 508 1405Z"  horiz-adv-x="655" vert-adv-y="2048"  />

      
      <glyph glyph-name="unibb" unicode="&#xbb;" d="M451 123L393 172L707 508L498 893L561 932L815 514L813 487L451 123M90 123L33 172L346 508L137 893L201 932L455 514L453 487L90 123Z"  horiz-adv-x="860" vert-adv-y="2048"  />

      
      <glyph glyph-name="unibc" unicode="&#xbc;" d="M1319 230L1188 230L1139 1L1057 1L1106 230L715 230L736 306L1242 883L1328 883L1203 302L1336 302L1319 230M1121 302Q1182 596 1200 667.50Q1218 739 1229 773Q1219 757 1168 694Q1117 631 830 302L1121 302M1323 1462L236 0L129 0L1215 1462L1323 1462M509 1462L589 1462L403 586L319 586L437 1155Q442 1176 448.50 1205.50Q455 1235 462.50 1265.50Q470 1296 478 1324.50Q486 1353 493 1374Q459 1343 433 1322.50Q407 1302 290 1229L251 1288L509 1462Z"  horiz-adv-x="1481" vert-adv-y="2048"  />

      
      <glyph glyph-name="unibd" unicode="&#xbd;" d="M1278 1L756 1L772 81L1069 339Q1206 457 1251.50 529.50Q1297 602 1297 683Q1297 742 1258.50 780Q1220 818 1153 818Q1058 818 959 742L918 804Q1026 894 1157 894Q1230 894 1282 867Q1334 840 1360.50 795Q1387 750 1387 695Q1387 589 1328 496.50Q1269 404 1145 302L879 79L1295 79L1278 1M431 1462L511 1462L325 586L241 586L359 1155Q364 1176 370.50 1205.50Q377 1235 384.50 1265.50Q392 1296 400 1324.50Q408 1353 415 1374Q381 1343 355 1322.50Q329 1302 212 1229L173 1288L431 1462M1247 1462L160 0L53 0L1139 1462L1247 1462Z"  horiz-adv-x="1458" vert-adv-y="2048"  />

      
      <glyph glyph-name="unibe" unicode="&#xbe;" d="M1380 230L1249 230L1200 1L1118 1L1167 230L776 230L797 306L1303 883L1389 883L1264 302L1397 302L1380 230M1182 302Q1243 596 1261 667.50Q1279 739 1290 773Q1280 757 1229 694Q1178 631 891 302L1182 302M667 1276Q667 1191 618.50 1128Q570 1065 464 1040L464 1036Q530 1020 569.50 968Q609 916 609 844Q609 767 570 703Q531 639 461 604Q391 569 300 569Q241 569 176.50 584.50Q112 600 71 625L71 715Q117 687 179 667Q241 647 304 647Q403 647 463 699.50Q523 752 523 842Q523 1004 327 1004L243 1004L259 1083L345 1083Q447 1083 513.50 1132.50Q580 1182 580 1262Q580 1330 542.50 1364.50Q505 1399 437 1399Q337 1399 238 1331L198 1395Q307 1481 449 1481Q549 1481 608 1424.50Q667 1368 667 1276M1407 1462L320 0L213 0L1299 1462L1407 1462Z"  horiz-adv-x="1458" vert-adv-y="2048"  />

      
      <glyph glyph-name="unibf" unicode="&#xbf;" d="M641 717L635 688Q607 561 556 488Q505 415 395 334Q277 250 220 188.50Q163 127 133.50 61Q104-5 104-80Q104-186 169.50-248.50Q235-311 354-311Q495-311 662-211L700-297Q615-346 529.50-374.50Q444-403 342-403Q183-403 91.50-318.50Q0-234 0-90Q0 43 70 150.50Q140 258 297 371Q382 432 430.50 480Q479 528 503.50 575Q528 622 549 717L641 717M713 1020Q713 964 687.50 931.50Q662 899 618 899Q553 899 553 971Q553 1027 578 1060.50Q603 1094 645 1094Q713 1094 713 1020Z"  horiz-adv-x="799" vert-adv-y="2048"  />

      
      <glyph glyph-name="unic0" unicode="&#xc0;" d="M805 520L293 520L6 0L-111 0L711 1468L778 1468L979 0L874 0L805 520M793 612L754 903Q723 1145 715 1305Q685 1242 650.50 1175Q616 1108 344 612L793 612M815 1579L749 1579Q699 1631 635 1723.50Q571 1816 536 1886L536 1907L651 1907Q697 1778 815 1604L815 1579Z"  horiz-adv-x="1059" vert-adv-y="2048"  />

      
      <glyph glyph-name="unic1" unicode="&#xc1;" d="M805 520L293 520L6 0L-111 0L711 1468L778 1468L979 0L874 0L805 520M793 612L754 903Q723 1145 715 1305Q685 1242 650.50 1175Q616 1108 344 612L793 612M668 1600Q734 1651 818.50 1742Q903 1833 948 1907L1085 1907L1085 1884Q1034 1818 927.50 1725.50Q821 1633 735 1579L668 1579L668 1600Z"  horiz-adv-x="1059" vert-adv-y="2048"  />

      
      <glyph glyph-name="unic2" unicode="&#xc2;" d="M805 520L293 520L6 0L-111 0L711 1468L778 1468L979 0L874 0L805 520M793 612L754 903Q723 1145 715 1305Q685 1242 650.50 1175Q616 1108 344 612L793 612M1007 1579L958 1579Q888 1639 797 1786Q742 1729 672 1671.50Q602 1614 547 1579L493 1579L493 1608Q561 1664 650.50 1756.50Q740 1849 778 1907L842 1907Q865 1843 914.50 1754.50Q964 1666 1007 1608L1007 1579Z"  horiz-adv-x="1059" vert-adv-y="2048"  />

      
      <glyph glyph-name="unic3" unicode="&#xc3;" d="M805 520L293 520L6 0L-111 0L711 1468L778 1468L979 0L874 0L805 520M793 612L754 903Q723 1145 715 1305Q685 1242 650.50 1175Q616 1108 344 612L793 612M911 1587Q871 1587 833.50 1606Q796 1625 758 1651Q724 1674 693.50 1692Q663 1710 625 1710Q580 1710 551 1681.50Q522 1653 500 1581L426 1581Q445 1689 497 1747.50Q549 1806 631 1806Q672 1806 704.50 1792Q737 1778 822 1720Q874 1684 916 1684Q959 1684 987.50 1714.50Q1016 1745 1034 1815L1110 1815Q1084 1697 1035.50 1642Q987 1587 911 1587Z"  horiz-adv-x="1059" vert-adv-y="2048"  />

      
      <glyph glyph-name="unic4" unicode="&#xc4;" d="M805 520L293 520L6 0L-111 0L711 1468L778 1468L979 0L874 0L805 520M793 612L754 903Q723 1145 715 1305Q685 1242 650.50 1175Q616 1108 344 612L793 612M879 1704Q879 1753 899.50 1782Q920 1811 956 1811Q1010 1811 1010 1747Q1010 1699 989 1670Q968 1641 934 1641Q879 1641 879 1704M535 1704Q535 1753 555.50 1782Q576 1811 612 1811Q666 1811 666 1747Q666 1699 645 1670Q624 1641 590 1641Q535 1641 535 1704Z"  horiz-adv-x="1059" vert-adv-y="2048"  />

      
      <glyph glyph-name="unic5" unicode="&#xc5;" d="M805 520L293 520L6 0L-111 0L711 1468L778 1468L979 0L874 0L805 520M793 612L754 903Q723 1145 715 1305Q685 1242 650.50 1175Q616 1108 344 612L793 612M945 1600Q945 1508 887.50 1451.50Q830 1395 742 1395Q649 1395 594 1447Q539 1499 539 1592Q539 1680 598.50 1736Q658 1792 748 1792Q836 1792 890.50 1742Q945 1692 945 1600M867 1598Q867 1655 833.50 1688Q800 1721 746 1721Q686 1721 652.50 1685Q619 1649 619 1592Q619 1535 652 1502Q685 1469 742 1469Q798 1469 832.50 1505Q867 1541 867 1598Z"  horiz-adv-x="1059" vert-adv-y="2048"  />

      
      <glyph glyph-name="unic6" unicode="&#xc6;" d="M1403 0L676 0L786 522L342 522L14 0L-117 0L829 1462L1712 1462L1692 1368L1067 1368L950 815L1540 815L1520 721L932 721L797 94L1423 94L1403 0M408 627L809 627L965 1368L877 1368L408 627Z"  horiz-adv-x="1640" vert-adv-y="2048"  />

      
      <glyph glyph-name="unic7" unicode="&#xc7;" d="M961 1389Q764 1389 609.50 1284.50Q455 1180 364.50 980Q274 780 274 539Q274 314 384.50 193Q495 72 702 72Q842 72 1006 123L1006 29Q850-20 690-20Q438-20 304 125Q170 270 170 535Q170 801 274.50 1023Q379 1245 559 1364Q739 1483 961 1483Q1138 1483 1268 1415L1223 1325Q1168 1355 1098.50 1372Q1029 1389 961 1389M752-289Q752-383 676.50-437.50Q601-492 459-492Q413-492 381-485L381-406Q411-412 453-412Q651-412 651-297Q651-200 500-190L610 0L690 0L612-137Q752-167 752-289Z"  horiz-adv-x="1169" vert-adv-y="2048"  />

      
      <glyph glyph-name="unic8" unicode="&#xc8;" d="M829 0L102 0L412 1462L1139 1462L1118 1368L494 1368L377 815L967 815L946 721L358 721L223 94L850 94L829 0M891 1579L825 1579Q775 1631 711 1723.50Q647 1816 612 1886L612 1907L727 1907Q773 1778 891 1604L891 1579Z"  horiz-adv-x="1067" vert-adv-y="2048"  />

      
      <glyph glyph-name="unic9" unicode="&#xc9;" d="M829 0L102 0L412 1462L1139 1462L1118 1368L494 1368L377 815L967 815L946 721L358 721L223 94L850 94L829 0M654 1600Q720 1651 804.50 1742Q889 1833 934 1907L1071 1907L1071 1884Q1020 1818 913.50 1725.50Q807 1633 721 1579L654 1579L654 1600Z"  horiz-adv-x="1067" vert-adv-y="2048"  />

      
      <glyph glyph-name="unica" unicode="&#xca;" d="M829 0L102 0L412 1462L1139 1462L1118 1368L494 1368L377 815L967 815L946 721L358 721L223 94L850 94L829 0M1036 1579L987 1579Q917 1639 826 1786Q771 1729 701 1671.50Q631 1614 576 1579L522 1579L522 1608Q590 1664 679.50 1756.50Q769 1849 807 1907L871 1907Q894 1843 943.50 1754.50Q993 1666 1036 1608L1036 1579Z"  horiz-adv-x="1067" vert-adv-y="2048"  />

      
      <glyph glyph-name="unicb" unicode="&#xcb;" d="M829 0L102 0L412 1462L1139 1462L1118 1368L494 1368L377 815L967 815L946 721L358 721L223 94L850 94L829 0M902 1704Q902 1753 922.50 1782Q943 1811 979 1811Q1033 1811 1033 1747Q1033 1699 1012 1670Q991 1641 957 1641Q902 1641 902 1704M558 1704Q558 1753 578.50 1782Q599 1811 635 1811Q689 1811 689 1747Q689 1699 668 1670Q647 1641 613 1641Q558 1641 558 1704Z"  horiz-adv-x="1067" vert-adv-y="2048"  />

      
      <glyph glyph-name="unid0" unicode="&#xd0;" d="M1288 879Q1288 626 1178.50 417.50Q1069 209 878 104.50Q687 0 432 0L102 0L246 676L90 676L111 772L266 772L412 1462L717 1462Q999 1462 1143.50 1314.50Q1288 1167 1288 879M430 90Q656 90 824.50 184.50Q993 279 1085.50 460Q1178 641 1178 872Q1178 1370 702 1370L496 1370L367 772L745 772L725 676L346 676L221 90L430 90Z"  horiz-adv-x="1352" vert-adv-y="2048"  />

      
      <glyph glyph-name="unid1" unicode="&#xd1;" d="M1069 0L983 0L467 1284L459 1284Q436 1135 411 1011Q386 887 197 0L102 0L412 1462L492 1462L1014 168L1022 168Q1045 344 1096 584L1284 1462L1378 1462L1069 0M1062 1587Q1022 1587 984.50 1606Q947 1625 909 1651Q875 1674 844.50 1692Q814 1710 776 1710Q731 1710 702 1681.50Q673 1653 651 1581L577 1581Q596 1689 648 1747.50Q700 1806 782 1806Q823 1806 855.50 1792Q888 1778 973 1720Q1025 1684 1067 1684Q1110 1684 1138.50 1714.50Q1167 1745 1185 1815L1261 1815Q1235 1697 1186.50 1642Q1138 1587 1062 1587Z"  horiz-adv-x="1372" vert-adv-y="2048"  />

      
      <glyph glyph-name="unid2" unicode="&#xd2;" d="M1403 911Q1403 656 1309 429.50Q1215 203 1057 91.50Q899-20 692-20Q442-20 307 129Q172 278 172 559Q172 821 265 1036.50Q358 1252 520 1367.50Q682 1483 893 1483Q1140 1483 1271.50 1334.50Q1403 1186 1403 911M879 1389Q705 1389 570.50 1288Q436 1187 356 990Q276 793 276 573Q276 328 385.50 200Q495 72 705 72Q874 72 1005 170.50Q1136 269 1215 470.50Q1294 672 1294 901Q1294 1141 1189.50 1265Q1085 1389 879 1389M989 1579L923 1579Q873 1631 809 1723.50Q745 1816 710 1886L710 1907L825 1907Q871 1778 989 1604L989 1579Z"  horiz-adv-x="1464" vert-adv-y="2048"  />

      
      <glyph glyph-name="unid3" unicode="&#xd3;" d="M1403 911Q1403 656 1309 429.50Q1215 203 1057 91.50Q899-20 692-20Q442-20 307 129Q172 278 172 559Q172 821 265 1036.50Q358 1252 520 1367.50Q682 1483 893 1483Q1140 1483 1271.50 1334.50Q1403 1186 1403 911M879 1389Q705 1389 570.50 1288Q436 1187 356 990Q276 793 276 573Q276 328 385.50 200Q495 72 705 72Q874 72 1005 170.50Q1136 269 1215 470.50Q1294 672 1294 901Q1294 1141 1189.50 1265Q1085 1389 879 1389M844 1600Q910 1651 994.50 1742Q1079 1833 1124 1907L1261 1907L1261 1884Q1210 1818 1103.50 1725.50Q997 1633 911 1579L844 1579L844 1600Z"  horiz-adv-x="1464" vert-adv-y="2048"  />

      
      <glyph glyph-name="unid4" unicode="&#xd4;" d="M1403 911Q1403 656 1309 429.50Q1215 203 1057 91.50Q899-20 692-20Q442-20 307 129Q172 278 172 559Q172 821 265 1036.50Q358 1252 520 1367.50Q682 1483 893 1483Q1140 1483 1271.50 1334.50Q1403 1186 1403 911M879 1389Q705 1389 570.50 1288Q436 1187 356 990Q276 793 276 573Q276 328 385.50 200Q495 72 705 72Q874 72 1005 170.50Q1136 269 1215 470.50Q1294 672 1294 901Q1294 1141 1189.50 1265Q1085 1389 879 1389M1171 1579L1122 1579Q1052 1639 961 1786Q906 1729 836 1671.50Q766 1614 711 1579L657 1579L657 1608Q725 1664 814.50 1756.50Q904 1849 942 1907L1006 1907Q1029 1843 1078.50 1754.50Q1128 1666 1171 1608L1171 1579Z"  horiz-adv-x="1464" vert-adv-y="2048"  />

      
      <glyph glyph-name="unid5" unicode="&#xd5;" d="M1403 911Q1403 656 1309 429.50Q1215 203 1057 91.50Q899-20 692-20Q442-20 307 129Q172 278 172 559Q172 821 265 1036.50Q358 1252 520 1367.50Q682 1483 893 1483Q1140 1483 1271.50 1334.50Q1403 1186 1403 911M879 1389Q705 1389 570.50 1288Q436 1187 356 990Q276 793 276 573Q276 328 385.50 200Q495 72 705 72Q874 72 1005 170.50Q1136 269 1215 470.50Q1294 672 1294 901Q1294 1141 1189.50 1265Q1085 1389 879 1389M1077 1587Q1037 1587 999.50 1606Q962 1625 924 1651Q890 1674 859.50 1692Q829 1710 791 1710Q746 1710 717 1681.50Q688 1653 666 1581L592 1581Q611 1689 663 1747.50Q715 1806 797 1806Q838 1806 870.50 1792Q903 1778 988 1720Q1040 1684 1082 1684Q1125 1684 1153.50 1714.50Q1182 1745 1200 1815L1276 1815Q1250 1697 1201.50 1642Q1153 1587 1077 1587Z"  horiz-adv-x="1464" vert-adv-y="2048"  />

      
      <glyph glyph-name="unid6" unicode="&#xd6;" d="M1403 911Q1403 656 1309 429.50Q1215 203 1057 91.50Q899-20 692-20Q442-20 307 129Q172 278 172 559Q172 821 265 1036.50Q358 1252 520 1367.50Q682 1483 893 1483Q1140 1483 1271.50 1334.50Q1403 1186 1403 911M879 1389Q705 1389 570.50 1288Q436 1187 356 990Q276 793 276 573Q276 328 385.50 200Q495 72 705 72Q874 72 1005 170.50Q1136 269 1215 470.50Q1294 672 1294 901Q1294 1141 1189.50 1265Q1085 1389 879 1389M1031 1704Q1031 1753 1051.50 1782Q1072 1811 1108 1811Q1162 1811 1162 1747Q1162 1699 1141 1670Q1120 1641 1086 1641Q1031 1641 1031 1704M687 1704Q687 1753 707.50 1782Q728 1811 764 1811Q818 1811 818 1747Q818 1699 797 1670Q776 1641 742 1641Q687 1641 687 1704Z"  horiz-adv-x="1464" vert-adv-y="2048"  />

      
      <glyph glyph-name="unid7" unicode="&#xd7;" d="M551 723L221 1055L291 1124L621 795L954 1124L1022 1057L690 723L1022 391L954 324L621 653L291 326L223 393L551 723Z"  horiz-adv-x="1128" vert-adv-y="2048"  />

      
      <glyph glyph-name="unid8" unicode="&#xd8;" d="M1403 911Q1403 724 1351 545.50Q1299 367 1206.50 241Q1114 115 983.50 47.50Q853-20 692-20Q477-20 344 92L205-78L139-14L285 158Q172 307 172 559Q172 822 266 1038.50Q360 1255 522.50 1369Q685 1483 893 1483Q1112 1483 1245 1362L1378 1530L1448 1477L1303 1294Q1348 1243 1375.50 1133Q1403 1023 1403 911M879 1389Q745 1389 635 1329.50Q525 1270 446.50 1159.50Q368 1049 322 892Q276 735 276 573Q276 468 297.50 382Q319 296 354 244L1180 1276Q1073 1389 879 1389M1294 901Q1294 986 1276.50 1073Q1259 1160 1233 1202L412 172Q519 72 705 72Q875 72 1006 172Q1137 272 1215.50 468.50Q1294 665 1294 901Z"  horiz-adv-x="1464" vert-adv-y="2048"  />

      
      <glyph glyph-name="unid9" unicode="&#xd9;" d="M1395 1462L1188 485Q1130 215 991 97.50Q852-20 616-20Q176-20 176 381Q176 464 203 582L389 1462L492 1462L299 563Q279 474 279 379Q279 70 621 70Q816 70 928.50 166.50Q1041 263 1087 485L1294 1462L1395 1462M946 1579L880 1579Q830 1631 766 1723.50Q702 1816 667 1886L667 1907L782 1907Q828 1778 946 1604L946 1579Z"  horiz-adv-x="1370" vert-adv-y="2048"  />

      
      <glyph glyph-name="unida" unicode="&#xda;" d="M1395 1462L1188 485Q1130 215 991 97.50Q852-20 616-20Q176-20 176 381Q176 464 203 582L389 1462L492 1462L299 563Q279 474 279 379Q279 70 621 70Q816 70 928.50 166.50Q1041 263 1087 485L1294 1462L1395 1462M838 1600Q904 1651 988.50 1742Q1073 1833 1118 1907L1255 1907L1255 1884Q1204 1818 1097.50 1725.50Q991 1633 905 1579L838 1579L838 1600Z"  horiz-adv-x="1370" vert-adv-y="2048"  />

      
      <glyph glyph-name="unidb" unicode="&#xdb;" d="M1395 1462L1188 485Q1130 215 991 97.50Q852-20 616-20Q176-20 176 381Q176 464 203 582L389 1462L492 1462L299 563Q279 474 279 379Q279 70 621 70Q816 70 928.50 166.50Q1041 263 1087 485L1294 1462L1395 1462M1148 1579L1099 1579Q1029 1639 938 1786Q883 1729 813 1671.50Q743 1614 688 1579L634 1579L634 1608Q702 1664 791.50 1756.50Q881 1849 919 1907L983 1907Q1006 1843 1055.50 1754.50Q1105 1666 1148 1608L1148 1579Z"  horiz-adv-x="1370" vert-adv-y="2048"  />

      
      <glyph glyph-name="unidc" unicode="&#xdc;" d="M1395 1462L1188 485Q1130 215 991 97.50Q852-20 616-20Q176-20 176 381Q176 464 203 582L389 1462L492 1462L299 563Q279 474 279 379Q279 70 621 70Q816 70 928.50 166.50Q1041 263 1087 485L1294 1462L1395 1462M1022 1704Q1022 1753 1042.50 1782Q1063 1811 1099 1811Q1153 1811 1153 1747Q1153 1699 1132 1670Q1111 1641 1077 1641Q1022 1641 1022 1704M678 1704Q678 1753 698.50 1782Q719 1811 755 1811Q809 1811 809 1747Q809 1699 788 1670Q767 1641 733 1641Q678 1641 678 1704Z"  horiz-adv-x="1370" vert-adv-y="2048"  />

      
      <glyph glyph-name="unidd" unicode="&#xdd;" d="M494 645L1038 1462L1155 1462L524 530L416 0L311 0L430 545L193 1462L293 1462L494 645M563 1600Q629 1651 713.50 1742Q798 1833 843 1907L980 1907L980 1884Q929 1818 822.50 1725.50Q716 1633 630 1579L563 1579L563 1600Z"  horiz-adv-x="965" vert-adv-y="2048"  />

      
      <glyph glyph-name="unide" unicode="&#xde;" d="M1087 836Q1087 589 934 462.50Q781 336 477 336L276 336L205 0L102 0L412 1462L514 1462L457 1196L670 1196Q870 1196 978.50 1103.50Q1087 1011 1087 836M293 428L483 428Q739 428 859 526.50Q979 625 979 829Q979 1104 649 1104L438 1104L293 428Z"  horiz-adv-x="1145" vert-adv-y="2048"  />

      
      <glyph glyph-name="unidf" unicode="&#xdf;" d="M-162-492Q-235-492-281-469L-281-379Q-228-403-166-403Q-87-403-43-352.50Q1-302 23-199L328 1210Q408 1567 733 1567Q870 1567 948 1505.50Q1026 1444 1026 1331Q1026 1256 981.50 1190.50Q937 1125 815 1042Q708 966 673.50 917.50Q639 869 639 811Q639 760 673 722.50Q707 685 766 647Q862 584 904 513.50Q946 443 946 348Q946 178 839.50 79Q733-20 553-20Q410-20 319 45L319 154Q364 118 431.50 95Q499 72 561 72Q693 72 769.50 143Q846 214 846 338Q846 413 814.50 467Q783 521 705 575Q623 633 586 685.50Q549 738 549 807Q549 864 570 910Q591 956 630.50 998.50Q670 1041 768 1112Q869 1182 899.50 1228Q930 1274 930 1329Q930 1399 875 1439Q820 1479 725 1479Q596 1479 520 1403Q444 1327 412 1174L121-203Q88-355 17.50-423.50Q-53-492-162-492Z"  horiz-adv-x="1094" vert-adv-y="2048"  />

      
      <glyph glyph-name="unie0" unicode="&#xe0;" d="M655 1104Q887 1104 934 885L940 885L999 1087L1079 1087L850 0L768 0L813 274L807 274Q723 132 620 56Q517-20 383-20Q102-20 102 354Q102 551 177 730Q252 909 377.50 1006.50Q503 1104 655 1104M406 70Q495 70 583.50 132Q672 194 742.50 298Q813 402 850 528Q887 654 887 741Q887 820 861 882.50Q835 945 784 981.50Q733 1018 657 1018Q533 1018 433 936Q333 854 269 690.50Q205 527 205 365Q205 213 255 141.50Q305 70 406 70M809 1241L743 1241Q693 1293 629 1385.50Q565 1478 530 1548L530 1569L645 1569Q691 1440 809 1266L809 1241Z"  horiz-adv-x="1133" vert-adv-y="2048"  />

      
      <glyph glyph-name="unie1" unicode="&#xe1;" d="M655 1104Q887 1104 934 885L940 885L999 1087L1079 1087L850 0L768 0L813 274L807 274Q723 132 620 56Q517-20 383-20Q102-20 102 354Q102 551 177 730Q252 909 377.50 1006.50Q503 1104 655 1104M406 70Q495 70 583.50 132Q672 194 742.50 298Q813 402 850 528Q887 654 887 741Q887 820 861 882.50Q835 945 784 981.50Q733 1018 657 1018Q533 1018 433 936Q333 854 269 690.50Q205 527 205 365Q205 213 255 141.50Q305 70 406 70M586 1262Q652 1313 736.50 1404Q821 1495 866 1569L1003 1569L1003 1546Q952 1480 845.50 1387.50Q739 1295 653 1241L586 1241L586 1262Z"  horiz-adv-x="1133" vert-adv-y="2048"  />

      
      <glyph glyph-name="unie2" unicode="&#xe2;" d="M655 1104Q887 1104 934 885L940 885L999 1087L1079 1087L850 0L768 0L813 274L807 274Q723 132 620 56Q517-20 383-20Q102-20 102 354Q102 551 177 730Q252 909 377.50 1006.50Q503 1104 655 1104M406 70Q495 70 583.50 132Q672 194 742.50 298Q813 402 850 528Q887 654 887 741Q887 820 861 882.50Q835 945 784 981.50Q733 1018 657 1018Q533 1018 433 936Q333 854 269 690.50Q205 527 205 365Q205 213 255 141.50Q305 70 406 70M955 1243L906 1243Q836 1303 745 1450Q690 1393 620 1335.50Q550 1278 495 1243L441 1243L441 1272Q509 1328 598.50 1420.50Q688 1513 726 1571L790 1571Q813 1507 862.50 1418.50Q912 1330 955 1272L955 1243Z"  horiz-adv-x="1133" vert-adv-y="2048"  />

      
      <glyph glyph-name="unie3" unicode="&#xe3;" d="M655 1104Q887 1104 934 885L940 885L999 1087L1079 1087L850 0L768 0L813 274L807 274Q723 132 620 56Q517-20 383-20Q102-20 102 354Q102 551 177 730Q252 909 377.50 1006.50Q503 1104 655 1104M406 70Q495 70 583.50 132Q672 194 742.50 298Q813 402 850 528Q887 654 887 741Q887 820 861 882.50Q835 945 784 981.50Q733 1018 657 1018Q533 1018 433 936Q333 854 269 690.50Q205 527 205 365Q205 213 255 141.50Q305 70 406 70M858 1249Q818 1249 780.50 1268Q743 1287 705 1313Q671 1336 640.50 1354Q610 1372 572 1372Q527 1372 498 1343.50Q469 1315 447 1243L373 1243Q392 1351 444 1409.50Q496 1468 578 1468Q619 1468 651.50 1454Q684 1440 769 1382Q821 1346 863 1346Q906 1346 934.50 1376.50Q963 1407 981 1477L1057 1477Q1031 1359 982.50 1304Q934 1249 858 1249Z"  horiz-adv-x="1133" vert-adv-y="2048"  />

      
      <glyph glyph-name="unie4" unicode="&#xe4;" d="M655 1104Q887 1104 934 885L940 885L999 1087L1079 1087L850 0L768 0L813 274L807 274Q723 132 620 56Q517-20 383-20Q102-20 102 354Q102 551 177 730Q252 909 377.50 1006.50Q503 1104 655 1104M406 70Q495 70 583.50 132Q672 194 742.50 298Q813 402 850 528Q887 654 887 741Q887 820 861 882.50Q835 945 784 981.50Q733 1018 657 1018Q533 1018 433 936Q333 854 269 690.50Q205 527 205 365Q205 213 255 141.50Q305 70 406 70M835 1366Q835 1415 855.50 1444Q876 1473 912 1473Q966 1473 966 1409Q966 1361 945 1332Q924 1303 890 1303Q835 1303 835 1366M491 1366Q491 1415 511.50 1444Q532 1473 568 1473Q622 1473 622 1409Q622 1361 601 1332Q580 1303 546 1303Q491 1303 491 1366Z"  horiz-adv-x="1133" vert-adv-y="2048"  />

      
      <glyph glyph-name="unie5" unicode="&#xe5;" d="M655 1104Q887 1104 934 885L940 885L999 1087L1079 1087L850 0L768 0L813 274L807 274Q723 132 620 56Q517-20 383-20Q102-20 102 354Q102 551 177 730Q252 909 377.50 1006.50Q503 1104 655 1104M406 70Q495 70 583.50 132Q672 194 742.50 298Q813 402 850 528Q887 654 887 741Q887 820 861 882.50Q835 945 784 981.50Q733 1018 657 1018Q533 1018 433 936Q333 854 269 690.50Q205 527 205 365Q205 213 255 141.50Q305 70 406 70M927 1448Q927 1356 869.50 1299.50Q812 1243 724 1243Q631 1243 576 1295Q521 1347 521 1440Q521 1528 580.50 1584Q640 1640 730 1640Q818 1640 872.50 1590Q927 1540 927 1448M849 1446Q849 1503 815.50 1536Q782 1569 728 1569Q668 1569 634.50 1533Q601 1497 601 1440Q601 1383 634 1350Q667 1317 724 1317Q780 1317 814.50 1353Q849 1389 849 1446Z"  horiz-adv-x="1133" vert-adv-y="2048"  />

      
      <glyph glyph-name="unie6" unicode="&#xe6;" d="M1155-20Q1032-20 944 40Q856 100 827 205L788 0L711 0L752 254L743 254Q649 112 554 46Q459-20 346-20Q226-20 164 74Q102 168 102 344Q102 550 172.50 728.50Q243 907 365 1005.50Q487 1104 639 1104Q745 1104 805 1047.50Q865 991 879 891L889 891L948 1083L1014 1083L979 897Q1118 1104 1329 1104Q1441 1104 1504 1042.50Q1567 981 1567 870Q1567 691 1408.50 598.50Q1250 506 938 506L899 506Q891 455 891 410Q891 249 960.50 159.50Q1030 70 1178 70Q1247 70 1311.50 91Q1376 112 1442 143L1442 49Q1362 12 1295-4Q1228-20 1155-20M369 70Q436 70 507.50 112Q579 154 641.50 229.50Q704 305 747.50 400Q791 495 811 599Q831 703 831 764Q831 882 782 950Q733 1018 641 1018Q518 1018 418 932Q318 846 261.50 692Q205 538 205 352Q205 202 247.50 136Q290 70 369 70M1317 1018Q1198 1018 1085 902.50Q972 787 913 594L961 594Q1224 594 1344 661Q1464 728 1464 864Q1464 935 1425.50 976.50Q1387 1018 1317 1018Z"  horiz-adv-x="1602" vert-adv-y="2048"  />

      
      <glyph glyph-name="unie7" unicode="&#xe7;" d="M477-20Q303-20 202.50 90.50Q102 201 102 397Q102 590 175.50 758.50Q249 927 374 1015.50Q499 1104 664 1104Q798 1104 905 1061L877 971Q770 1018 659 1018Q530 1018 426.50 941Q323 864 264 719Q205 574 205 399Q205 241 278.50 155.50Q352 70 487 70Q558 70 618.50 83Q679 96 750 129L750 37Q634-20 477-20M574-289Q574-383 498.50-437.50Q423-492 281-492Q235-492 203-485L203-406Q233-412 275-412Q473-412 473-297Q473-200 322-190L432 0L512 0L434-137Q574-167 574-289Z"  horiz-adv-x="887" vert-adv-y="2048"  />

      
      <glyph glyph-name="unie8" unicode="&#xe8;" d="M469-20Q296-20 199 89.50Q102 199 102 395Q102 576 173 742Q244 908 368.50 1006Q493 1104 643 1104Q757 1104 825 1043Q893 982 893 877Q893 696 729.50 601Q566 506 244 506L211 506Q205 462 205 408Q205 243 279 156.50Q353 70 492 70Q624 70 768 143L768 49Q628-20 469-20M631 1018Q500 1018 387.50 902.50Q275 787 225 594L274 594Q791 594 791 864Q791 931 747.50 974.50Q704 1018 631 1018M751 1241L685 1241Q635 1293 571 1385.50Q507 1478 472 1548L472 1569L587 1569Q633 1440 751 1266L751 1241Z"  horiz-adv-x="928" vert-adv-y="2048"  />

      
      <glyph glyph-name="unie9" unicode="&#xe9;" d="M469-20Q296-20 199 89.50Q102 199 102 395Q102 576 173 742Q244 908 368.50 1006Q493 1104 643 1104Q757 1104 825 1043Q893 982 893 877Q893 696 729.50 601Q566 506 244 506L211 506Q205 462 205 408Q205 243 279 156.50Q353 70 492 70Q624 70 768 143L768 49Q628-20 469-20M631 1018Q500 1018 387.50 902.50Q275 787 225 594L274 594Q791 594 791 864Q791 931 747.50 974.50Q704 1018 631 1018M532 1262Q598 1313 682.50 1404Q767 1495 812 1569L949 1569L949 1546Q898 1480 791.50 1387.50Q685 1295 599 1241L532 1241L532 1262Z"  horiz-adv-x="928" vert-adv-y="2048"  />

      
      <glyph glyph-name="uniea" unicode="&#xea;" d="M469-20Q296-20 199 89.50Q102 199 102 395Q102 576 173 742Q244 908 368.50 1006Q493 1104 643 1104Q757 1104 825 1043Q893 982 893 877Q893 696 729.50 601Q566 506 244 506L211 506Q205 462 205 408Q205 243 279 156.50Q353 70 492 70Q624 70 768 143L768 49Q628-20 469-20M631 1018Q500 1018 387.50 902.50Q275 787 225 594L274 594Q791 594 791 864Q791 931 747.50 974.50Q704 1018 631 1018M904 1241L855 1241Q785 1301 694 1448Q639 1391 569 1333.50Q499 1276 444 1241L390 1241L390 1270Q458 1326 547.50 1418.50Q637 1511 675 1569L739 1569Q762 1505 811.50 1416.50Q861 1328 904 1270L904 1241Z"  horiz-adv-x="928" vert-adv-y="2048"  />

      
      <glyph glyph-name="unieb" unicode="&#xeb;" d="M469-20Q296-20 199 89.50Q102 199 102 395Q102 576 173 742Q244 908 368.50 1006Q493 1104 643 1104Q757 1104 825 1043Q893 982 893 877Q893 696 729.50 601Q566 506 244 506L211 506Q205 462 205 408Q205 243 279 156.50Q353 70 492 70Q624 70 768 143L768 49Q628-20 469-20M631 1018Q500 1018 387.50 902.50Q275 787 225 594L274 594Q791 594 791 864Q791 931 747.50 974.50Q704 1018 631 1018M780 1366Q780 1415 800.50 1444Q821 1473 857 1473Q911 1473 911 1409Q911 1361 890 1332Q869 1303 835 1303Q780 1303 780 1366M436 1366Q436 1415 456.50 1444Q477 1473 513 1473Q567 1473 567 1409Q567 1361 546 1332Q525 1303 491 1303Q436 1303 436 1366Z"  horiz-adv-x="928" vert-adv-y="2048"  />

      
      <glyph glyph-name="uniec" unicode="&#xec;" d="M174 0L76 0L307 1087L403 1087L174 0M454 1241L388 1241Q338 1293 274 1385.50Q210 1478 175 1548L175 1569L290 1569Q336 1440 454 1266L454 1241Z"  horiz-adv-x="475" vert-adv-y="2048"  />

      
      <glyph glyph-name="unied" unicode="&#xed;" d="M174 0L76 0L307 1087L403 1087L174 0M284 1262Q350 1313 434.50 1404Q519 1495 564 1569L701 1569L701 1546Q650 1480 543.50 1387.50Q437 1295 351 1241L284 1241L284 1262Z"  horiz-adv-x="475" vert-adv-y="2048"  />

      
      <glyph glyph-name="uniee" unicode="&#xee;" d="M174 0L76 0L307 1087L403 1087L174 0M642 1241L593 1241Q523 1301 432 1448Q377 1391 307 1333.50Q237 1276 182 1241L128 1241L128 1270Q196 1326 285.50 1418.50Q375 1511 413 1569L477 1569Q500 1505 549.50 1416.50Q599 1328 642 1270L642 1241Z"  horiz-adv-x="475" vert-adv-y="2048"  />

      
      <glyph glyph-name="unief" unicode="&#xef;" d="M174 0L76 0L307 1087L403 1087L174 0M515 1366Q515 1415 535.50 1444Q556 1473 592 1473Q646 1473 646 1409Q646 1361 625 1332Q604 1303 570 1303Q515 1303 515 1366M171 1366Q171 1415 191.50 1444Q212 1473 248 1473Q302 1473 302 1409Q302 1361 281 1332Q260 1303 226 1303Q171 1303 171 1366Z"  horiz-adv-x="475" vert-adv-y="2048"  />

      
      <glyph glyph-name="unif0" unicode="&#xf0;" d="M713 1364Q659 1424 555 1503L614 1571Q646 1545 695 1505Q744 1465 795 1411L1061 1561L1100 1487L844 1346Q931 1230 975.50 1070Q1020 910 1020 735Q1020 380 878.50 180Q737-20 479-20Q302-20 202 86.50Q102 193 102 381Q102 551 165 682.50Q228 814 343.50 886Q459 958 606 958Q713 958 794 908.50Q875 859 915 766L920 766Q920 905 877 1055Q834 1205 762 1298L467 1135L428 1208L713 1364M489 70Q607 70 697.50 131Q788 192 841.50 317.50Q895 443 895 588Q895 665 860 730Q825 795 760 831.50Q695 868 604 868Q480 868 390.50 806.50Q301 745 253 637Q205 529 205 389Q205 236 278.50 153Q352 70 489 70Z"  horiz-adv-x="1124" vert-adv-y="2048"  />

      
      <glyph glyph-name="unif1" unicode="&#xf1;" d="M764 0L913 692Q934 784 934 848Q934 928 890.50 973Q847 1018 756 1018Q644 1018 545.50 951Q447 884 379.50 763.50Q312 643 276 477L174 0L76 0L307 1087L389 1087L352 866L358 866Q522 1104 774 1104Q904 1104 969 1040Q1034 976 1034 856Q1034 786 1010 674L862 0L764 0M874 1249Q834 1249 796.50 1268Q759 1287 721 1313Q687 1336 656.50 1354Q626 1372 588 1372Q543 1372 514 1343.50Q485 1315 463 1243L389 1243Q408 1351 460 1409.50Q512 1468 594 1468Q635 1468 667.50 1454Q700 1440 785 1382Q837 1346 879 1346Q922 1346 950.50 1376.50Q979 1407 997 1477L1073 1477Q1047 1359 998.50 1304Q950 1249 874 1249Z"  horiz-adv-x="1143" vert-adv-y="2048"  />

      
      <glyph glyph-name="unif2" unicode="&#xf2;" d="M649 1108Q829 1108 927.50 999.50Q1026 891 1026 700Q1026 503 954.50 331.50Q883 160 759 70Q635-20 473-20Q289-20 193.50 89.50Q98 199 98 403Q98 594 171 761Q244 928 368 1018Q492 1108 649 1108M641 1022Q517 1022 418 943.50Q319 865 260 718.50Q201 572 201 408Q201 66 483 66Q610 66 708.50 143.50Q807 221 865.50 371.50Q924 522 924 702Q924 856 851 939Q778 1022 641 1022M744 1241L678 1241Q628 1293 564 1385.50Q500 1478 465 1548L465 1569L580 1569Q626 1440 744 1266L744 1241Z"  horiz-adv-x="1124" vert-adv-y="2048"  />

      
      <glyph glyph-name="unif3" unicode="&#xf3;" d="M649 1108Q829 1108 927.50 999.50Q1026 891 1026 700Q1026 503 954.50 331.50Q883 160 759 70Q635-20 473-20Q289-20 193.50 89.50Q98 199 98 403Q98 594 171 761Q244 928 368 1018Q492 1108 649 1108M641 1022Q517 1022 418 943.50Q319 865 260 718.50Q201 572 201 408Q201 66 483 66Q610 66 708.50 143.50Q807 221 865.50 371.50Q924 522 924 702Q924 856 851 939Q778 1022 641 1022M573 1262Q639 1313 723.50 1404Q808 1495 853 1569L990 1569L990 1546Q939 1480 832.50 1387.50Q726 1295 640 1241L573 1241L573 1262Z"  horiz-adv-x="1124" vert-adv-y="2048"  />

      
      <glyph glyph-name="unif4" unicode="&#xf4;" d="M649 1108Q829 1108 927.50 999.50Q1026 891 1026 700Q1026 503 954.50 331.50Q883 160 759 70Q635-20 473-20Q289-20 193.50 89.50Q98 199 98 403Q98 594 171 761Q244 928 368 1018Q492 1108 649 1108M641 1022Q517 1022 418 943.50Q319 865 260 718.50Q201 572 201 408Q201 66 483 66Q610 66 708.50 143.50Q807 221 865.50 371.50Q924 522 924 702Q924 856 851 939Q778 1022 641 1022M941 1241L892 1241Q822 1301 731 1448Q676 1391 606 1333.50Q536 1276 481 1241L427 1241L427 1270Q495 1326 584.50 1418.50Q674 1511 712 1569L776 1569Q799 1505 848.50 1416.50Q898 1328 941 1270L941 1241Z"  horiz-adv-x="1124" vert-adv-y="2048"  />

      
      <glyph glyph-name="unif5" unicode="&#xf5;" d="M649 1108Q829 1108 927.50 999.50Q1026 891 1026 700Q1026 503 954.50 331.50Q883 160 759 70Q635-20 473-20Q289-20 193.50 89.50Q98 199 98 403Q98 594 171 761Q244 928 368 1018Q492 1108 649 1108M641 1022Q517 1022 418 943.50Q319 865 260 718.50Q201 572 201 408Q201 66 483 66Q610 66 708.50 143.50Q807 221 865.50 371.50Q924 522 924 702Q924 856 851 939Q778 1022 641 1022M839 1249Q799 1249 761.50 1268Q724 1287 686 1313Q652 1336 621.50 1354Q591 1372 553 1372Q508 1372 479 1343.50Q450 1315 428 1243L354 1243Q373 1351 425 1409.50Q477 1468 559 1468Q600 1468 632.50 1454Q665 1440 750 1382Q802 1346 844 1346Q887 1346 915.50 1376.50Q944 1407 962 1477L1038 1477Q1012 1359 963.50 1304Q915 1249 839 1249Z"  horiz-adv-x="1124" vert-adv-y="2048"  />

      
      <glyph glyph-name="unif6" unicode="&#xf6;" d="M649 1108Q829 1108 927.50 999.50Q1026 891 1026 700Q1026 503 954.50 331.50Q883 160 759 70Q635-20 473-20Q289-20 193.50 89.50Q98 199 98 403Q98 594 171 761Q244 928 368 1018Q492 1108 649 1108M641 1022Q517 1022 418 943.50Q319 865 260 718.50Q201 572 201 408Q201 66 483 66Q610 66 708.50 143.50Q807 221 865.50 371.50Q924 522 924 702Q924 856 851 939Q778 1022 641 1022M812 1366Q812 1415 832.50 1444Q853 1473 889 1473Q943 1473 943 1409Q943 1361 922 1332Q901 1303 867 1303Q812 1303 812 1366M468 1366Q468 1415 488.50 1444Q509 1473 545 1473Q599 1473 599 1409Q599 1361 578 1332Q557 1303 523 1303Q468 1303 468 1366Z"  horiz-adv-x="1124" vert-adv-y="2048"  />

      
      <glyph glyph-name="unif7" unicode="&#xf7;" d="M168 672L168 772L1071 772L1071 672L168 672M522 373Q522 479 618 479Q666 479 691.50 451.50Q717 424 717 373Q717 316 688 291Q659 266 618 266Q522 266 522 373M522 1071Q522 1178 618 1178Q664 1178 690.50 1150.50Q717 1123 717 1071Q717 1014 688 989.50Q659 965 618 965Q522 965 522 1071Z"  horiz-adv-x="1128" vert-adv-y="2048"  />

      
      <glyph glyph-name="unif8" unicode="&#xf8;" d="M164 127Q98 233 98 403Q98 594 171 761Q244 928 368 1018Q492 1108 649 1108Q799 1108 899 1026L1008 1159L1073 1106L956 963Q1026 858 1026 700Q1026 503 954.50 331.50Q883 160 759 70Q635-20 473-20Q310-20 219 63L109-72L45-18L164 127M924 702Q924 803 889 881L281 139Q348 66 483 66Q610 66 708.50 143.50Q807 221 865.50 371.50Q924 522 924 702M641 1022Q517 1022 418 943.50Q319 865 260 718.50Q201 572 201 408Q201 283 233 211L838 950Q764 1022 641 1022Z"  horiz-adv-x="1124" vert-adv-y="2048"  />

      
      <glyph glyph-name="unif9" unicode="&#xf9;" d="M381 1087L229 389Q207 283 207 231Q207 157 254.50 113.50Q302 70 393 70Q503 70 600.50 135.50Q698 201 764.50 322.50Q831 444 864 602L969 1087L1067 1087L836 0L756 0L784 205L778 205Q611-16 375-16Q244-16 176.50 46Q109 108 109 227Q109 287 131 397L281 1087L381 1087M774 1241L708 1241Q658 1293 594 1385.50Q530 1478 495 1548L495 1569L610 1569Q656 1440 774 1266L774 1241Z"  horiz-adv-x="1143" vert-adv-y="2048"  />

      
      <glyph glyph-name="unifa" unicode="&#xfa;" d="M381 1087L229 389Q207 283 207 231Q207 157 254.50 113.50Q302 70 393 70Q503 70 600.50 135.50Q698 201 764.50 322.50Q831 444 864 602L969 1087L1067 1087L836 0L756 0L784 205L778 205Q611-16 375-16Q244-16 176.50 46Q109 108 109 227Q109 287 131 397L281 1087L381 1087M627 1262Q693 1313 777.50 1404Q862 1495 907 1569L1044 1569L1044 1546Q993 1480 886.50 1387.50Q780 1295 694 1241L627 1241L627 1262Z"  horiz-adv-x="1143" vert-adv-y="2048"  />

      
      <glyph glyph-name="unifb" unicode="&#xfb;" d="M381 1087L229 389Q207 283 207 231Q207 157 254.50 113.50Q302 70 393 70Q503 70 600.50 135.50Q698 201 764.50 322.50Q831 444 864 602L969 1087L1067 1087L836 0L756 0L784 205L778 205Q611-16 375-16Q244-16 176.50 46Q109 108 109 227Q109 287 131 397L281 1087L381 1087M957 1241L908 1241Q838 1301 747 1448Q692 1391 622 1333.50Q552 1276 497 1241L443 1241L443 1270Q511 1326 600.50 1418.50Q690 1511 728 1569L792 1569Q815 1505 864.50 1416.50Q914 1328 957 1270L957 1241Z"  horiz-adv-x="1143" vert-adv-y="2048"  />

      
      <glyph glyph-name="unifc" unicode="&#xfc;" d="M381 1087L229 389Q207 283 207 231Q207 157 254.50 113.50Q302 70 393 70Q503 70 600.50 135.50Q698 201 764.50 322.50Q831 444 864 602L969 1087L1067 1087L836 0L756 0L784 205L778 205Q611-16 375-16Q244-16 176.50 46Q109 108 109 227Q109 287 131 397L281 1087L381 1087M827 1366Q827 1415 847.50 1444Q868 1473 904 1473Q958 1473 958 1409Q958 1361 937 1332Q916 1303 882 1303Q827 1303 827 1366M483 1366Q483 1415 503.50 1444Q524 1473 560 1473Q614 1473 614 1409Q614 1361 593 1332Q572 1303 538 1303Q483 1303 483 1366Z"  horiz-adv-x="1143" vert-adv-y="2048"  />

      
      <glyph glyph-name="unifd" unicode="&#xfd;" d="M123 1087L223 1087L305 539Q356 188 360 90L371 90Q414 195 557 457L905 1087L1008 1087L295-203Q223-330 172.50-381Q122-432 58.50-462Q-5-492-88-492Q-156-492-217-471L-217-379Q-146-406-80-406Q0-406 67-356.50Q134-307 197-192Q260-77 297-8L123 1087M505 1262Q571 1313 655.50 1404Q740 1495 785 1569L922 1569L922 1546Q871 1480 764.50 1387.50Q658 1295 572 1241L505 1241L505 1262Z"  horiz-adv-x="920" vert-adv-y="2048"  />

      
      <glyph glyph-name="unife" unicode="&#xfe;" d="M498-16Q268-16 219 203L215 203Q202 131 66-492L-33-492L401 1556L500 1556Q386 1021 336 805L342 805Q435 961 541 1034.50Q647 1108 772 1108Q905 1108 978 1015.50Q1051 923 1051 733Q1051 538 979 362Q907 186 781.50 85Q656-16 498-16M748 1018Q662 1018 575.50 960.50Q489 903 413 791Q337 679 301.50 553Q266 427 266 346Q266 221 327.50 145.50Q389 70 496 70Q620 70 721 154Q822 238 885 397.50Q948 557 948 723Q948 1018 748 1018Z"  horiz-adv-x="1163" vert-adv-y="2048"  />

      
      <glyph glyph-name="uniff" unicode="&#xff;" d="M123 1087L223 1087L305 539Q356 188 360 90L371 90Q414 195 557 457L905 1087L1008 1087L295-203Q223-330 172.50-381Q122-432 58.50-462Q-5-492-88-492Q-156-492-217-471L-217-379Q-146-406-80-406Q0-406 67-356.50Q134-307 197-192Q260-77 297-8L123 1087M698 1366Q698 1415 718.50 1444Q739 1473 775 1473Q829 1473 829 1409Q829 1361 808 1332Q787 1303 753 1303Q698 1303 698 1366M354 1366Q354 1415 374.50 1444Q395 1473 431 1473Q485 1473 485 1409Q485 1361 464 1332Q443 1303 409 1303Q354 1303 354 1366Z"  horiz-adv-x="920" vert-adv-y="2048"  />

      
      <glyph glyph-name="uni0100" unicode="&#x0100;" d="M805 520L293 520L6 0L-111 0L711 1468L778 1468L979 0L874 0L805 520M793 612L754 903Q723 1145 715 1305Q685 1242 650.50 1175Q616 1108 344 612L793 612M512 1671L1020 1671L1002 1583L494 1583L512 1671Z"  horiz-adv-x="1059" vert-adv-y="2048"  />

      
      <glyph glyph-name="uni0101" unicode="&#x0101;" d="M655 1104Q887 1104 934 885L940 885L999 1087L1079 1087L850 0L768 0L813 274L807 274Q723 132 620 56Q517-20 383-20Q102-20 102 354Q102 551 177 730Q252 909 377.50 1006.50Q503 1104 655 1104M406 70Q495 70 583.50 132Q672 194 742.50 298Q813 402 850 528Q887 654 887 741Q887 820 861 882.50Q835 945 784 981.50Q733 1018 657 1018Q533 1018 433 936Q333 854 269 690.50Q205 527 205 365Q205 213 255 141.50Q305 70 406 70M469 1333L977 1333L959 1245L451 1245L469 1333Z"  horiz-adv-x="1133" vert-adv-y="2048"  />

      
      <glyph glyph-name="uni0102" unicode="&#x0102;" d="M805 520L293 520L6 0L-111 0L711 1468L778 1468L979 0L874 0L805 520M793 612L754 903Q723 1145 715 1305Q685 1242 650.50 1175Q616 1108 344 612L793 612M1043 1819Q1014 1699 942 1642Q870 1585 750 1585Q645 1585 587 1635.50Q529 1686 529 1778L529 1799L531 1819L600 1819Q600 1751 636 1716Q672 1681 758 1681Q843 1681 894.50 1711.50Q946 1742 971 1819L1043 1819Z"  horiz-adv-x="1059" vert-adv-y="2048"  />

      
      <glyph glyph-name="uni0103" unicode="&#x0103;" d="M655 1104Q887 1104 934 885L940 885L999 1087L1079 1087L850 0L768 0L813 274L807 274Q723 132 620 56Q517-20 383-20Q102-20 102 354Q102 551 177 730Q252 909 377.50 1006.50Q503 1104 655 1104M406 70Q495 70 583.50 132Q672 194 742.50 298Q813 402 850 528Q887 654 887 741Q887 820 861 882.50Q835 945 784 981.50Q733 1018 657 1018Q533 1018 433 936Q333 854 269 690.50Q205 527 205 365Q205 213 255 141.50Q305 70 406 70M1020 1481Q991 1361 919 1304Q847 1247 727 1247Q622 1247 564 1297.50Q506 1348 506 1440L506 1461L508 1481L577 1481Q577 1413 613 1378Q649 1343 735 1343Q820 1343 871.50 1373.50Q923 1404 948 1481L1020 1481Z"  horiz-adv-x="1133" vert-adv-y="2048"  />

      
      <glyph glyph-name="uni0104" unicode="&#x0104;" d="M805 520L293 520L6 0L-111 0L711 1468L778 1468L979 0L874 0L805 520M793 612L754 903Q723 1145 715 1305Q685 1242 650.50 1175Q616 1108 344 612L793 612M947 0L872-60Q811-107 780.50-155Q750-203 750-256Q750-338 838-338Q871-338 914-328L914-399Q873-414 816-414Q741-414 699.50-376Q658-338 658-268Q658-199 706-135.50Q754-72 875 0L947 0Z"  horiz-adv-x="1059" vert-adv-y="2048"  />

      
      <glyph glyph-name="uni0105" unicode="&#x0105;" d="M655 1104Q887 1104 934 885L940 885L999 1087L1079 1087L850 0L768 0L813 274L807 274Q723 132 620 56Q517-20 383-20Q102-20 102 354Q102 551 177 730Q252 909 377.50 1006.50Q503 1104 655 1104M406 70Q495 70 583.50 132Q672 194 742.50 298Q813 402 850 528Q887 654 887 741Q887 820 861 882.50Q835 945 784 981.50Q733 1018 657 1018Q533 1018 433 936Q333 854 269 690.50Q205 527 205 365Q205 213 255 141.50Q305 70 406 70M840 0L765-60Q704-107 673.50-155Q643-203 643-256Q643-338 731-338Q764-338 807-328L807-399Q766-414 709-414Q634-414 592.50-376Q551-338 551-268Q551-199 599-135.50Q647-72 768 0L840 0Z"  horiz-adv-x="1133" vert-adv-y="2048"  />

      
      <glyph glyph-name="uni0106" unicode="&#x0106;" d="M961 1389Q764 1389 609.50 1284.50Q455 1180 364.50 980Q274 780 274 539Q274 314 384.50 193Q495 72 702 72Q842 72 1006 123L1006 29Q850-20 690-20Q438-20 304 125Q170 270 170 535Q170 801 274.50 1023Q379 1245 559 1364Q739 1483 961 1483Q1138 1483 1268 1415L1223 1325Q1168 1355 1098.50 1372Q1029 1389 961 1389M856 1600Q922 1651 1006.50 1742Q1091 1833 1136 1907L1273 1907L1273 1884Q1222 1818 1115.50 1725.50Q1009 1633 923 1579L856 1579L856 1600Z"  horiz-adv-x="1169" vert-adv-y="2048"  />

      
      <glyph glyph-name="uni0107" unicode="&#x0107;" d="M477-20Q303-20 202.50 90.50Q102 201 102 397Q102 590 175.50 758.50Q249 927 374 1015.50Q499 1104 664 1104Q798 1104 905 1061L877 971Q770 1018 659 1018Q530 1018 426.50 941Q323 864 264 719Q205 574 205 399Q205 241 278.50 155.50Q352 70 487 70Q558 70 618.50 83Q679 96 750 129L750 37Q634-20 477-20M577 1262Q643 1313 727.50 1404Q812 1495 857 1569L994 1569L994 1546Q943 1480 836.50 1387.50Q730 1295 644 1241L577 1241L577 1262Z"  horiz-adv-x="887" vert-adv-y="2048"  />

      
      <glyph glyph-name="uni0108" unicode="&#x0108;" d="M961 1389Q764 1389 609.50 1284.50Q455 1180 364.50 980Q274 780 274 539Q274 314 384.50 193Q495 72 702 72Q842 72 1006 123L1006 29Q850-20 690-20Q438-20 304 125Q170 270 170 535Q170 801 274.50 1023Q379 1245 559 1364Q739 1483 961 1483Q1138 1483 1268 1415L1223 1325Q1168 1355 1098.50 1372Q1029 1389 961 1389M1171 1579L1122 1579Q1052 1639 961 1786Q906 1729 836 1671.50Q766 1614 711 1579L657 1579L657 1608Q725 1664 814.50 1756.50Q904 1849 942 1907L1006 1907Q1029 1843 1078.50 1754.50Q1128 1666 1171 1608L1171 1579Z"  horiz-adv-x="1169" vert-adv-y="2048"  />

      
      <glyph glyph-name="uni0109" unicode="&#x0109;" d="M477-20Q303-20 202.50 90.50Q102 201 102 397Q102 590 175.50 758.50Q249 927 374 1015.50Q499 1104 664 1104Q798 1104 905 1061L877 971Q770 1018 659 1018Q530 1018 426.50 941Q323 864 264 719Q205 574 205 399Q205 241 278.50 155.50Q352 70 487 70Q558 70 618.50 83Q679 96 750 129L750 37Q634-20 477-20M908 1241L859 1241Q789 1301 698 1448Q643 1391 573 1333.50Q503 1276 448 1241L394 1241L394 1270Q462 1326 551.50 1418.50Q641 1511 679 1569L743 1569Q766 1505 815.50 1416.50Q865 1328 908 1270L908 1241Z"  horiz-adv-x="887" vert-adv-y="2048"  />

      
      <glyph glyph-name="uni010A" unicode="&#x010A;" d="M961 1389Q764 1389 609.50 1284.50Q455 1180 364.50 980Q274 780 274 539Q274 314 384.50 193Q495 72 702 72Q842 72 1006 123L1006 29Q850-20 690-20Q438-20 304 125Q170 270 170 535Q170 801 274.50 1023Q379 1245 559 1364Q739 1483 961 1483Q1138 1483 1268 1415L1223 1325Q1168 1355 1098.50 1372Q1029 1389 961 1389M848 1704Q848 1760 869.50 1792.50Q891 1825 930 1825Q987 1825 987 1753Q987 1695 964.50 1662.50Q942 1630 907 1630Q848 1630 848 1704Z"  horiz-adv-x="1169" vert-adv-y="2048"  />

      
      <glyph glyph-name="uni010B" unicode="&#x010B;" d="M477-20Q303-20 202.50 90.50Q102 201 102 397Q102 590 175.50 758.50Q249 927 374 1015.50Q499 1104 664 1104Q798 1104 905 1061L877 971Q770 1018 659 1018Q530 1018 426.50 941Q323 864 264 719Q205 574 205 399Q205 241 278.50 155.50Q352 70 487 70Q558 70 618.50 83Q679 96 750 129L750 37Q634-20 477-20M643 1366Q643 1422 664.50 1454.50Q686 1487 725 1487Q782 1487 782 1415Q782 1357 759.50 1324.50Q737 1292 702 1292Q643 1292 643 1366Z"  horiz-adv-x="887" vert-adv-y="2048"  />

      
      <glyph glyph-name="uni010C" unicode="&#x010C;" d="M961 1389Q764 1389 609.50 1284.50Q455 1180 364.50 980Q274 780 274 539Q274 314 384.50 193Q495 72 702 72Q842 72 1006 123L1006 29Q850-20 690-20Q438-20 304 125Q170 270 170 535Q170 801 274.50 1023Q379 1245 559 1364Q739 1483 961 1483Q1138 1483 1268 1415L1223 1325Q1168 1355 1098.50 1372Q1029 1389 961 1389M680 1907L729 1907Q801 1846 891 1700Q946 1757 1016 1814.50Q1086 1872 1141 1907L1194 1907L1194 1878Q1126 1823 1038.50 1732Q951 1641 909 1579L846 1579Q817 1653 769.50 1737Q722 1821 680 1878L680 1907Z"  horiz-adv-x="1169" vert-adv-y="2048"  />

      
      <glyph glyph-name="uni010D" unicode="&#x010D;" d="M477-20Q303-20 202.50 90.50Q102 201 102 397Q102 590 175.50 758.50Q249 927 374 1015.50Q499 1104 664 1104Q798 1104 905 1061L877 971Q770 1018 659 1018Q530 1018 426.50 941Q323 864 264 719Q205 574 205 399Q205 241 278.50 155.50Q352 70 487 70Q558 70 618.50 83Q679 96 750 129L750 37Q634-20 477-20M449 1569L498 1569Q570 1508 660 1362Q715 1419 785 1476.50Q855 1534 910 1569L963 1569L963 1540Q895 1485 807.50 1394Q720 1303 678 1241L615 1241Q586 1315 538.50 1399Q491 1483 449 1540L449 1569Z"  horiz-adv-x="887" vert-adv-y="2048"  />

      
      <glyph glyph-name="uni010E" unicode="&#x010E;" d="M1288 879Q1288 626 1178.50 417.50Q1069 209 878 104.50Q687 0 432 0L102 0L412 1462L717 1462Q999 1462 1143.50 1314.50Q1288 1167 1288 879M430 90Q656 90 824.50 184.50Q993 279 1085.50 460Q1178 641 1178 872Q1178 1370 702 1370L496 1370L221 90L430 90M608 1907L657 1907Q729 1846 819 1700Q874 1757 944 1814.50Q1014 1872 1069 1907L1122 1907L1122 1878Q1054 1823 966.50 1732Q879 1641 837 1579L774 1579Q745 1653 697.50 1737Q650 1821 608 1878L608 1907Z"  horiz-adv-x="1350" vert-adv-y="2048"  />

      
      <glyph glyph-name="uni010F" unicode="&#x010F;" d="M655 1104Q885 1104 934 885L938 885Q950 951 1081 1556L1180 1556L850 0L768 0L813 274L807 274Q634-20 383-20Q102-20 102 354Q102 547 173.50 724Q245 901 371 1002.50Q497 1104 655 1104M406 70Q495 70 584.50 132.50Q674 195 744.50 300.50Q815 406 851 531.50Q887 657 887 741Q887 867 825.50 942.50Q764 1018 657 1018Q533 1018 433 935Q333 852 269 692.50Q205 533 205 365Q205 70 406 70M1257 1255Q1293 1301 1345 1401.50Q1397 1502 1417 1556L1513 1556L1513 1536Q1504 1497 1433.50 1390Q1363 1283 1305 1229L1257 1229L1257 1255Z"  horiz-adv-x="1133" vert-adv-y="2048"  />

      
      <glyph glyph-name="uni0110" unicode="&#x0110;" d="M1288 879Q1288 626 1178.50 417.50Q1069 209 878 104.50Q687 0 432 0L102 0L246 676L90 676L111 772L266 772L412 1462L717 1462Q999 1462 1143.50 1314.50Q1288 1167 1288 879M430 90Q656 90 824.50 184.50Q993 279 1085.50 460Q1178 641 1178 872Q1178 1370 702 1370L496 1370L367 772L745 772L725 676L346 676L221 90L430 90Z"  horiz-adv-x="1352" vert-adv-y="2048"  />

      
      <glyph glyph-name="uni0111" unicode="&#x0111;" d="M655 1104Q882 1104 934 885L938 885Q945 927 1020 1272L616 1272L637 1356L1038 1356L1081 1556L1180 1556L1137 1356L1294 1356L1274 1272L1120 1272L850 0L768 0L813 274L807 274Q634-20 383-20Q102-20 102 354Q102 547 173.50 724Q245 901 371 1002.50Q497 1104 655 1104M406 70Q495 70 584.50 132.50Q674 195 744.50 300.50Q815 406 851 531.50Q887 657 887 741Q887 867 825.50 942.50Q764 1018 657 1018Q533 1018 433 935Q333 852 269 692.50Q205 533 205 365Q205 70 406 70Z"  horiz-adv-x="1163" vert-adv-y="2048"  />

      
      <glyph glyph-name="uni0112" unicode="&#x0112;" d="M829 0L102 0L412 1462L1139 1462L1118 1368L494 1368L377 815L967 815L946 721L358 721L223 94L850 94L829 0M543 1671L1051 1671L1033 1583L525 1583L543 1671Z"  horiz-adv-x="1067" vert-adv-y="2048"  />

      
      <glyph glyph-name="uni0113" unicode="&#x0113;" d="M469-20Q296-20 199 89.50Q102 199 102 395Q102 576 173 742Q244 908 368.50 1006Q493 1104 643 1104Q757 1104 825 1043Q893 982 893 877Q893 696 729.50 601Q566 506 244 506L211 506Q205 462 205 408Q205 243 279 156.50Q353 70 492 70Q624 70 768 143L768 49Q628-20 469-20M631 1018Q500 1018 387.50 902.50Q275 787 225 594L274 594Q791 594 791 864Q791 931 747.50 974.50Q704 1018 631 1018M419 1333L927 1333L909 1245L401 1245L419 1333Z"  horiz-adv-x="928" vert-adv-y="2048"  />

      
      <glyph glyph-name="uni0114" unicode="&#x0114;" d="M829 0L102 0L412 1462L1139 1462L1118 1368L494 1368L377 815L967 815L946 721L358 721L223 94L850 94L829 0M1088 1819Q1059 1699 987 1642Q915 1585 795 1585Q690 1585 632 1635.50Q574 1686 574 1778L574 1799L576 1819L645 1819Q645 1751 681 1716Q717 1681 803 1681Q888 1681 939.50 1711.50Q991 1742 1016 1819L1088 1819Z"  horiz-adv-x="1067" vert-adv-y="2048"  />

      
      <glyph glyph-name="uni0115" unicode="&#x0115;" d="M469-20Q296-20 199 89.50Q102 199 102 395Q102 576 173 742Q244 908 368.50 1006Q493 1104 643 1104Q757 1104 825 1043Q893 982 893 877Q893 696 729.50 601Q566 506 244 506L211 506Q205 462 205 408Q205 243 279 156.50Q353 70 492 70Q624 70 768 143L768 49Q628-20 469-20M631 1018Q500 1018 387.50 902.50Q275 787 225 594L274 594Q791 594 791 864Q791 931 747.50 974.50Q704 1018 631 1018M946 1481Q917 1361 845 1304Q773 1247 653 1247Q548 1247 490 1297.50Q432 1348 432 1440L432 1461L434 1481L503 1481Q503 1413 539 1378Q575 1343 661 1343Q746 1343 797.50 1373.50Q849 1404 874 1481L946 1481Z"  horiz-adv-x="928" vert-adv-y="2048"  />

      
      <glyph glyph-name="uni0116" unicode="&#x0116;" d="M829 0L102 0L412 1462L1139 1462L1118 1368L494 1368L377 815L967 815L946 721L358 721L223 94L850 94L829 0M734 1675Q734 1731 755.50 1763.50Q777 1796 816 1796Q873 1796 873 1724Q873 1666 850.50 1633.50Q828 1601 793 1601Q734 1601 734 1675Z"  horiz-adv-x="1067" vert-adv-y="2048"  />

      
      <glyph glyph-name="uni0117" unicode="&#x0117;" d="M469-20Q296-20 199 89.50Q102 199 102 395Q102 576 173 742Q244 908 368.50 1006Q493 1104 643 1104Q757 1104 825 1043Q893 982 893 877Q893 696 729.50 601Q566 506 244 506L211 506Q205 462 205 408Q205 243 279 156.50Q353 70 492 70Q624 70 768 143L768 49Q628-20 469-20M631 1018Q500 1018 387.50 902.50Q275 787 225 594L274 594Q791 594 791 864Q791 931 747.50 974.50Q704 1018 631 1018M574 1366Q574 1422 595.50 1454.50Q617 1487 656 1487Q713 1487 713 1415Q713 1357 690.50 1324.50Q668 1292 633 1292Q574 1292 574 1366Z"  horiz-adv-x="928" vert-adv-y="2048"  />

      
      <glyph glyph-name="uni0118" unicode="&#x0118;" d="M829 0L102 0L412 1462L1139 1462L1118 1368L494 1368L377 815L967 815L946 721L358 721L223 94L850 94L829 0M742 0L667-60Q606-107 575.50-155Q545-203 545-256Q545-338 633-338Q666-338 709-328L709-399Q668-414 611-414Q536-414 494.50-376Q453-338 453-268Q453-199 501-135.50Q549-72 670 0L742 0Z"  horiz-adv-x="1067" vert-adv-y="2048"  />

      
      <glyph glyph-name="uni0119" unicode="&#x0119;" d="M469-20Q296-20 199 89.50Q102 199 102 395Q102 576 173 742Q244 908 368.50 1006Q493 1104 643 1104Q757 1104 825 1043Q893 982 893 877Q893 696 729.50 601Q566 506 244 506L211 506Q205 462 205 408Q205 243 279 156.50Q353 70 492 70Q624 70 768 143L768 49Q628-20 469-20M631 1018Q500 1018 387.50 902.50Q275 787 225 594L274 594Q791 594 791 864Q791 931 747.50 974.50Q704 1018 631 1018M699 31L624-29Q563-76 532.50-124Q502-172 502-225Q502-307 590-307Q623-307 666-297L666-368Q625-383 568-383Q493-383 451.50-345Q410-307 410-237Q410-168 458-104.50Q506-41 627 31L699 31Z"  horiz-adv-x="928" vert-adv-y="2048"  />

      
      <glyph glyph-name="uni011A" unicode="&#x011A;" d="M829 0L102 0L412 1462L1139 1462L1118 1368L494 1368L377 815L967 815L946 721L358 721L223 94L850 94L829 0M582 1907L631 1907Q703 1846 793 1700Q848 1757 918 1814.50Q988 1872 1043 1907L1096 1907L1096 1878Q1028 1823 940.50 1732Q853 1641 811 1579L748 1579Q719 1653 671.50 1737Q624 1821 582 1878L582 1907Z"  horiz-adv-x="1067" vert-adv-y="2048"  />

      
      <glyph glyph-name="uni011B" unicode="&#x011B;" d="M469-20Q296-20 199 89.50Q102 199 102 395Q102 576 173 742Q244 908 368.50 1006Q493 1104 643 1104Q757 1104 825 1043Q893 982 893 877Q893 696 729.50 601Q566 506 244 506L211 506Q205 462 205 408Q205 243 279 156.50Q353 70 492 70Q624 70 768 143L768 49Q628-20 469-20M631 1018Q500 1018 387.50 902.50Q275 787 225 594L274 594Q791 594 791 864Q791 931 747.50 974.50Q704 1018 631 1018M445 1569L494 1569Q566 1508 656 1362Q711 1419 781 1476.50Q851 1534 906 1569L959 1569L959 1540Q891 1485 803.50 1394Q716 1303 674 1241L611 1241Q582 1315 534.50 1399Q487 1483 445 1540L445 1569Z"  horiz-adv-x="928" vert-adv-y="2048"  />

      
      <glyph glyph-name="uni011C" unicode="&#x011C;" d="M856 735L1262 735L1112 53Q901-20 707-20Q450-20 310 126Q170 272 170 547Q170 812 275 1030.50Q380 1249 558.50 1366Q737 1483 954 1483Q1067 1483 1157 1464Q1247 1445 1341 1405L1303 1311Q1193 1357 1113.50 1373Q1034 1389 946 1389Q762 1389 607 1281.50Q452 1174 363 980Q274 786 274 547Q274 318 388.50 195Q503 72 715 72Q870 72 1024 119L1141 645L838 645L856 735M1177 1579L1128 1579Q1058 1639 967 1786Q912 1729 842 1671.50Q772 1614 717 1579L663 1579L663 1608Q731 1664 820.50 1756.50Q910 1849 948 1907L1012 1907Q1035 1843 1084.50 1754.50Q1134 1666 1177 1608L1177 1579Z"  horiz-adv-x="1374" vert-adv-y="2048"  />

      
      <glyph glyph-name="uni011D" unicode="&#x011D;" d="M1100 1087L1083 1008L840 997Q866 969 883.50 913Q901 857 901 799Q901 690 846.50 592.50Q792 495 698.50 447Q605 399 485 399Q422 399 408 408Q328 375 284 335Q240 295 240 254Q240 213 271.50 189.50Q303 166 385 158L506 147Q852 116 852-117Q852-229 787-314.50Q722-400 600-446Q478-492 309-492Q123-492 17.50-420Q-88-348-88-217Q-88 19 221 117Q143 159 143 240Q143 363 334 442Q263 478 223.50 547.50Q184 617 184 705Q184 816 237.50 909Q291 1002 385.50 1055Q480 1108 592 1108Q661 1108 739 1087L1100 1087M14-207Q14-308 95-357Q176-406 319-406Q522-406 636-331.50Q750-257 750-127Q750-42 687.50 3.50Q625 49 469 61L309 76Q152 31 83-38.50Q14-108 14-207M285 711Q285 599 343.50 541Q402 483 508 483Q596 483 662 520Q728 557 764.50 634Q801 711 801 803Q801 907 745 964.50Q689 1022 588 1022Q495 1022 427 979Q359 936 322 863Q285 790 285 711M898 1241L849 1241Q779 1301 688 1448Q633 1391 563 1333.50Q493 1276 438 1241L384 1241L384 1270Q452 1326 541.50 1418.50Q631 1511 669 1569L733 1569Q756 1505 805.50 1416.50Q855 1328 898 1270L898 1241Z"  horiz-adv-x="1040" vert-adv-y="2048"  />

      
      <glyph glyph-name="uni011E" unicode="&#x011E;" d="M856 735L1262 735L1112 53Q901-20 707-20Q450-20 310 126Q170 272 170 547Q170 812 275 1030.50Q380 1249 558.50 1366Q737 1483 954 1483Q1067 1483 1157 1464Q1247 1445 1341 1405L1303 1311Q1193 1357 1113.50 1373Q1034 1389 946 1389Q762 1389 607 1281.50Q452 1174 363 980Q274 786 274 547Q274 318 388.50 195Q503 72 715 72Q870 72 1024 119L1141 645L838 645L856 735M1217 1819Q1188 1699 1116 1642Q1044 1585 924 1585Q819 1585 761 1635.50Q703 1686 703 1778L703 1799L705 1819L774 1819Q774 1751 810 1716Q846 1681 932 1681Q1017 1681 1068.50 1711.50Q1120 1742 1145 1819L1217 1819Z"  horiz-adv-x="1374" vert-adv-y="2048"  />

      
      <glyph glyph-name="uni011F" unicode="&#x011F;" d="M1100 1087L1083 1008L840 997Q866 969 883.50 913Q901 857 901 799Q901 690 846.50 592.50Q792 495 698.50 447Q605 399 485 399Q422 399 408 408Q328 375 284 335Q240 295 240 254Q240 213 271.50 189.50Q303 166 385 158L506 147Q852 116 852-117Q852-229 787-314.50Q722-400 600-446Q478-492 309-492Q123-492 17.50-420Q-88-348-88-217Q-88 19 221 117Q143 159 143 240Q143 363 334 442Q263 478 223.50 547.50Q184 617 184 705Q184 816 237.50 909Q291 1002 385.50 1055Q480 1108 592 1108Q661 1108 739 1087L1100 1087M14-207Q14-308 95-357Q176-406 319-406Q522-406 636-331.50Q750-257 750-127Q750-42 687.50 3.50Q625 49 469 61L309 76Q152 31 83-38.50Q14-108 14-207M285 711Q285 599 343.50 541Q402 483 508 483Q596 483 662 520Q728 557 764.50 634Q801 711 801 803Q801 907 745 964.50Q689 1022 588 1022Q495 1022 427 979Q359 936 322 863Q285 790 285 711M921 1481Q892 1361 820 1304Q748 1247 628 1247Q523 1247 465 1297.50Q407 1348 407 1440L407 1461L409 1481L478 1481Q478 1413 514 1378Q550 1343 636 1343Q721 1343 772.50 1373.50Q824 1404 849 1481L921 1481Z"  horiz-adv-x="1040" vert-adv-y="2048"  />

      
      <glyph glyph-name="uni0120" unicode="&#x0120;" d="M856 735L1262 735L1112 53Q901-20 707-20Q450-20 310 126Q170 272 170 547Q170 812 275 1030.50Q380 1249 558.50 1366Q737 1483 954 1483Q1067 1483 1157 1464Q1247 1445 1341 1405L1303 1311Q1193 1357 1113.50 1373Q1034 1389 946 1389Q762 1389 607 1281.50Q452 1174 363 980Q274 786 274 547Q274 318 388.50 195Q503 72 715 72Q870 72 1024 119L1141 645L838 645L856 735M869 1704Q869 1760 890.50 1792.50Q912 1825 951 1825Q1008 1825 1008 1753Q1008 1695 985.50 1662.50Q963 1630 928 1630Q869 1630 869 1704Z"  horiz-adv-x="1374" vert-adv-y="2048"  />

      
      <glyph glyph-name="uni0121" unicode="&#x0121;" d="M1100 1087L1083 1008L840 997Q866 969 883.50 913Q901 857 901 799Q901 690 846.50 592.50Q792 495 698.50 447Q605 399 485 399Q422 399 408 408Q328 375 284 335Q240 295 240 254Q240 213 271.50 189.50Q303 166 385 158L506 147Q852 116 852-117Q852-229 787-314.50Q722-400 600-446Q478-492 309-492Q123-492 17.50-420Q-88-348-88-217Q-88 19 221 117Q143 159 143 240Q143 363 334 442Q263 478 223.50 547.50Q184 617 184 705Q184 816 237.50 909Q291 1002 385.50 1055Q480 1108 592 1108Q661 1108 739 1087L1100 1087M14-207Q14-308 95-357Q176-406 319-406Q522-406 636-331.50Q750-257 750-127Q750-42 687.50 3.50Q625 49 469 61L309 76Q152 31 83-38.50Q14-108 14-207M285 711Q285 599 343.50 541Q402 483 508 483Q596 483 662 520Q728 557 764.50 634Q801 711 801 803Q801 907 745 964.50Q689 1022 588 1022Q495 1022 427 979Q359 936 322 863Q285 790 285 711M605 1366Q605 1422 626.50 1454.50Q648 1487 687 1487Q744 1487 744 1415Q744 1357 721.50 1324.50Q699 1292 664 1292Q605 1292 605 1366Z"  horiz-adv-x="1040" vert-adv-y="2048"  />

      
      <glyph glyph-name="uni0122" unicode="&#x0122;" d="M856 735L1262 735L1112 53Q901-20 707-20Q450-20 310 126Q170 272 170 547Q170 812 275 1030.50Q380 1249 558.50 1366Q737 1483 954 1483Q1067 1483 1157 1464Q1247 1445 1341 1405L1303 1311Q1193 1357 1113.50 1373Q1034 1389 946 1389Q762 1389 607 1281.50Q452 1174 363 980Q274 786 274 547Q274 318 388.50 195Q503 72 715 72Q870 72 1024 119L1141 645L838 645L856 735M461-426Q495-382 546.50-284Q598-186 621-125L717-125L717-145Q708-185 638.50-290.50Q569-396 508-453L461-453L461-426Z"  horiz-adv-x="1374" vert-adv-y="2048"  />

      
      </font>
</defs>
</svg>
